  0
SECTION
  2
HEADER
  9
$ANGBASE
  50
0.0
  9
$ANGDIR
  70
1
  9
$MEASUREMENT
  70
1
  0
ENDSEC
  0
SECTION
  2
TABLES
  0
TABLE
  2
LTYPE
  70
4
  0
LTYPE
  5
40F
  2
CONTINUOUS
  70
0
  3
Solid line
  72
65
  73
0
  40
0.0
  0
LTYPE
  5
410
  2
DASHDOT
 70
0
  3
Dash Dot ____ _ ____ _
 72
65
 73
4
 40
2.0
 49
1.25
 49
-0.25
 49
0.25
 49
-0.25
  0
LTYPE
  5
411
  2
DASHED
 70
0
  3
Dashed __ __ __ __ __
 72
65
 73
2
 40
0.75
 49
0.5
 49
-0.25
  0
LTYPE
  5
43B
  2
DOTTED
 70
0
  3
Dotted .  .  .  .
 72
65
 73
2
 40
0.2
 49
0.0
 49
-0.2
  0
ENDTAB
  0
TABLE
  2
STYLE
  70
4
  0
STYLE
  2
KICAD
  70
0
  40
0
  41
1
  42
1
  50
0
  71
0
  3
isocp.shx
  0
STYLE
  2
KICADB
  70
0
  40
0
  41
1
  42
1
  50
0
  71
0
  3
isocp.shx
  0
STYLE
  2
KICADI
  70
0
  40
0
  41
1
  42
1
  50
15
  71
0
  3
isocp.shx
  0
STYLE
  2
KICADBI
  70
0
  40
0
  41
1
  42
1
  50
15
  71
0
  3
isocp.shx
  0
ENDTAB
  0
TABLE
  2
LAYER
  70
1
  0
LAYER
  2
BLACK
  70
0
  62
7
  6
CONTINUOUS
  0
ENDTAB
  0
ENDSEC
  0
SECTION
  2
ENTITIES
0
LINE
8
BLACK
6
CONTINUOUS
10
224.791
20
-76.175
11
224.795
21
-76.1754
0
LINE
8
BLACK
6
CONTINUOUS
10
224.795
20
-76.1754
11
224.8
21
-76.1768
0
LINE
8
BLACK
6
CONTINUOUS
10
224.8
20
-76.1768
11
224.804
21
-76.1791
0
LINE
8
BLACK
6
CONTINUOUS
10
224.804
20
-76.1791
11
224.808
21
-76.1822
0
LINE
8
BLACK
6
CONTINUOUS
10
224.808
20
-76.1822
11
224.811
21
-76.186
0
LINE
8
BLACK
6
CONTINUOUS
10
224.811
20
-76.186
11
224.813
21
-76.1904
0
LINE
8
BLACK
6
CONTINUOUS
10
224.813
20
-76.1904
11
224.815
21
-76.1951
0
LINE
8
BLACK
6
CONTINUOUS
10
224.815
20
-76.1951
11
224.815
21
-76.2
0
LINE
8
BLACK
6
CONTINUOUS
10
224.815
20
-76.2
11
224.815
21
-76.2012
0
LINE
8
BLACK
6
CONTINUOUS
10
224.815
20
-76.2012
11
224.815
21
-160.781
0
LINE
8
BLACK
6
CONTINUOUS
10
224.815
20
-160.781
11
224.815
21
-160.782
0
LINE
8
BLACK
6
CONTINUOUS
10
224.815
20
-160.782
11
224.815
21
-160.787
0
LINE
8
BLACK
6
CONTINUOUS
10
224.815
20
-160.787
11
224.813
21
-160.792
0
LINE
8
BLACK
6
CONTINUOUS
10
224.813
20
-160.792
11
224.811
21
-160.796
0
LINE
8
BLACK
6
CONTINUOUS
10
224.811
20
-160.796
11
224.808
21
-160.8
0
LINE
8
BLACK
6
CONTINUOUS
10
224.808
20
-160.8
11
224.804
21
-160.803
0
LINE
8
BLACK
6
CONTINUOUS
10
224.804
20
-160.803
11
224.8
21
-160.805
0
LINE
8
BLACK
6
CONTINUOUS
10
224.8
20
-160.805
11
224.795
21
-160.807
0
LINE
8
BLACK
6
CONTINUOUS
10
224.795
20
-160.807
11
224.791
21
-160.807
0
LINE
8
BLACK
6
CONTINUOUS
10
224.791
20
-160.807
11
224.791
21
-160.807
0
LINE
8
BLACK
6
CONTINUOUS
10
224.791
20
-160.807
11
224.79
21
-160.807
0
LINE
8
BLACK
6
CONTINUOUS
10
224.79
20
-160.807
11
224.789
21
-160.807
0
LINE
8
BLACK
6
CONTINUOUS
10
224.789
20
-160.807
11
178.055
21
-160.807
0
LINE
8
BLACK
6
CONTINUOUS
10
178.055
20
-160.807
11
178.054
21
-160.807
0
LINE
8
BLACK
6
CONTINUOUS
10
178.054
20
-160.807
11
178.053
21
-160.807
0
LINE
8
BLACK
6
CONTINUOUS
10
178.053
20
-160.807
11
178.053
21
-160.807
0
LINE
8
BLACK
6
CONTINUOUS
10
178.053
20
-160.807
11
178.049
21
-160.807
0
LINE
8
BLACK
6
CONTINUOUS
10
178.049
20
-160.807
11
178.044
21
-160.805
0
LINE
8
BLACK
6
CONTINUOUS
10
178.044
20
-160.805
11
178.04
21
-160.803
0
LINE
8
BLACK
6
CONTINUOUS
10
178.04
20
-160.803
11
178.036
21
-160.8
0
LINE
8
BLACK
6
CONTINUOUS
10
178.036
20
-160.8
11
178.033
21
-160.796
0
LINE
8
BLACK
6
CONTINUOUS
10
178.033
20
-160.796
11
178.031
21
-160.792
0
LINE
8
BLACK
6
CONTINUOUS
10
178.031
20
-160.792
11
178.029
21
-160.787
0
LINE
8
BLACK
6
CONTINUOUS
10
178.029
20
-160.787
11
178.029
21
-160.782
0
LINE
8
BLACK
6
CONTINUOUS
10
178.029
20
-160.782
11
178.029
21
-160.781
0
LINE
8
BLACK
6
CONTINUOUS
10
178.029
20
-160.781
11
178.029
21
-76.2012
0
LINE
8
BLACK
6
CONTINUOUS
10
178.029
20
-76.2012
11
178.029
21
-76.2
0
LINE
8
BLACK
6
CONTINUOUS
10
178.029
20
-76.2
11
178.029
21
-76.1951
0
LINE
8
BLACK
6
CONTINUOUS
10
178.029
20
-76.1951
11
178.031
21
-76.1904
0
LINE
8
BLACK
6
CONTINUOUS
10
178.031
20
-76.1904
11
178.033
21
-76.186
0
LINE
8
BLACK
6
CONTINUOUS
10
178.033
20
-76.186
11
178.036
21
-76.1822
0
LINE
8
BLACK
6
CONTINUOUS
10
178.036
20
-76.1822
11
178.04
21
-76.1791
0
LINE
8
BLACK
6
CONTINUOUS
10
178.04
20
-76.1791
11
178.044
21
-76.1768
0
LINE
8
BLACK
6
CONTINUOUS
10
178.044
20
-76.1768
11
178.049
21
-76.1754
0
LINE
8
BLACK
6
CONTINUOUS
10
178.049
20
-76.1754
11
178.053
21
-76.175
0
LINE
8
BLACK
6
CONTINUOUS
10
178.053
20
-76.175
11
178.054
21
-76.1749
0
LINE
8
BLACK
6
CONTINUOUS
10
178.054
20
-76.1749
11
178.055
21
-76.175
0
LINE
8
BLACK
6
CONTINUOUS
10
178.055
20
-76.175
11
224.789
21
-76.175
0
LINE
8
BLACK
6
CONTINUOUS
10
224.789
20
-76.175
11
224.79
21
-76.1749
0
LINE
8
BLACK
6
CONTINUOUS
10
224.79
20
-76.1749
11
224.791
21
-76.175
0
LINE
8
BLACK
6
CONTINUOUS
10
178.079
20
-76.225
11
178.079
21
-160.757
0
LINE
8
BLACK
6
CONTINUOUS
10
178.079
20
-160.757
11
224.765
21
-160.757
0
LINE
8
BLACK
6
CONTINUOUS
10
224.765
20
-160.757
11
224.765
21
-76.225
0
LINE
8
BLACK
6
CONTINUOUS
10
224.765
20
-76.225
11
178.079
21
-76.225
0
LINE
8
BLACK
6
CONTINUOUS
10
220.241
20
-158.034
11
220.361
21
-157.746
0
LINE
8
BLACK
6
CONTINUOUS
10
220.361
20
-157.746
11
220.534
21
-157.487
0
LINE
8
BLACK
6
CONTINUOUS
10
220.534
20
-157.487
11
220.754
21
-157.267
0
LINE
8
BLACK
6
CONTINUOUS
10
220.754
20
-157.267
11
221.013
21
-157.094
0
LINE
8
BLACK
6
CONTINUOUS
10
221.013
20
-157.094
11
221.301
21
-156.974
0
LINE
8
BLACK
6
CONTINUOUS
10
221.301
20
-156.974
11
221.607
21
-156.914
0
LINE
8
BLACK
6
CONTINUOUS
10
221.607
20
-156.914
11
221.919
21
-156.914
0
LINE
8
BLACK
6
CONTINUOUS
10
221.919
20
-156.914
11
222.225
21
-156.974
0
LINE
8
BLACK
6
CONTINUOUS
10
222.225
20
-156.974
11
222.513
21
-157.094
0
LINE
8
BLACK
6
CONTINUOUS
10
222.513
20
-157.094
11
222.772
21
-157.267
0
LINE
8
BLACK
6
CONTINUOUS
10
222.772
20
-157.267
11
222.992
21
-157.487
0
LINE
8
BLACK
6
CONTINUOUS
10
222.992
20
-157.487
11
223.165
21
-157.746
0
LINE
8
BLACK
6
CONTINUOUS
10
223.165
20
-157.746
11
223.285
21
-158.034
0
LINE
8
BLACK
6
CONTINUOUS
10
223.285
20
-158.034
11
223.345
21
-158.34
0
LINE
8
BLACK
6
CONTINUOUS
10
223.345
20
-158.34
11
223.345
21
-158.652
0
LINE
8
BLACK
6
CONTINUOUS
10
223.345
20
-158.652
11
223.285
21
-158.958
0
LINE
8
BLACK
6
CONTINUOUS
10
223.285
20
-158.958
11
223.165
21
-159.246
0
LINE
8
BLACK
6
CONTINUOUS
10
223.165
20
-159.246
11
222.992
21
-159.505
0
LINE
8
BLACK
6
CONTINUOUS
10
222.992
20
-159.505
11
222.772
21
-159.725
0
LINE
8
BLACK
6
CONTINUOUS
10
222.772
20
-159.725
11
222.513
21
-159.898
0
LINE
8
BLACK
6
CONTINUOUS
10
222.513
20
-159.898
11
222.225
21
-160.018
0
LINE
8
BLACK
6
CONTINUOUS
10
222.225
20
-160.018
11
221.919
21
-160.078
0
LINE
8
BLACK
6
CONTINUOUS
10
221.919
20
-160.078
11
221.607
21
-160.078
0
LINE
8
BLACK
6
CONTINUOUS
10
221.607
20
-160.078
11
221.301
21
-160.018
0
LINE
8
BLACK
6
CONTINUOUS
10
221.301
20
-160.018
11
221.013
21
-159.898
0
LINE
8
BLACK
6
CONTINUOUS
10
221.013
20
-159.898
11
220.754
21
-159.725
0
LINE
8
BLACK
6
CONTINUOUS
10
220.754
20
-159.725
11
220.534
21
-159.505
0
LINE
8
BLACK
6
CONTINUOUS
10
220.534
20
-159.505
11
220.361
21
-159.246
0
LINE
8
BLACK
6
CONTINUOUS
10
220.361
20
-159.246
11
220.241
21
-158.958
0
LINE
8
BLACK
6
CONTINUOUS
10
220.241
20
-158.958
11
220.181
21
-158.652
0
LINE
8
BLACK
6
CONTINUOUS
10
220.181
20
-158.652
11
220.181
21
-158.34
0
LINE
8
BLACK
6
CONTINUOUS
10
220.181
20
-158.34
11
220.241
21
-158.034
0
LINE
8
BLACK
6
CONTINUOUS
10
220.308
20
-158.937
11
220.422
21
-159.213
0
LINE
8
BLACK
6
CONTINUOUS
10
220.422
20
-159.213
11
220.588
21
-159.46
0
LINE
8
BLACK
6
CONTINUOUS
10
220.588
20
-159.46
11
220.799
21
-159.671
0
LINE
8
BLACK
6
CONTINUOUS
10
220.799
20
-159.671
11
221.046
21
-159.837
0
LINE
8
BLACK
6
CONTINUOUS
10
221.046
20
-159.837
11
221.322
21
-159.951
0
LINE
8
BLACK
6
CONTINUOUS
10
221.322
20
-159.951
11
221.614
21
-160.009
0
LINE
8
BLACK
6
CONTINUOUS
10
221.614
20
-160.009
11
221.912
21
-160.009
0
LINE
8
BLACK
6
CONTINUOUS
10
221.912
20
-160.009
11
222.204
21
-159.951
0
LINE
8
BLACK
6
CONTINUOUS
10
222.204
20
-159.951
11
222.48
21
-159.837
0
LINE
8
BLACK
6
CONTINUOUS
10
222.48
20
-159.837
11
222.727
21
-159.671
0
LINE
8
BLACK
6
CONTINUOUS
10
222.727
20
-159.671
11
222.938
21
-159.46
0
LINE
8
BLACK
6
CONTINUOUS
10
222.938
20
-159.46
11
223.104
21
-159.213
0
LINE
8
BLACK
6
CONTINUOUS
10
223.104
20
-159.213
11
223.218
21
-158.937
0
LINE
8
BLACK
6
CONTINUOUS
10
223.218
20
-158.937
11
223.276
21
-158.645
0
LINE
8
BLACK
6
CONTINUOUS
10
223.276
20
-158.645
11
223.276
21
-158.347
0
LINE
8
BLACK
6
CONTINUOUS
10
223.276
20
-158.347
11
223.218
21
-158.055
0
LINE
8
BLACK
6
CONTINUOUS
10
223.218
20
-158.055
11
223.104
21
-157.779
0
LINE
8
BLACK
6
CONTINUOUS
10
223.104
20
-157.779
11
222.938
21
-157.532
0
LINE
8
BLACK
6
CONTINUOUS
10
222.938
20
-157.532
11
222.727
21
-157.321
0
LINE
8
BLACK
6
CONTINUOUS
10
222.727
20
-157.321
11
222.48
21
-157.155
0
LINE
8
BLACK
6
CONTINUOUS
10
222.48
20
-157.155
11
222.204
21
-157.041
0
LINE
8
BLACK
6
CONTINUOUS
10
222.204
20
-157.041
11
221.912
21
-156.983
0
LINE
8
BLACK
6
CONTINUOUS
10
221.912
20
-156.983
11
221.614
21
-156.983
0
LINE
8
BLACK
6
CONTINUOUS
10
221.614
20
-156.983
11
221.322
21
-157.041
0
LINE
8
BLACK
6
CONTINUOUS
10
221.322
20
-157.041
11
221.046
21
-157.155
0
LINE
8
BLACK
6
CONTINUOUS
10
221.046
20
-157.155
11
220.799
21
-157.321
0
LINE
8
BLACK
6
CONTINUOUS
10
220.799
20
-157.321
11
220.588
21
-157.532
0
LINE
8
BLACK
6
CONTINUOUS
10
220.588
20
-157.532
11
220.422
21
-157.779
0
LINE
8
BLACK
6
CONTINUOUS
10
220.422
20
-157.779
11
220.308
21
-158.055
0
LINE
8
BLACK
6
CONTINUOUS
10
220.308
20
-158.055
11
220.25
21
-158.347
0
LINE
8
BLACK
6
CONTINUOUS
10
220.25
20
-158.347
11
220.25
21
-158.645
0
LINE
8
BLACK
6
CONTINUOUS
10
220.25
20
-158.645
11
220.308
21
-158.937
0
LINE
8
BLACK
6
CONTINUOUS
10
179.326
20
-158.034
11
179.446
21
-157.746
0
LINE
8
BLACK
6
CONTINUOUS
10
179.446
20
-157.746
11
179.619
21
-157.487
0
LINE
8
BLACK
6
CONTINUOUS
10
179.619
20
-157.487
11
179.839
21
-157.267
0
LINE
8
BLACK
6
CONTINUOUS
10
179.839
20
-157.267
11
180.098
21
-157.094
0
LINE
8
BLACK
6
CONTINUOUS
10
180.098
20
-157.094
11
180.386
21
-156.974
0
LINE
8
BLACK
6
CONTINUOUS
10
180.386
20
-156.974
11
180.692
21
-156.914
0
LINE
8
BLACK
6
CONTINUOUS
10
180.692
20
-156.914
11
181.004
21
-156.914
0
LINE
8
BLACK
6
CONTINUOUS
10
181.004
20
-156.914
11
181.31
21
-156.974
0
LINE
8
BLACK
6
CONTINUOUS
10
181.31
20
-156.974
11
181.598
21
-157.094
0
LINE
8
BLACK
6
CONTINUOUS
10
181.598
20
-157.094
11
181.857
21
-157.267
0
LINE
8
BLACK
6
CONTINUOUS
10
181.857
20
-157.267
11
182.077
21
-157.487
0
LINE
8
BLACK
6
CONTINUOUS
10
182.077
20
-157.487
11
182.25
21
-157.746
0
LINE
8
BLACK
6
CONTINUOUS
10
182.25
20
-157.746
11
182.37
21
-158.034
0
LINE
8
BLACK
6
CONTINUOUS
10
182.37
20
-158.034
11
182.43
21
-158.34
0
LINE
8
BLACK
6
CONTINUOUS
10
182.43
20
-158.34
11
182.43
21
-158.652
0
LINE
8
BLACK
6
CONTINUOUS
10
182.43
20
-158.652
11
182.37
21
-158.958
0
LINE
8
BLACK
6
CONTINUOUS
10
182.37
20
-158.958
11
182.25
21
-159.246
0
LINE
8
BLACK
6
CONTINUOUS
10
182.25
20
-159.246
11
182.077
21
-159.505
0
LINE
8
BLACK
6
CONTINUOUS
10
182.077
20
-159.505
11
181.857
21
-159.725
0
LINE
8
BLACK
6
CONTINUOUS
10
181.857
20
-159.725
11
181.598
21
-159.898
0
LINE
8
BLACK
6
CONTINUOUS
10
181.598
20
-159.898
11
181.31
21
-160.018
0
LINE
8
BLACK
6
CONTINUOUS
10
181.31
20
-160.018
11
181.004
21
-160.078
0
LINE
8
BLACK
6
CONTINUOUS
10
181.004
20
-160.078
11
180.692
21
-160.078
0
LINE
8
BLACK
6
CONTINUOUS
10
180.692
20
-160.078
11
180.386
21
-160.018
0
LINE
8
BLACK
6
CONTINUOUS
10
180.386
20
-160.018
11
180.098
21
-159.898
0
LINE
8
BLACK
6
CONTINUOUS
10
180.098
20
-159.898
11
179.839
21
-159.725
0
LINE
8
BLACK
6
CONTINUOUS
10
179.839
20
-159.725
11
179.619
21
-159.505
0
LINE
8
BLACK
6
CONTINUOUS
10
179.619
20
-159.505
11
179.446
21
-159.246
0
LINE
8
BLACK
6
CONTINUOUS
10
179.446
20
-159.246
11
179.326
21
-158.958
0
LINE
8
BLACK
6
CONTINUOUS
10
179.326
20
-158.958
11
179.266
21
-158.652
0
LINE
8
BLACK
6
CONTINUOUS
10
179.266
20
-158.652
11
179.266
21
-158.34
0
LINE
8
BLACK
6
CONTINUOUS
10
179.266
20
-158.34
11
179.326
21
-158.034
0
LINE
8
BLACK
6
CONTINUOUS
10
179.393
20
-158.937
11
179.507
21
-159.213
0
LINE
8
BLACK
6
CONTINUOUS
10
179.507
20
-159.213
11
179.673
21
-159.46
0
LINE
8
BLACK
6
CONTINUOUS
10
179.673
20
-159.46
11
179.884
21
-159.671
0
LINE
8
BLACK
6
CONTINUOUS
10
179.884
20
-159.671
11
180.131
21
-159.837
0
LINE
8
BLACK
6
CONTINUOUS
10
180.131
20
-159.837
11
180.407
21
-159.951
0
LINE
8
BLACK
6
CONTINUOUS
10
180.407
20
-159.951
11
180.699
21
-160.009
0
LINE
8
BLACK
6
CONTINUOUS
10
180.699
20
-160.009
11
180.997
21
-160.009
0
LINE
8
BLACK
6
CONTINUOUS
10
180.997
20
-160.009
11
181.289
21
-159.951
0
LINE
8
BLACK
6
CONTINUOUS
10
181.289
20
-159.951
11
181.565
21
-159.837
0
LINE
8
BLACK
6
CONTINUOUS
10
181.565
20
-159.837
11
181.812
21
-159.671
0
LINE
8
BLACK
6
CONTINUOUS
10
181.812
20
-159.671
11
182.023
21
-159.46
0
LINE
8
BLACK
6
CONTINUOUS
10
182.023
20
-159.46
11
182.189
21
-159.213
0
LINE
8
BLACK
6
CONTINUOUS
10
182.189
20
-159.213
11
182.303
21
-158.937
0
LINE
8
BLACK
6
CONTINUOUS
10
182.303
20
-158.937
11
182.361
21
-158.645
0
LINE
8
BLACK
6
CONTINUOUS
10
182.361
20
-158.645
11
182.361
21
-158.347
0
LINE
8
BLACK
6
CONTINUOUS
10
182.361
20
-158.347
11
182.303
21
-158.055
0
LINE
8
BLACK
6
CONTINUOUS
10
182.303
20
-158.055
11
182.189
21
-157.779
0
LINE
8
BLACK
6
CONTINUOUS
10
182.189
20
-157.779
11
182.023
21
-157.532
0
LINE
8
BLACK
6
CONTINUOUS
10
182.023
20
-157.532
11
181.812
21
-157.321
0
LINE
8
BLACK
6
CONTINUOUS
10
181.812
20
-157.321
11
181.565
21
-157.155
0
LINE
8
BLACK
6
CONTINUOUS
10
181.565
20
-157.155
11
181.289
21
-157.041
0
LINE
8
BLACK
6
CONTINUOUS
10
181.289
20
-157.041
11
180.997
21
-156.983
0
LINE
8
BLACK
6
CONTINUOUS
10
180.997
20
-156.983
11
180.699
21
-156.983
0
LINE
8
BLACK
6
CONTINUOUS
10
180.699
20
-156.983
11
180.407
21
-157.041
0
LINE
8
BLACK
6
CONTINUOUS
10
180.407
20
-157.041
11
180.131
21
-157.155
0
LINE
8
BLACK
6
CONTINUOUS
10
180.131
20
-157.155
11
179.884
21
-157.321
0
LINE
8
BLACK
6
CONTINUOUS
10
179.884
20
-157.321
11
179.673
21
-157.532
0
LINE
8
BLACK
6
CONTINUOUS
10
179.673
20
-157.532
11
179.507
21
-157.779
0
LINE
8
BLACK
6
CONTINUOUS
10
179.507
20
-157.779
11
179.393
21
-158.055
0
LINE
8
BLACK
6
CONTINUOUS
10
179.393
20
-158.055
11
179.335
21
-158.347
0
LINE
8
BLACK
6
CONTINUOUS
10
179.335
20
-158.347
11
179.335
21
-158.645
0
LINE
8
BLACK
6
CONTINUOUS
10
179.335
20
-158.645
11
179.393
21
-158.937
0
LINE
8
BLACK
6
CONTINUOUS
10
220.22
20
-78.5324
11
220.34
21
-78.2445
0
LINE
8
BLACK
6
CONTINUOUS
10
220.34
20
-78.2445
11
220.513
21
-77.9853
0
LINE
8
BLACK
6
CONTINUOUS
10
220.513
20
-77.9853
11
220.733
21
-77.7649
0
LINE
8
BLACK
6
CONTINUOUS
10
220.733
20
-77.7649
11
220.992
21
-77.5917
0
LINE
8
BLACK
6
CONTINUOUS
10
220.992
20
-77.5917
11
221.28
21
-77.4724
0
LINE
8
BLACK
6
CONTINUOUS
10
221.28
20
-77.4724
11
221.586
21
-77.4116
0
LINE
8
BLACK
6
CONTINUOUS
10
221.586
20
-77.4116
11
221.898
21
-77.4116
0
LINE
8
BLACK
6
CONTINUOUS
10
221.898
20
-77.4116
11
222.204
21
-77.4724
0
LINE
8
BLACK
6
CONTINUOUS
10
222.204
20
-77.4724
11
222.492
21
-77.5917
0
LINE
8
BLACK
6
CONTINUOUS
10
222.492
20
-77.5917
11
222.751
21
-77.7649
0
LINE
8
BLACK
6
CONTINUOUS
10
222.751
20
-77.7649
11
222.971
21
-77.9853
0
LINE
8
BLACK
6
CONTINUOUS
10
222.971
20
-77.9853
11
223.144
21
-78.2445
0
LINE
8
BLACK
6
CONTINUOUS
10
223.144
20
-78.2445
11
223.264
21
-78.5324
0
LINE
8
BLACK
6
CONTINUOUS
10
223.264
20
-78.5324
11
223.324
21
-78.8382
0
LINE
8
BLACK
6
CONTINUOUS
10
223.324
20
-78.8382
11
223.324
21
-79.1498
0
LINE
8
BLACK
6
CONTINUOUS
10
223.324
20
-79.1498
11
223.264
21
-79.4556
0
LINE
8
BLACK
6
CONTINUOUS
10
223.264
20
-79.4556
11
223.144
21
-79.7435
0
LINE
8
BLACK
6
CONTINUOUS
10
223.144
20
-79.7435
11
222.971
21
-80.0027
0
LINE
8
BLACK
6
CONTINUOUS
10
222.971
20
-80.0027
11
222.751
21
-80.2231
0
LINE
8
BLACK
6
CONTINUOUS
10
222.751
20
-80.2231
11
222.492
21
-80.3963
0
LINE
8
BLACK
6
CONTINUOUS
10
222.492
20
-80.3963
11
222.204
21
-80.5156
0
LINE
8
BLACK
6
CONTINUOUS
10
222.204
20
-80.5156
11
221.898
21
-80.5764
0
LINE
8
BLACK
6
CONTINUOUS
10
221.898
20
-80.5764
11
221.586
21
-80.5764
0
LINE
8
BLACK
6
CONTINUOUS
10
221.586
20
-80.5764
11
221.28
21
-80.5156
0
LINE
8
BLACK
6
CONTINUOUS
10
221.28
20
-80.5156
11
220.992
21
-80.3963
0
LINE
8
BLACK
6
CONTINUOUS
10
220.992
20
-80.3963
11
220.733
21
-80.2231
0
LINE
8
BLACK
6
CONTINUOUS
10
220.733
20
-80.2231
11
220.513
21
-80.0027
0
LINE
8
BLACK
6
CONTINUOUS
10
220.513
20
-80.0027
11
220.34
21
-79.7435
0
LINE
8
BLACK
6
CONTINUOUS
10
220.34
20
-79.7435
11
220.22
21
-79.4556
0
LINE
8
BLACK
6
CONTINUOUS
10
220.22
20
-79.4556
11
220.16
21
-79.1498
0
LINE
8
BLACK
6
CONTINUOUS
10
220.16
20
-79.1498
11
220.16
21
-78.8382
0
LINE
8
BLACK
6
CONTINUOUS
10
220.16
20
-78.8382
11
220.22
21
-78.5324
0
LINE
8
BLACK
6
CONTINUOUS
10
220.287
20
-79.4352
11
220.401
21
-79.7105
0
LINE
8
BLACK
6
CONTINUOUS
10
220.401
20
-79.7105
11
220.567
21
-79.9583
0
LINE
8
BLACK
6
CONTINUOUS
10
220.567
20
-79.9583
11
220.778
21
-80.169
0
LINE
8
BLACK
6
CONTINUOUS
10
220.778
20
-80.169
11
221.025
21
-80.3345
0
LINE
8
BLACK
6
CONTINUOUS
10
221.025
20
-80.3345
11
221.301
21
-80.4486
0
LINE
8
BLACK
6
CONTINUOUS
10
221.301
20
-80.4486
11
221.593
21
-80.5067
0
LINE
8
BLACK
6
CONTINUOUS
10
221.593
20
-80.5067
11
221.891
21
-80.5067
0
LINE
8
BLACK
6
CONTINUOUS
10
221.891
20
-80.5067
11
222.183
21
-80.4486
0
LINE
8
BLACK
6
CONTINUOUS
10
222.183
20
-80.4486
11
222.459
21
-80.3345
0
LINE
8
BLACK
6
CONTINUOUS
10
222.459
20
-80.3345
11
222.706
21
-80.169
0
LINE
8
BLACK
6
CONTINUOUS
10
222.706
20
-80.169
11
222.917
21
-79.9583
0
LINE
8
BLACK
6
CONTINUOUS
10
222.917
20
-79.9583
11
223.083
21
-79.7105
0
LINE
8
BLACK
6
CONTINUOUS
10
223.083
20
-79.7105
11
223.197
21
-79.4352
0
LINE
8
BLACK
6
CONTINUOUS
10
223.197
20
-79.4352
11
223.255
21
-79.143
0
LINE
8
BLACK
6
CONTINUOUS
10
223.255
20
-79.143
11
223.255
21
-78.845
0
LINE
8
BLACK
6
CONTINUOUS
10
223.255
20
-78.845
11
223.197
21
-78.5528
0
LINE
8
BLACK
6
CONTINUOUS
10
223.197
20
-78.5528
11
223.083
21
-78.2775
0
LINE
8
BLACK
6
CONTINUOUS
10
223.083
20
-78.2775
11
222.917
21
-78.0297
0
LINE
8
BLACK
6
CONTINUOUS
10
222.917
20
-78.0297
11
222.706
21
-77.819
0
LINE
8
BLACK
6
CONTINUOUS
10
222.706
20
-77.819
11
222.459
21
-77.6535
0
LINE
8
BLACK
6
CONTINUOUS
10
222.459
20
-77.6535
11
222.183
21
-77.5394
0
LINE
8
BLACK
6
CONTINUOUS
10
222.183
20
-77.5394
11
221.891
21
-77.4813
0
LINE
8
BLACK
6
CONTINUOUS
10
221.891
20
-77.4813
11
221.593
21
-77.4813
0
LINE
8
BLACK
6
CONTINUOUS
10
221.593
20
-77.4813
11
221.301
21
-77.5394
0
LINE
8
BLACK
6
CONTINUOUS
10
221.301
20
-77.5394
11
221.025
21
-77.6535
0
LINE
8
BLACK
6
CONTINUOUS
10
221.025
20
-77.6535
11
220.778
21
-77.819
0
LINE
8
BLACK
6
CONTINUOUS
10
220.778
20
-77.819
11
220.567
21
-78.0297
0
LINE
8
BLACK
6
CONTINUOUS
10
220.567
20
-78.0297
11
220.401
21
-78.2775
0
LINE
8
BLACK
6
CONTINUOUS
10
220.401
20
-78.2775
11
220.287
21
-78.5528
0
LINE
8
BLACK
6
CONTINUOUS
10
220.287
20
-78.5528
11
220.229
21
-78.845
0
LINE
8
BLACK
6
CONTINUOUS
10
220.229
20
-78.845
11
220.229
21
-79.143
0
LINE
8
BLACK
6
CONTINUOUS
10
220.229
20
-79.143
11
220.287
21
-79.4352
0
LINE
8
BLACK
6
CONTINUOUS
10
179.326
20
-78.5324
11
179.446
21
-78.2445
0
LINE
8
BLACK
6
CONTINUOUS
10
179.446
20
-78.2445
11
179.619
21
-77.9853
0
LINE
8
BLACK
6
CONTINUOUS
10
179.619
20
-77.9853
11
179.839
21
-77.7649
0
LINE
8
BLACK
6
CONTINUOUS
10
179.839
20
-77.7649
11
180.098
21
-77.5917
0
LINE
8
BLACK
6
CONTINUOUS
10
180.098
20
-77.5917
11
180.386
21
-77.4724
0
LINE
8
BLACK
6
CONTINUOUS
10
180.386
20
-77.4724
11
180.692
21
-77.4116
0
LINE
8
BLACK
6
CONTINUOUS
10
180.692
20
-77.4116
11
181.004
21
-77.4116
0
LINE
8
BLACK
6
CONTINUOUS
10
181.004
20
-77.4116
11
181.31
21
-77.4724
0
LINE
8
BLACK
6
CONTINUOUS
10
181.31
20
-77.4724
11
181.598
21
-77.5917
0
LINE
8
BLACK
6
CONTINUOUS
10
181.598
20
-77.5917
11
181.857
21
-77.7649
0
LINE
8
BLACK
6
CONTINUOUS
10
181.857
20
-77.7649
11
182.077
21
-77.9853
0
LINE
8
BLACK
6
CONTINUOUS
10
182.077
20
-77.9853
11
182.25
21
-78.2445
0
LINE
8
BLACK
6
CONTINUOUS
10
182.25
20
-78.2445
11
182.37
21
-78.5324
0
LINE
8
BLACK
6
CONTINUOUS
10
182.37
20
-78.5324
11
182.43
21
-78.8382
0
LINE
8
BLACK
6
CONTINUOUS
10
182.43
20
-78.8382
11
182.43
21
-79.1498
0
LINE
8
BLACK
6
CONTINUOUS
10
182.43
20
-79.1498
11
182.37
21
-79.4556
0
LINE
8
BLACK
6
CONTINUOUS
10
182.37
20
-79.4556
11
182.25
21
-79.7435
0
LINE
8
BLACK
6
CONTINUOUS
10
182.25
20
-79.7435
11
182.077
21
-80.0027
0
LINE
8
BLACK
6
CONTINUOUS
10
182.077
20
-80.0027
11
181.857
21
-80.2231
0
LINE
8
BLACK
6
CONTINUOUS
10
181.857
20
-80.2231
11
181.598
21
-80.3963
0
LINE
8
BLACK
6
CONTINUOUS
10
181.598
20
-80.3963
11
181.31
21
-80.5156
0
LINE
8
BLACK
6
CONTINUOUS
10
181.31
20
-80.5156
11
181.004
21
-80.5764
0
LINE
8
BLACK
6
CONTINUOUS
10
181.004
20
-80.5764
11
180.692
21
-80.5764
0
LINE
8
BLACK
6
CONTINUOUS
10
180.692
20
-80.5764
11
180.386
21
-80.5156
0
LINE
8
BLACK
6
CONTINUOUS
10
180.386
20
-80.5156
11
180.098
21
-80.3963
0
LINE
8
BLACK
6
CONTINUOUS
10
180.098
20
-80.3963
11
179.839
21
-80.2231
0
LINE
8
BLACK
6
CONTINUOUS
10
179.839
20
-80.2231
11
179.619
21
-80.0027
0
LINE
8
BLACK
6
CONTINUOUS
10
179.619
20
-80.0027
11
179.446
21
-79.7435
0
LINE
8
BLACK
6
CONTINUOUS
10
179.446
20
-79.7435
11
179.326
21
-79.4556
0
LINE
8
BLACK
6
CONTINUOUS
10
179.326
20
-79.4556
11
179.266
21
-79.1498
0
LINE
8
BLACK
6
CONTINUOUS
10
179.266
20
-79.1498
11
179.266
21
-78.8382
0
LINE
8
BLACK
6
CONTINUOUS
10
179.266
20
-78.8382
11
179.326
21
-78.5324
0
LINE
8
BLACK
6
CONTINUOUS
10
179.393
20
-79.4352
11
179.507
21
-79.7105
0
LINE
8
BLACK
6
CONTINUOUS
10
179.507
20
-79.7105
11
179.673
21
-79.9583
0
LINE
8
BLACK
6
CONTINUOUS
10
179.673
20
-79.9583
11
179.884
21
-80.169
0
LINE
8
BLACK
6
CONTINUOUS
10
179.884
20
-80.169
11
180.131
21
-80.3345
0
LINE
8
BLACK
6
CONTINUOUS
10
180.131
20
-80.3345
11
180.407
21
-80.4486
0
LINE
8
BLACK
6
CONTINUOUS
10
180.407
20
-80.4486
11
180.699
21
-80.5067
0
LINE
8
BLACK
6
CONTINUOUS
10
180.699
20
-80.5067
11
180.997
21
-80.5067
0
LINE
8
BLACK
6
CONTINUOUS
10
180.997
20
-80.5067
11
181.289
21
-80.4486
0
LINE
8
BLACK
6
CONTINUOUS
10
181.289
20
-80.4486
11
181.565
21
-80.3345
0
LINE
8
BLACK
6
CONTINUOUS
10
181.565
20
-80.3345
11
181.812
21
-80.169
0
LINE
8
BLACK
6
CONTINUOUS
10
181.812
20
-80.169
11
182.023
21
-79.9583
0
LINE
8
BLACK
6
CONTINUOUS
10
182.023
20
-79.9583
11
182.189
21
-79.7105
0
LINE
8
BLACK
6
CONTINUOUS
10
182.189
20
-79.7105
11
182.303
21
-79.4352
0
LINE
8
BLACK
6
CONTINUOUS
10
182.303
20
-79.4352
11
182.361
21
-79.143
0
LINE
8
BLACK
6
CONTINUOUS
10
182.361
20
-79.143
11
182.361
21
-78.845
0
LINE
8
BLACK
6
CONTINUOUS
10
182.361
20
-78.845
11
182.303
21
-78.5528
0
LINE
8
BLACK
6
CONTINUOUS
10
182.303
20
-78.5528
11
182.189
21
-78.2775
0
LINE
8
BLACK
6
CONTINUOUS
10
182.189
20
-78.2775
11
182.023
21
-78.0297
0
LINE
8
BLACK
6
CONTINUOUS
10
182.023
20
-78.0297
11
181.812
21
-77.819
0
LINE
8
BLACK
6
CONTINUOUS
10
181.812
20
-77.819
11
181.565
21
-77.6535
0
LINE
8
BLACK
6
CONTINUOUS
10
181.565
20
-77.6535
11
181.289
21
-77.5394
0
LINE
8
BLACK
6
CONTINUOUS
10
181.289
20
-77.5394
11
180.997
21
-77.4813
0
LINE
8
BLACK
6
CONTINUOUS
10
180.997
20
-77.4813
11
180.699
21
-77.4813
0
LINE
8
BLACK
6
CONTINUOUS
10
180.699
20
-77.4813
11
180.407
21
-77.5394
0
LINE
8
BLACK
6
CONTINUOUS
10
180.407
20
-77.5394
11
180.131
21
-77.6535
0
LINE
8
BLACK
6
CONTINUOUS
10
180.131
20
-77.6535
11
179.884
21
-77.819
0
LINE
8
BLACK
6
CONTINUOUS
10
179.884
20
-77.819
11
179.673
21
-78.0297
0
LINE
8
BLACK
6
CONTINUOUS
10
179.673
20
-78.0297
11
179.507
21
-78.2775
0
LINE
8
BLACK
6
CONTINUOUS
10
179.507
20
-78.2775
11
179.393
21
-78.5528
0
LINE
8
BLACK
6
CONTINUOUS
10
179.393
20
-78.5528
11
179.335
21
-78.845
0
LINE
8
BLACK
6
CONTINUOUS
10
179.335
20
-78.845
11
179.335
21
-79.143
0
LINE
8
BLACK
6
CONTINUOUS
10
179.335
20
-79.143
11
179.393
21
-79.4352
  0
ENDSEC
  0
EOF
