  0
SECTION
  2
HEADER
  9
$ACADVER
  1
AC1006
  9
$EXTMIN
 10
0.000000
 20
0.000000
 30
0.000000
  9
$EXTMAX
 10
899.000000
 20
700.000000
 30
0.000000
  0
ENDSEC
  0
SECTION
  2
ENTITIES
  0
POLYLINE
  8
0
 66
1
 70
1
  0
VERTEX
  8
0
 10
517.500000
 20
521.842847
 42
0.003421
  0
VERTEX
  8
0
 10
494.642149
 20
517.099954
 42
0.008094
  0
VERTEX
  8
0
 10
477.702002
 20
513.176004
 42
0.006191
  0
VERTEX
  8
0
 10
465.068326
 20
509.866636
 42
0.116767
  0
VERTEX
  8
0
 10
461.500000
 20
507.912358
 42
0.093392
  0
VERTEX
  8
0
 10
459.830204
 20
505.720470
 42
0.035444
  0
VERTEX
  8
0
 10
458.348135
 20
502.154683
 42
0.023303
  0
VERTEX
  8
0
 10
456.833363
 20
496.815762
 42
0.007046
  0
VERTEX
  8
0
 10
455.028954
 20
488.583230
 42
0.017432
  0
VERTEX
  8
0
 10
453.009208
 20
476.588071
 42
0.015791
  0
VERTEX
  8
0
 10
451.749391
 20
464.079188
 42
0.013654
  0
VERTEX
  8
0
 10
451.161489
 20
449.917681
 42
0.007832
  0
VERTEX
  8
0
 10
451.186782
 20
432.822702
 42
0.000000
  0
VERTEX
  8
0
 10
451.586653
 20
409.500000
 42
0.000000
  0
VERTEX
  8
0
 10
456.958034
 20
382.489631
 42
0.000000
  0
VERTEX
  8
0
 10
462.329415
 20
355.479262
 42
0.000000
  0
VERTEX
  8
0
 10
457.664707
 20
347.510540
 42
0.010848
  0
VERTEX
  8
0
 10
455.293023
 20
343.249584
 42
0.032740
  0
VERTEX
  8
0
 10
453.936106
 20
340.217183
 42
0.045241
  0
VERTEX
  8
0
 10
453.235857
 20
337.635591
 42
0.043641
  0
VERTEX
  8
0
 10
453.000000
 20
334.938508
 42
0.000000
  0
VERTEX
  8
0
 10
453.000000
 20
330.335199
 42
0.000000
  0
VERTEX
  8
0
 10
448.250000
 20
329.417600
 42
0.024958
  0
VERTEX
  8
0
 10
445.302953
 20
328.694114
 42
0.119852
  0
VERTEX
  8
0
 10
443.821501
 20
327.827684
 42
0.094394
  0
VERTEX
  8
0
 10
442.729297
 20
326.280825
 42
0.012408
  0
VERTEX
  8
0
 10
441.150000
 20
322.563567
 42
0.016783
  0
VERTEX
  8
0
 10
440.250411
 20
320.047462
 42
0.015273
  0
VERTEX
  8
0
 10
439.490312
 20
317.396782
 42
0.015493
  0
VERTEX
  8
0
 10
438.956832
 20
314.985485
 42
0.046722
  0
VERTEX
  8
0
 10
438.800000
 20
313.310780
 42
-0.035909
  0
VERTEX
  8
0
 10
438.609452
 20
310.661008
 42
-0.220857
  0
VERTEX
  8
0
 10
437.880730
 20
309.544630
 42
-0.397938
  0
VERTEX
  8
0
 10
436.946498
 20
309.733720
 42
-0.062661
  0
VERTEX
  8
0
 10
435.980307
 20
311.551797
 42
0.067608
  0
VERTEX
  8
0
 10
435.107008
 20
313.156721
 42
0.225463
  0
VERTEX
  8
0
 10
434.078321
 20
313.710636
 42
0.099969
  0
VERTEX
  8
0
 10
432.420796
 20
313.462094
 42
0.008729
  0
VERTEX
  8
0
 10
428.426356
 20
311.933116
 42
-0.071956
  0
VERTEX
  8
0
 10
425.643096
 20
311.253883
 42
-0.073866
  0
VERTEX
  8
0
 10
422.807311
 20
311.400806
 42
-0.085860
  0
VERTEX
  8
0
 10
420.509681
 20
312.293370
 42
-0.170558
  0
VERTEX
  8
0
 10
419.280122
 20
313.779799
 42
0.063097
  0
VERTEX
  8
0
 10
418.544400
 20
315.195537
 42
0.090826
  0
VERTEX
  8
0
 10
417.547160
 20
316.190695
 42
0.089495
  0
VERTEX
  8
0
 10
416.250125
 20
316.777218
 42
0.059569
  0
VERTEX
  8
0
 10
414.627555
 20
316.984687
 42
0.028029
  0
VERTEX
  8
0
 10
413.688433
 20
316.939701
 42
0.255654
  0
VERTEX
  8
0
 10
413.363183
 20
316.715032
 42
0.265799
  0
VERTEX
  8
0
 10
413.384071
 20
316.327651
 42
0.029827
  0
VERTEX
  8
0
 10
413.926114
 20
315.589028
 42
-0.043282
  0
VERTEX
  8
0
 10
414.391203
 20
314.918193
 42
-0.115588
  0
VERTEX
  8
0
 10
414.556329
 20
314.363940
 42
-0.160707
  0
VERTEX
  8
0
 10
414.435208
 20
313.907337
 42
-0.110253
  0
VERTEX
  8
0
 10
414.048558
 20
313.530011
 42
-0.132695
  0
VERTEX
  8
0
 10
412.972404
 20
313.209194
 42
-0.182368
  0
VERTEX
  8
0
 10
412.027699
 20
313.537954
 42
-0.181523
  0
VERTEX
  8
0
 10
411.532727
 20
314.410526
 42
-0.131568
  0
VERTEX
  8
0
 10
411.650663
 20
315.532025
 42
0.128746
  0
VERTEX
  8
0
 10
411.726264
 20
316.214504
 42
0.226613
  0
VERTEX
  8
0
 10
411.416426
 20
316.675798
 42
0.110580
  0
VERTEX
  8
0
 10
410.625832
 20
316.931991
 42
0.023281
  0
VERTEX
  8
0
 10
409.166006
 20
317.000000
 42
0.026304
  0
VERTEX
  8
0
 10
407.959898
 20
316.936506
 42
0.032954
  0
VERTEX
  8
0
 10
406.856298
 20
316.745843
 42
0.034821
  0
VERTEX
  8
0
 10
405.983375
 20
316.469515
 42
0.161645
  0
VERTEX
  8
0
 10
405.583301
 20
316.134783
 42
-0.201636
  0
VERTEX
  8
0
 10
404.308573
 20
315.226118
 42
-0.026950
  0
VERTEX
  8
0
 10
400.983601
 20
314.664048
 42
-0.029485
  0
VERTEX
  8
0
 10
396.988262
 20
314.445598
 42
-0.028396
  0
VERTEX
  8
0
 10
392.943873
 20
314.693053
 42
-0.014819
  0
VERTEX
  8
0
 10
390.378035
 20
315.074342
 42
-0.071706
  0
VERTEX
  8
0
 10
388.983163
 20
315.537093
 42
-0.143054
  0
VERTEX
  8
0
 10
388.265572
 20
316.202487
 42
-0.135557
  0
VERTEX
  8
0
 10
388.000000
 20
317.164042
 42
0.193316
  0
VERTEX
  8
0
 10
387.435238
 20
318.570176
 42
0.080463
  0
VERTEX
  8
0
 10
385.773145
 20
319.824225
 42
0.065902
  0
VERTEX
  8
0
 10
383.398325
 20
320.702373
 42
0.055700
  0
VERTEX
  8
0
 10
380.734900
 20
321.000000
 42
0.020821
  0
VERTEX
  8
0
 10
379.675085
 20
320.955848
 42
0.209399
  0
VERTEX
  8
0
 10
379.294771
 20
320.750000
 42
0.331674
  0
VERTEX
  8
0
 10
379.287422
 20
320.405741
 42
0.041581
  0
VERTEX
  8
0
 10
379.800000
 20
319.800000
 42
-0.076036
  0
VERTEX
  8
0
 10
380.724299
 20
318.541886
 42
-0.145116
  0
VERTEX
  8
0
 10
380.963590
 20
317.321461
 42
-0.277720
  0
VERTEX
  8
0
 10
380.468201
 20
316.651063
 42
-0.192068
  0
VERTEX
  8
0
 10
379.500000
 20
316.638374
 42
-0.074185
  0
VERTEX
  8
0
 10
378.926569
 20
316.962529
 42
-0.064359
  0
VERTEX
  8
0
 10
378.440625
 20
317.454091
 42
-0.066860
  0
VERTEX
  8
0
 10
378.111903
 20
318.031441
 42
-0.096313
  0
VERTEX
  8
0
 10
378.000000
 20
318.606989
 42
0.143406
  0
VERTEX
  8
0
 10
377.722684
 20
319.553997
 42
0.265076
  0
VERTEX
  8
0
 10
377.034105
 20
319.914954
 42
0.093580
  0
VERTEX
  8
0
 10
375.704203
 20
319.614731
 42
0.013525
  0
VERTEX
  8
0
 10
373.172085
 20
318.435961
 42
-0.088478
  0
VERTEX
  8
0
 10
369.680121
 20
317.408183
 42
-0.061432
  0
VERTEX
  8
0
 10
365.557874
 20
317.461622
 42
-0.066486
  0
VERTEX
  8
0
 10
362.029955
 20
318.432114
 42
-0.218962
  0
VERTEX
  8
0
 10
360.444977
 20
320.173363
 42
0.118898
  0
VERTEX
  8
0
 10
359.349118
 20
321.984996
 42
0.134521
  0
VERTEX
  8
0
 10
357.592552
 20
322.996951
 42
0.160774
  0
VERTEX
  8
0
 10
355.794772
 20
322.882461
 42
0.180767
  0
VERTEX
  8
0
 10
354.520842
 20
321.719041
 42
-0.056190
  0
VERTEX
  8
0
 10
353.488342
 20
320.161179
 42
-0.224277
  0
VERTEX
  8
0
 10
352.475441
 20
319.694206
 42
-0.284380
  0
VERTEX
  8
0
 10
351.650417
 20
320.215368
 42
-0.078206
  0
VERTEX
  8
0
 10
351.180449
 20
321.750000
 42
0.138029
  0
VERTEX
  8
0
 10
350.525121
 20
323.235767
 42
0.192055
  0
VERTEX
  8
0
 10
349.263826
 20
323.927403
 42
0.130178
  0
VERTEX
  8
0
 10
347.452177
 20
323.677990
 42
0.053877
  0
VERTEX
  8
0
 10
345.268354
 20
322.475409
 42
-0.077408
  0
VERTEX
  8
0
 10
343.231049
 20
321.474883
 42
-0.045761
  0
VERTEX
  8
0
 10
340.575955
 20
320.907475
 42
-0.030043
  0
VERTEX
  8
0
 10
336.853366
 20
320.687537
 42
-0.009344
  0
VERTEX
  8
0
 10
331.250000
 20
320.798161
 42
-0.011375
  0
VERTEX
  8
0
 10
328.324630
 20
320.977344
 42
-0.078459
  0
VERTEX
  8
0
 10
326.931480
 20
321.319038
 42
-0.177810
  0
VERTEX
  8
0
 10
326.250818
 20
321.951943
 42
-0.117993
  0
VERTEX
  8
0
 10
326.000000
 20
323.000000
 42
0.012046
  0
VERTEX
  8
0
 10
325.981524
 20
323.766784
 42
0.019858
  0
VERTEX
  8
0
 10
325.924623
 20
324.412500
 42
0.014750
  0
VERTEX
  8
0
 10
325.844883
 20
324.915882
 42
0.360557
  0
VERTEX
  8
0
 10
325.743398
 20
325.000000
 42
-0.064009
  0
VERTEX
  8
0
 10
325.556291
 20
325.024052
 42
-0.001153
  0
VERTEX
  8
0
 10
324.580656
 20
325.281495
 42
-0.002852
  0
VERTEX
  8
0
 10
323.444509
 20
325.591051
 42
-0.001898
  0
VERTEX
  8
0
 10
322.145461
 20
325.958282
 42
0.009294
  0
VERTEX
  8
0
 10
320.006044
 20
326.529045
 42
0.188543
  0
VERTEX
  8
0
 10
319.352531
 20
326.443217
 42
0.314801
  0
VERTEX
  8
0
 10
319.117020
 20
325.964915
 42
0.023376
  0
VERTEX
  8
0
 10
319.421114
 20
324.458282
 42
-0.030544
  0
VERTEX
  8
0
 10
319.641017
 20
323.282139
 42
-0.119428
  0
VERTEX
  8
0
 10
319.557564
 20
322.553033
 42
-0.198130
  0
VERTEX
  8
0
 10
319.185468
 20
322.147875
 42
-0.109615
  0
VERTEX
  8
0
 10
318.519052
 20
322.000000
 42
-0.099868
  0
VERTEX
  8
0
 10
317.939342
 20
322.116955
 42
-0.098136
  0
VERTEX
  8
0
 10
317.446222
 20
322.449844
 42
-0.097747
  0
VERTEX
  8
0
 10
317.115922
 20
322.946931
 42
-0.098215
  0
VERTEX
  8
0
 10
317.000000
 20
323.531385
 42
0.170308
  0
VERTEX
  8
0
 10
316.528703
 20
324.874911
 42
0.182030
  0
VERTEX
  8
0
 10
315.334393
 20
325.584209
 42
0.113513
  0
VERTEX
  8
0
 10
313.458724
 20
325.489870
 42
0.050277
  0
VERTEX
  8
0
 10
311.139917
 20
324.572354
 42
-0.078755
  0
VERTEX
  8
0
 10
307.289427
 20
323.296068
 42
-0.047590
  0
VERTEX
  8
0
 10
302.484343
 20
322.969922
 42
-0.048036
  0
VERTEX
  8
0
 10
298.040363
 20
323.520816
 42
-0.155203
  0
VERTEX
  8
0
 10
295.500000
 20
325.000000
 42
0.096950
  0
VERTEX
  8
0
 10
293.675921
 20
326.363607
 42
0.093236
  0
VERTEX
  8
0
 10
291.446908
 20
326.963037
 42
0.134629
  0
VERTEX
  8
0
 10
289.699520
 20
326.625391
 42
0.285464
  0
VERTEX
  8
0
 10
289.000000
 20
325.500000
 42
-0.140575
  0
VERTEX
  8
0
 10
288.822179
 20
324.880020
 42
-0.118484
  0
VERTEX
  8
0
 10
288.333333
 20
324.400000
 42
-0.088208
  0
VERTEX
  8
0
 10
287.543379
 20
324.098630
 42
-0.047160
  0
VERTEX
  8
0
 10
286.500000
 20
324.000000
 42
-0.047160
  0
VERTEX
  8
0
 10
285.456621
 20
324.098630
 42
-0.088208
  0
VERTEX
  8
0
 10
284.666667
 20
324.400000
 42
-0.118484
  0
VERTEX
  8
0
 10
284.177821
 20
324.880020
 42
-0.140575
  0
VERTEX
  8
0
 10
284.000000
 20
325.500000
 42
0.311070
  0
VERTEX
  8
0
 10
283.309120
 20
326.503036
 42
0.067365
  0
VERTEX
  8
0
 10
281.146299
 20
327.009322
 42
0.063332
  0
VERTEX
  8
0
 10
278.804733
 20
326.936533
 42
0.218284
  0
VERTEX
  8
0
 10
277.571257
 20
326.115296
 42
-0.186952
  0
VERTEX
  8
0
 10
276.489241
 20
325.296858
 42
-0.023855
  0
VERTEX
  8
0
 10
273.596025
 20
324.618675
 42
-0.022929
  0
VERTEX
  8
0
 10
269.680378
 20
324.080062
 42
-0.011884
  0
VERTEX
  8
0
 10
264.753204
 20
323.749057
 42
-0.012900
  0
VERTEX
  8
0
 10
261.350051
 20
323.689452
 42
-0.075830
  0
VERTEX
  8
0
 10
259.591624
 20
323.972606
 42
-0.112257
  0
VERTEX
  8
0
 10
258.325928
 20
324.722051
 42
-0.044023
  0
VERTEX
  8
0
 10
256.973266
 20
326.250000
 42
0.042325
  0
VERTEX
  8
0
 10
255.806457
 20
327.577048
 42
0.076170
  0
VERTEX
  8
0
 10
254.623681
 20
328.408858
 42
0.075162
  0
VERTEX
  8
0
 10
253.234977
 20
328.854970
 42
0.040219
  0
VERTEX
  8
0
 10
251.434879
 20
329.000000
 42
0.011298
  0
VERTEX
  8
0
 10
249.312934
 20
328.952047
 42
0.169730
  0
VERTEX
  8
0
 10
248.636799
 20
328.680858
 42
0.310521
  0
VERTEX
  8
0
 10
248.497578
 20
328.137742
 42
0.035057
  0
VERTEX
  8
0
 10
249.045837
 20
326.914354
 42
-0.027603
  0
VERTEX
  8
0
 10
249.435684
 20
326.078046
 42
-0.038419
  0
VERTEX
  8
0
 10
249.683024
 20
325.290235
 42
-0.042946
  0
VERTEX
  8
0
 10
249.774689
 20
324.647099
 42
-0.213438
  0
VERTEX
  8
0
 10
249.647551
 20
324.314218
 42
-0.254626
  0
VERTEX
  8
0
 10
248.898305
 20
324.093289
 42
-0.129825
  0
VERTEX
  8
0
 10
247.997399
 20
324.551055
 42
-0.099102
  0
VERTEX
  8
0
 10
247.260417
 20
325.530817
 42
-0.112307
  0
VERTEX
  8
0
 10
247.000000
 20
326.675594
 42
0.228451
  0
VERTEX
  8
0
 10
246.596332
 20
327.512975
 42
0.199267
  0
VERTEX
  8
0
 10
245.653552
 20
327.783082
 42
0.039155
  0
VERTEX
  8
0
 10
243.486408
 20
327.360395
 42
0.002283
  0
VERTEX
  8
0
 10
237.000000
 20
325.527036
 42
-0.040219
  0
VERTEX
  8
0
 10
232.313664
 20
324.578865
 42
-0.057575
  0
VERTEX
  8
0
 10
228.077704
 20
324.561014
 42
-0.071932
  0
VERTEX
  8
0
 10
224.789895
 20
325.416044
 42
-0.172006
  0
VERTEX
  8
0
 10
222.951780
 20
327.090100
 42
0.160068
  0
VERTEX
  8
0
 10
221.349930
 20
328.618559
 42
0.123665
  0
VERTEX
  8
0
 10
218.969469
 20
329.097219
 42
0.138527
  0
VERTEX
  8
0
 10
216.836324
 20
328.383326
 42
0.210913
  0
VERTEX
  8
0
 10
215.819551
 20
326.750000
 42
-0.063957
  0
VERTEX
  8
0
 10
215.529188
 20
325.696001
 42
-0.125837
  0
VERTEX
  8
0
 10
215.008716
 20
325.006955
 42
-0.117390
  0
VERTEX
  8
0
 10
214.193689
 20
324.623446
 42
-0.051570
  0
VERTEX
  8
0
 10
213.000000
 20
324.500000
 42
-0.052743
  0
VERTEX
  8
0
 10
211.727250
 20
324.634632
 42
-0.143478
  0
VERTEX
  8
0
 10
210.937862
 20
325.061569
 42
-0.129859
  0
VERTEX
  8
0
 10
210.457326
 20
325.878477
 42
-0.039818
  0
VERTEX
  8
0
 10
210.179242
 20
327.294930
 42
0.027744
  0
VERTEX
  8
0
 10
209.924195
 20
328.783068
 42
0.161260
  0
VERTEX
  8
0
 10
209.517091
 20
329.454618
 42
0.204873
  0
VERTEX
  8
0
 10
208.849617
 20
329.662482
 42
0.048331
  0
VERTEX
  8
0
 10
207.679242
 20
329.426649
 42
0.030853
  0
VERTEX
  8
0
 10
206.729745
 20
329.072384
 42
0.019890
  0
VERTEX
  8
0
 10
205.676397
 20
328.552377
 42
0.019994
  0
VERTEX
  8
0
 10
204.683045
 20
327.959186
 42
0.035173
  0
VERTEX
  8
0
 10
203.921259
 20
327.381719
 42
-0.049700
  0
VERTEX
  8
0
 10
203.176243
 20
326.850265
 42
-0.034133
  0
VERTEX
  8
0
 10
202.241904
 20
326.396538
 42
-0.034461
  0
VERTEX
  8
0
 10
201.271913
 20
326.080533
 42
-0.057436
  0
VERTEX
  8
0
 10
200.421259
 20
325.968197
 42
0.059585
  0
VERTEX
  8
0
 10
199.541566
 20
325.848191
 42
0.030168
  0
VERTEX
  8
0
 10
198.476870
 20
325.501348
 42
0.029465
  0
VERTEX
  8
0
 10
197.406597
 20
325.005105
 42
0.038649
  0
VERTEX
  8
0
 10
196.500000
 20
324.423585
 42
-0.064640
  0
VERTEX
  8
0
 10
195.383887
 20
323.786782
 42
-0.058004
  0
VERTEX
  8
0
 10
194.100552
 20
323.426759
 42
-0.050224
  0
VERTEX
  8
0
 10
192.605495
 20
323.341051
 42
-0.031007
  0
VERTEX
  8
0
 10
190.852625
 20
323.525948
 42
0.025864
  0
VERTEX
  8
0
 10
189.329182
 20
323.702494
 42
0.042262
  0
VERTEX
  8
0
 10
188.030044
 20
323.675444
 42
0.052065
  0
VERTEX
  8
0
 10
187.048880
 20
323.467006
 42
0.177804
  0
VERTEX
  8
0
 10
186.543608
 20
323.070559
 42
-0.154044
  0
VERTEX
  8
0
 10
186.064100
 20
322.657126
 42
-0.037667
  0
VERTEX
  8
0
 10
185.065535
 20
322.314477
 42
-0.035054
  0
VERTEX
  8
0
 10
183.806778
 20
322.078686
 42
-0.028782
  0
VERTEX
  8
0
 10
182.440983
 20
322.000000
 42
-0.022873
  0
VERTEX
  8
0
 10
180.613012
 20
322.083666
 42
-0.116309
  0
VERTEX
  8
0
 10
179.653555
 20
322.404874
 42
-0.181517
  0
VERTEX
  8
0
 10
179.163874
 20
323.039690
 42
-0.074617
  0
VERTEX
  8
0
 10
179.000000
 20
324.131669
 42
0.071145
  0
VERTEX
  8
0
 10
178.835669
 20
325.280721
 42
0.234358
  0
VERTEX
  8
0
 10
178.331510
 20
325.827892
 42
0.113038
  0
VERTEX
  8
0
 10
177.295597
 20
325.974677
 42
0.012243
  0
VERTEX
  8
0
 10
174.878916
 20
325.710585
 42
0.025943
  0
VERTEX
  8
0
 10
171.351410
 20
325.049693
 42
0.149123
  0
VERTEX
  8
0
 10
169.733159
 20
324.094680
 42
0.416580
  0
VERTEX
  8
0
 10
169.783410
 20
323.045293
 42
0.092813
  0
VERTEX
  8
0
 10
171.485177
 20
322.005636
 42
-0.010269
  0
VERTEX
  8
0
 10
173.244897
 20
321.294896
 42
-0.207137
  0
VERTEX
  8
0
 10
173.632742
 20
320.885116
 42
-0.306810
  0
VERTEX
  8
0
 10
173.516121
 20
320.420608
 42
-0.020380
  0
VERTEX
  8
0
 10
172.398017
 20
319.500278
 42
-0.061489
  0
VERTEX
  8
0
 10
170.585616
 20
318.450255
 42
-0.100899
  0
VERTEX
  8
0
 10
168.854386
 20
318.097225
 42
-0.116841
  0
VERTEX
  8
0
 10
167.302111
 20
318.464913
 42
-0.103583
  0
VERTEX
  8
0
 10
166.000000
 20
319.500000
 42
0.030696
  0
VERTEX
  8
0
 10
165.460793
 20
320.074065
 42
0.033599
  0
VERTEX
  8
0
 10
164.870559
 20
320.559375
 42
0.035754
  0
VERTEX
  8
0
 10
164.314846
 20
320.899703
 42
0.120078
  0
VERTEX
  8
0
 10
163.903235
 20
321.000000
 42
0.257058
  0
VERTEX
  8
0
 10
162.920099
 20
320.458791
 42
0.024433
  0
VERTEX
  8
0
 10
161.518634
 20
317.985323
 42
0.030370
  0
VERTEX
  8
0
 10
160.352050
 20
315.270997
 42
0.086514
  0
VERTEX
  8
0
 10
160.000000
 20
313.251594
 42
-0.087125
  0
VERTEX
  8
0
 10
159.801446
 20
312.120766
 42
-0.008422
  0
VERTEX
  8
0
 10
158.804508
 20
309.507638
 42
-0.010498
  0
VERTEX
  8
0
 10
157.488821
 20
306.415641
 42
-0.008111
  0
VERTEX
  8
0
 10
155.930240
 20
303.100891
 42
0.008862
  0
VERTEX
  8
0
 10
154.367500
 20
299.764281
 42
0.011010
  0
VERTEX
  8
0
 10
153.038473
 20
296.605657
 42
0.009423
  0
VERTEX
  8
0
 10
152.037125
 20
293.924310
 42
0.077870
  0
VERTEX
  8
0
 10
151.800911
 20
292.648957
 42
-0.066448
  0
VERTEX
  8
0
 10
151.386471
 20
290.087593
 42
-0.039054
  0
VERTEX
  8
0
 10
150.259071
 20
287.191073
 42
-0.037926
  0
VERTEX
  8
0
 10
148.814487
 20
284.697441
 42
-0.152032
  0
VERTEX
  8
0
 10
147.446765
 20
283.617945
 42
0.137854
  0
VERTEX
  8
0
 10
146.735839
 20
283.088201
 42
0.101273
  0
VERTEX
  8
0
 10
146.302075
 20
282.200623
 42
0.061764
  0
VERTEX
  8
0
 10
146.123543
 20
280.828015
 42
0.019539
  0
VERTEX
  8
0
 10
146.192055
 20
278.759149
 42
0.017937
  0
VERTEX
  8
0
 10
146.430010
 20
276.565405
 42
0.083065
  0
VERTEX
  8
0
 10
146.817375
 20
275.354748
 42
0.155276
  0
VERTEX
  8
0
 10
147.442956
 20
274.726802
 42
0.119658
  0
VERTEX
  8
0
 10
148.387420
 20
274.494665
 42
-0.193604
  0
VERTEX
  8
0
 10
149.806780
 20
273.919009
 42
-0.082118
  0
VERTEX
  8
0
 10
151.053634
 20
272.241375
 42
-0.077627
  0
VERTEX
  8
0
 10
151.751342
 20
270.138344
 42
-0.133739
  0
VERTEX
  8
0
 10
151.567491
 20
268.315284
 42
-0.091355
  0
VERTEX
  8
0
 10
151.260156
 20
267.812442
 42
-0.066708
  0
VERTEX
  8
0
 10
150.761187
 20
267.386365
 42
-0.065225
  0
VERTEX
  8
0
 10
150.154532
 20
267.098330
 42
-0.078413
  0
VERTEX
  8
0
 10
149.531385
 20
267.000000
 42
0.172685
  0
VERTEX
  8
0
 10
148.432859
 20
266.608941
 42
0.308843
  0
VERTEX
  8
0
 10
148.172348
 20
265.728572
 42
0.095269
  0
VERTEX
  8
0
 10
149.038099
 20
264.148948
 42
0.017656
  0
VERTEX
  8
0
 10
151.250000
 20
261.660532
 42
-0.013047
  0
VERTEX
  8
0
 10
155.114668
 20
257.392608
 42
-0.018389
  0
VERTEX
  8
0
 10
158.313684
 20
253.379432
 42
-0.020941
  0
VERTEX
  8
0
 10
160.787523
 20
249.719130
 42
-0.039191
  0
VERTEX
  8
0
 10
162.418450
 20
246.540934
 42
0.019041
  0
VERTEX
  8
0
 10
163.432394
 20
244.352390
 42
0.123282
  0
VERTEX
  8
0
 10
164.225489
 20
243.443118
 42
0.162676
  0
VERTEX
  8
0
 10
165.245170
 20
243.143621
 42
0.040159
  0
VERTEX
  8
0
 10
167.001109
 20
243.350222
 42
-0.021888
  0
VERTEX
  8
0
 10
168.791294
 20
243.627425
 42
-0.194393
  0
VERTEX
  8
0
 10
169.544477
 20
243.415614
 42
-0.206116
  0
VERTEX
  8
0
 10
169.914471
 20
242.748085
 42
-0.024900
  0
VERTEX
  8
0
 10
170.000000
 20
241.031704
 42
0.053729
  0
VERTEX
  8
0
 10
170.145133
 20
239.684988
 42
0.061642
  0
VERTEX
  8
0
 10
170.573751
 20
238.464910
 42
0.063262
  0
VERTEX
  8
0
 10
171.274778
 20
237.411811
 42
0.061605
  0
VERTEX
  8
0
 10
172.222506
 20
236.556704
 42
0.021675
  0
VERTEX
  8
0
 10
174.037701
 20
235.399183
 42
0.120191
  0
VERTEX
  8
0
 10
175.139988
 20
235.076133
 42
0.288099
  0
VERTEX
  8
0
 10
175.758325
 20
235.426200
 42
0.124294
  0
VERTEX
  8
0
 10
176.000000
 20
236.383369
 42
-0.116045
  0
VERTEX
  8
0
 10
176.132528
 20
236.946697
 42
-0.075481
  0
VERTEX
  8
0
 10
176.518753
 20
237.496030
 42
-0.069243
  0
VERTEX
  8
0
 10
177.090943
 20
237.948478
 42
-0.068863
  0
VERTEX
  8
0
 10
177.765968
 20
238.228548
 42
-0.085952
  0
VERTEX
  8
0
 10
179.775499
 20
238.398347
 42
-0.093089
  0
VERTEX
  8
0
 10
181.665249
 20
237.869583
 42
-0.109955
  0
VERTEX
  8
0
 10
183.005927
 20
236.790955
 42
-0.169524
  0
VERTEX
  8
0
 10
183.495147
 20
235.400921
 42
0.215044
  0
VERTEX
  8
0
 10
184.152131
 20
233.953873
 42
0.152862
  0
VERTEX
  8
0
 10
185.803506
 20
233.221175
 42
0.092646
  0
VERTEX
  8
0
 10
188.339283
 20
233.400363
 42
0.046973
  0
VERTEX
  8
0
 10
191.356775
 20
234.499060
 42
-0.049604
  0
VERTEX
  8
0
 10
194.322899
 20
235.561449
 42
-0.045638
  0
VERTEX
  8
0
 10
197.524850
 20
236.057168
 42
-0.035036
  0
VERTEX
  8
0
 10
201.453037
 20
236.027085
 42
-0.014419
  0
VERTEX
  8
0
 10
206.750000
 20
235.460619
 42
-0.013699
  0
VERTEX
  8
0
 10
209.489109
 20
235.010799
 42
-0.068002
  0
VERTEX
  8
0
 10
210.964096
 20
234.512228
 42
-0.138688
  0
VERTEX
  8
0
 10
211.720052
 20
233.825604
 42
-0.140362
  0
VERTEX
  8
0
 10
212.000000
 20
232.848020
 42
0.109058
  0
VERTEX
  8
0
 10
212.182899
 20
232.019450
 42
0.073725
  0
VERTEX
  8
0
 10
212.716444
 20
231.208093
 42
0.065310
  0
VERTEX
  8
0
 10
213.538047
 20
230.499782
 42
0.054485
  0
VERTEX
  8
0
 10
214.565100
 20
229.975249
 42
0.017322
  0
VERTEX
  8
0
 10
216.936611
 20
229.166440
 42
0.121889
  0
VERTEX
  8
0
 10
218.145522
 20
229.104176
 42
0.258749
  0
VERTEX
  8
0
 10
218.777443
 20
229.633757
 42
0.091980
  0
VERTEX
  8
0
 10
219.000000
 20
230.833333
 42
-0.049613
  0
VERTEX
  8
0
 10
219.153379
 20
232.375290
 42
-0.178017
  0
VERTEX
  8
0
 10
219.662750
 20
233.204919
 42
-0.181197
  0
VERTEX
  8
0
 10
220.581367
 20
233.498488
 42
-0.051694
  0
VERTEX
  8
0
 10
222.085947
 20
233.267273
 42
-0.061478
  0
VERTEX
  8
0
 10
222.951588
 20
232.922950
 42
-0.137777
  0
VERTEX
  8
0
 10
223.452648
 20
232.431995
 42
-0.141722
  0
VERTEX
  8
0
 10
223.616724
 20
231.762061
 42
-0.066585
  0
VERTEX
  8
0
 10
223.460655
 20
230.876035
 42
0.052878
  0
VERTEX
  8
0
 10
223.275422
 20
229.970046
 42
0.187536
  0
VERTEX
  8
0
 10
223.433454
 20
229.409408
 42
0.183207
  0
VERTEX
  8
0
 10
223.932241
 20
229.094685
 42
0.050165
  0
VERTEX
  8
0
 10
224.873595
 20
229.000000
 42
0.049761
  0
VERTEX
  8
0
 10
225.692353
 20
229.081686
 42
0.047539
  0
VERTEX
  8
0
 10
226.492079
 20
229.323722
 42
0.051231
  0
VERTEX
  8
0
 10
227.157180
 20
229.679560
 42
0.106294
  0
VERTEX
  8
0
 10
227.563060
 20
230.102034
 42
-0.138814
  0
VERTEX
  8
0
 10
229.289407
 20
231.682646
 42
-0.049387
  0
VERTEX
  8
0
 10
232.441130
 20
232.893494
 42
-0.047001
  0
VERTEX
  8
0
 10
236.143017
 20
233.544861
 42
-0.057335
  0
VERTEX
  8
0
 10
239.656306
 20
233.424290
 42
-0.023031
  0
VERTEX
  8
0
 10
241.923415
 20
232.976739
 42
-0.068535
  0
VERTEX
  8
0
 10
243.391778
 20
232.393974
 42
-0.095328
  0
VERTEX
  8
0
 10
244.367192
 20
231.564436
 42
-0.078319
  0
VERTEX
  8
0
 10
245.047276
 20
230.375655
 42
0.032410
  0
VERTEX
  8
0
 10
245.462290
 20
229.466225
 42
0.041955
  0
VERTEX
  8
0
 10
245.962172
 20
228.697849
 42
0.047592
  0
VERTEX
  8
0
 10
246.469420
 20
228.159594
 42
0.181952
  0
VERTEX
  8
0
 10
246.893462
 20
228.000000
 42
-0.043277
  0
VERTEX
  8
0
 10
247.362690
 20
227.959310
 42
-0.015548
  0
VERTEX
  8
0
 10
248.019997
 20
227.823264
 42
-0.015289
  0
VERTEX
  8
0
 10
248.734868
 20
227.628674
 42
-0.017519
  0
VERTEX
  8
0
 10
249.404314
 20
227.398345
 42
0.120632
  0
VERTEX
  8
0
 10
250.159766
 20
227.302418
 42
0.138364
  0
VERTEX
  8
0
 10
250.831145
 20
227.577438
 42
0.097313
  0
VERTEX
  8
0
 10
251.426722
 20
228.266136
 42
0.038940
  0
VERTEX
  8
0
 10
251.961351
 20
229.398345
 42
-0.040175
  0
VERTEX
  8
0
 10
252.433931
 20
230.392791
 42
-0.048809
  0
VERTEX
  8
0
 10
253.034394
 20
231.231266
 42
-0.056308
  0
VERTEX
  8
0
 10
253.666011
 20
231.807158
 42
-0.161071
  0
VERTEX
  8
0
 10
254.225249
 20
231.984687
 42
-0.082732
  0
VERTEX
  8
0
 10
255.766768
 20
231.708793
 42
-0.115649
  0
VERTEX
  8
0
 10
256.939141
 20
230.953257
 42
-0.139187
  0
VERTEX
  8
0
 10
257.518101
 20
229.871625
 42
-0.146349
  0
VERTEX
  8
0
 10
257.426881
 20
228.670050
 42
0.314829
  0
VERTEX
  8
0
 10
257.715376
 20
227.509289
 42
0.178474
  0
VERTEX
  8
0
 10
259.130435
 20
226.970260
 42
0.090265
  0
VERTEX
  8
0
 10
261.481260
 20
227.372142
 42
0.065507
  0
VERTEX
  8
0
 10
263.841104
 20
228.601258
 42
-0.099672
  0
VERTEX
  8
0
 10
266.354213
 20
229.700490
 42
-0.030623
  0
VERTEX
  8
0
 10
270.466015
 20
230.332076
 42
-0.028520
  0
VERTEX
  8
0
 10
274.540003
 20
230.471304
 42
-0.151594
  0
VERTEX
  8
0
 10
276.628363
 20
229.770518
 42
0.129808
  0
VERTEX
  8
0
 10
277.254122
 20
229.530336
 42
0.042941
  0
VERTEX
  8
0
 10
278.246033
 20
229.508031
 42
0.039377
  0
VERTEX
  8
0
 10
279.398338
 20
229.672836
 42
0.035652
  0
VERTEX
  8
0
 10
280.550812
 20
230.019319
 42
-0.044266
  0
VERTEX
  8
0
 10
282.902526
 20
230.682461
 42
-0.138796
  0
VERTEX
  8
0
 10
284.522282
 20
230.537172
 42
-0.236576
  0
VERTEX
  8
0
 10
285.323831
 20
229.660910
 42
-0.133806
  0
VERTEX
  8
0
 10
285.338934
 20
228.188085
 42
0.095292
  0
VERTEX
  8
0
 10
285.273686
 20
227.197431
 42
0.150908
  0
VERTEX
  8
0
 10
285.620780
 20
226.428051
 42
0.100238
  0
VERTEX
  8
0
 10
286.475655
 20
225.781357
 42
0.028106
  0
VERTEX
  8
0
 10
288.031426
 20
225.138889
 42
0.027158
  0
VERTEX
  8
0
 10
290.604638
 20
224.395812
 42
0.192004
  0
VERTEX
  8
0
 10
291.866056
 20
224.589770
 42
0.263547
  0
VERTEX
  8
0
 10
292.412077
 20
225.535801
 42
0.049283
  0
VERTEX
  8
0
 10
292.224365
 20
227.606641
 42
-0.022682
  0
VERTEX
  8
0
 10
292.040546
 20
228.878560
 42
-0.120831
  0
VERTEX
  8
0
 10
292.139399
 20
229.568434
 42
-0.263513
  0
VERTEX
  8
0
 10
292.495015
 20
229.851719
 42
-0.119531
  0
VERTEX
  8
0
 10
293.108475
 20
229.802181
 42
-0.111674
  0
VERTEX
  8
0
 10
293.664754
 20
229.468022
 42
-0.057745
  0
VERTEX
  8
0
 10
294.185107
 20
228.840199
 42
-0.053146
  0
VERTEX
  8
0
 10
294.593956
 20
228.036354
 42
-0.054611
  0
VERTEX
  8
0
 10
294.819551
 20
227.171672
 42
0.061338
  0
VERTEX
  8
0
 10
295.258087
 20
225.578569
 42
0.325306
  0
VERTEX
  8
0
 10
295.984281
 20
225.132697
 42
0.166649
  0
VERTEX
  8
0
 10
297.076447
 20
225.605624
 42
0.019428
  0
VERTEX
  8
0
 10
299.000000
 20
227.500000
 42
-0.045615
  0
VERTEX
  8
0
 10
300.355266
 20
228.701771
 42
-0.067509
  0
VERTEX
  8
0
 10
301.747607
 20
229.461438
 42
-0.061006
  0
VERTEX
  8
0
 10
303.395709
 20
229.869628
 42
-0.030241
  0
VERTEX
  8
0
 10
305.549314
 20
230.000000
 42
-0.020837
  0
VERTEX
  8
0
 10
309.963274
 20
229.815973
 42
-0.051453
  0
VERTEX
  8
0
 10
313.144138
 20
229.216916
 42
-0.075614
  0
VERTEX
  8
0
 10
315.304985
 20
228.199877
 42
-0.139638
  0
VERTEX
  8
0
 10
316.549421
 20
226.729809
 42
0.065526
  0
VERTEX
  8
0
 10
317.527031
 20
225.156023
 42
0.128595
  0
VERTEX
  8
0
 10
318.711665
 20
224.295377
 42
0.284634
  0
VERTEX
  8
0
 10
319.590503
 20
224.457198
 42
0.211602
  0
VERTEX
  8
0
 10
320.000000
 20
225.381483
 42
-0.177182
  0
VERTEX
  8
0
 10
320.479287
 20
226.691546
 42
-0.082785
  0
VERTEX
  8
0
 10
321.876136
 20
227.878045
 42
-0.070068
  0
VERTEX
  8
0
 10
323.859781
 20
228.714496
 42
-0.064876
  0
VERTEX
  8
0
 10
326.050890
 20
229.000000
 42
-0.044529
  0
VERTEX
  8
0
 10
327.121740
 20
228.904443
 42
-0.181894
  0
VERTEX
  8
0
 10
327.672963
 20
228.575630
 42
-0.186971
  0
VERTEX
  8
0
 10
327.862026
 20
227.971758
 42
-0.047416
  0
VERTEX
  8
0
 10
327.694254
 20
226.938828
 42
0.137124
  0
VERTEX
  8
0
 10
327.722705
 20
225.242406
 42
0.284762
  0
VERTEX
  8
0
 10
328.674380
 20
224.396474
 42
0.153716
  0
VERTEX
  8
0
 10
330.489152
 20
224.639720
 42
0.049628
  0
VERTEX
  8
0
 10
332.846734
 20
226.044806
 42
-0.048801
  0
VERTEX
  8
0
 10
334.667928
 20
227.134290
 42
-0.052180
  0
VERTEX
  8
0
 10
336.625964
 20
227.821027
 42
-0.039310
  0
VERTEX
  8
0
 10
339.111785
 20
228.208118
 42
-0.014421
  0
VERTEX
  8
0
 10
342.665342
 20
228.375468
 42
-0.006804
  0
VERTEX
  8
0
 10
346.801709
 20
228.394541
 42
-0.068592
  0
VERTEX
  8
0
 10
348.503455
 20
228.144364
 42
-0.180593
  0
VERTEX
  8
0
 10
349.362881
 20
227.504121
 42
-0.108392
  0
VERTEX
  8
0
 10
349.813355
 20
226.297279
 42
0.124726
  0
VERTEX
  8
0
 10
350.450400
 20
224.745205
 42
0.121074
  0
VERTEX
  8
0
 10
351.755553
 20
223.663243
 42
0.111456
  0
VERTEX
  8
0
 10
353.508351
 20
223.254317
 42
0.093676
  0
VERTEX
  8
0
 10
355.388924
 20
223.595750
 42
0.082803
  0
VERTEX
  8
0
 10
356.067283
 20
223.994705
 42
0.118450
  0
VERTEX
  8
0
 10
356.481413
 20
224.553107
 42
0.111131
  0
VERTEX
  8
0
 10
356.611992
 20
225.266758
 42
0.066836
  0
VERTEX
  8
0
 10
356.462413
 20
226.118425
 42
-0.049133
  0
VERTEX
  8
0
 10
356.282017
 20
226.968352
 42
-0.147821
  0
VERTEX
  8
0
 10
356.388500
 20
227.545139
 42
-0.188126
  0
VERTEX
  8
0
 10
356.771259
 20
227.882756
 42
-0.087953
  0
VERTEX
  8
0
 10
357.432612
 20
228.000000
 42
-0.094638
  0
VERTEX
  8
0
 10
358.030893
 20
227.885736
 42
-0.096802
  0
VERTEX
  8
0
 10
358.539580
 20
227.559375
 42
-0.098910
  0
VERTEX
  8
0
 10
358.880096
 20
227.072362
 42
-0.103620
  0
VERTEX
  8
0
 10
359.000000
 20
226.500000
 42
0.227335
  0
VERTEX
  8
0
 10
359.489055
 20
225.479965
 42
0.167299
  0
VERTEX
  8
0
 10
360.686020
 20
225.049642
 42
0.109802
  0
VERTEX
  8
0
 10
362.338158
 20
225.393381
 42
0.078085
  0
VERTEX
  8
0
 10
363.925989
 20
226.433021
 42
-0.086392
  0
VERTEX
  8
0
 10
364.873967
 20
227.031600
 42
-0.022167
  0
VERTEX
  8
0
 10
366.585113
 20
227.649486
 42
-0.021901
  0
VERTEX
  8
0
 10
368.630549
 20
228.190119
 42
-0.020684
  0
VERTEX
  8
0
 10
370.754730
 20
228.561852
 42
-0.009306
  0
VERTEX
  8
0
 10
373.635023
 20
228.889511
 42
-0.066143
  0
VERTEX
  8
0
 10
375.036313
 20
228.837031
 42
-0.181740
  0
VERTEX
  8
0
 10
375.726973
 20
228.433211
 42
-0.172212
  0
VERTEX
  8
0
 10
376.000000
 20
227.664014
 42
0.173232
  0
VERTEX
  8
0
 10
376.471552
 20
226.343812
 42
0.082851
  0
VERTEX
  8
0
 10
377.844558
 20
225.141161
 42
0.070920
  0
VERTEX
  8
0
 10
379.788187
 20
224.290786
 42
0.067809
  0
VERTEX
  8
0
 10
381.922469
 20
224.000000
 42
0.062277
  0
VERTEX
  8
0
 10
382.888977
 20
224.120851
 42
0.161973
  0
VERTEX
  8
0
 10
383.471955
 20
224.494474
 42
0.148108
  0
VERTEX
  8
0
 10
383.745803
 20
225.169075
 42
0.049332
  0
VERTEX
  8
0
 10
383.738210
 20
226.246765
 42
-0.057593
  0
VERTEX
  8
0
 10
383.748394
 20
227.326713
 42
-0.135765
  0
VERTEX
  8
0
 10
384.055295
 20
228.064155
 42
-0.135102
  0
VERTEX
  8
0
 10
384.698784
 20
228.541234
 42
-0.056787
  0
VERTEX
  8
0
 10
385.750000
 20
228.816316
 42
-0.046409
  0
VERTEX
  8
0
 10
386.848614
 20
228.871003
 42
-0.155519
  0
VERTEX
  8
0
 10
387.517194
 20
228.625753
 42
-0.170725
  0
VERTEX
  8
0
 10
387.883822
 20
228.056848
 42
-0.058634
  0
VERTEX
  8
0
 10
388.000000
 20
227.069551
 42
0.203989
  0
VERTEX
  8
0
 10
388.639243
 20
225.567891
 42
0.208592
  0
VERTEX
  8
0
 10
390.156608
 20
225.006088
 42
0.131175
  0
VERTEX
  8
0
 10
392.221539
 20
225.684767
 42
0.081649
  0
VERTEX
  8
0
 10
394.112937
 20
227.416447
 42
-0.044419
  0
VERTEX
  8
0
 10
395.265695
 20
228.640783
 42
-0.099569
  0
VERTEX
  8
0
 10
396.363807
 20
229.281588
 42
-0.086748
  0
VERTEX
  8
0
 10
397.721490
 20
229.496085
 42
-0.028115
  0
VERTEX
  8
0
 10
399.756857
 20
229.348084
 42
0.010446
  0
VERTEX
  8
0
 10
401.426633
 20
229.167192
 42
0.006864
  0
VERTEX
  8
0
 10
403.355139
 20
229.025592
 42
0.006906
  0
VERTEX
  8
0
 10
405.236994
 20
228.939430
 42
0.013198
  0
VERTEX
  8
0
 10
406.750000
 20
228.931037
 42
-0.025643
  0
VERTEX
  8
0
 10
408.391965
 20
228.881061
 42
-0.107884
  0
VERTEX
  8
0
 10
409.329606
 20
228.594465
 42
-0.172614
  0
VERTEX
  8
0
 10
409.825214
 20
228.026373
 42
-0.094152
  0
VERTEX
  8
0
 10
410.000000
 20
227.106389
 42
0.076450
  0
VERTEX
  8
0
 10
410.118241
 20
226.337582
 42
0.064848
  0
VERTEX
  8
0
 10
410.464650
 20
225.591570
 42
0.066804
  0
VERTEX
  8
0
 10
410.977037
 20
224.980328
 42
0.093606
  0
VERTEX
  8
0
 10
411.581787
 20
224.606989
 42
0.027160
  0
VERTEX
  8
0
 10
413.180854
 20
224.091057
 42
0.108715
  0
VERTEX
  8
0
 10
414.202466
 20
224.048926
 42
0.324914
  0
VERTEX
  8
0
 10
414.573551
 20
224.433827
 42
0.174847
  0
VERTEX
  8
0
 10
414.430902
 20
225.111803
 42
-0.240566
  0
VERTEX
  8
0
 10
414.352768
 20
226.069397
 42
-0.133573
  0
VERTEX
  8
0
 10
415.085457
 20
227.020662
 42
-0.091535
  0
VERTEX
  8
0
 10
416.496238
 20
227.730810
 42
-0.068826
  0
VERTEX
  8
0
 10
418.218615
 20
227.984687
 42
-0.066811
  0
VERTEX
  8
0
 10
418.923061
 20
227.896517
 42
-0.165682
  0
VERTEX
  8
0
 10
419.350595
 20
227.612532
 42
-0.178285
  0
VERTEX
  8
0
 10
419.497409
 20
227.143301
 42
-0.079360
  0
VERTEX
  8
0
 10
419.361626
 20
226.500000
 42
0.307063
  0
VERTEX
  8
0
 10
419.620867
 20
225.390016
 42
0.220258
  0
VERTEX
  8
0
 10
420.871989
 20
224.986604
 42
0.113521
  0
VERTEX
  8
0
 10
422.742772
 20
225.664732
 42
0.127071
  0
VERTEX
  8
0
 10
424.038480
 20
227.071900
 42
-0.088220
  0
VERTEX
  8
0
 10
424.899513
 20
228.164581
 42
-0.129006
  0
VERTEX
  8
0
 10
425.985541
 20
228.717388
 42
-0.064169
  0
VERTEX
  8
0
 10
427.738239
 20
228.868630
 42
-0.009459
  0
VERTEX
  8
0
 10
431.297212
 20
228.651253
 42
-0.016703
  0
VERTEX
  8
0
 10
433.742841
 20
228.372913
 42
-0.026694
  0
VERTEX
  8
0
 10
435.803078
 20
227.955063
 42
-0.026288
  0
VERTEX
  8
0
 10
437.357183
 20
227.464015
 42
-0.226362
  0
VERTEX
  8
0
 10
437.848628
 20
226.954116
 42
0.040802
  0
VERTEX
  8
0
 10
439.312303
 20
223.523901
 42
0.019883
  0
VERTEX
  8
0
 10
441.698292
 20
219.401079
 42
0.018741
  0
VERTEX
  8
0
 10
444.283941
 20
215.636771
 42
0.072772
  0
VERTEX
  8
0
 10
446.277466
 20
213.640203
 42
0.063818
  0
VERTEX
  8
0
 10
448.171326
 20
212.572363
 42
0.048643
  0
VERTEX
  8
0
 10
450.455672
 20
211.893829
 42
0.030137
  0
VERTEX
  8
0
 10
453.714879
 20
211.463513
 42
0.007718
  0
VERTEX
  8
0
 10
459.027466
 20
211.167935
 42
-0.003930
  0
VERTEX
  8
0
 10
462.851318
 20
210.984236
 42
-0.006530
  0
VERTEX
  8
0
 10
466.070568
 20
210.762002
 42
-0.001709
  0
VERTEX
  8
0
 10
468.838491
 20
210.525040
 42
-0.388432
  0
VERTEX
  8
0
 10
469.000000
 20
210.348509
 42
-0.119863
  0
VERTEX
  8
0
 10
468.935922
 20
210.085054
 42
-0.007405
  0
VERTEX
  8
0
 10
468.552711
 20
209.370029
 42
-0.010643
  0
VERTEX
  8
0
 10
468.060605
 20
208.526433
 42
-0.007668
  0
VERTEX
  8
0
 10
467.477315
 20
207.605722
 42
0.093793
  0
VERTEX
  8
0
 10
466.579990
 20
205.441230
 42
0.163911
  0
VERTEX
  8
0
 10
466.808003
 20
203.533751
 42
0.090205
  0
VERTEX
  8
0
 10
468.355736
 20
201.383234
 42
0.016628
  0
VERTEX
  8
0
 10
471.998771
 20
198.098048
 42
0.000000
  0
VERTEX
  8
0
 10
476.858812
 20
194.000000
 42
0.000000
  0
VERTEX
  8
0
 10
488.806962
 20
194.000000
 42
0.004996
  0
VERTEX
  8
0
 10
495.139722
 20
194.063275
 42
0.024920
  0
VERTEX
  8
0
 10
498.683705
 20
194.311092
 42
0.045714
  0
VERTEX
  8
0
 10
500.856656
 20
194.776528
 42
0.144927
  0
VERTEX
  8
0
 10
502.079298
 20
195.595548
 42
-0.194863
  0
VERTEX
  8
0
 10
504.066953
 20
196.663844
 42
-0.068284
  0
VERTEX
  8
0
 10
507.370443
 20
196.571021
 42
-0.061479
  0
VERTEX
  8
0
 10
511.005997
 20
195.496996
 42
-0.072489
  0
VERTEX
  8
0
 10
514.053442
 20
193.608485
 42
0.060826
  0
VERTEX
  8
0
 10
515.930120
 20
192.384293
 42
0.054423
  0
VERTEX
  8
0
 10
518.117163
 20
191.591500
 42
0.033413
  0
VERTEX
  8
0
 10
521.246116
 20
191.047232
 42
0.008037
  0
VERTEX
  8
0
 10
526.492984
 20
190.577187
 42
-0.004956
  0
VERTEX
  8
0
 10
531.347192
 20
190.172454
 42
-0.001799
  0
VERTEX
  8
0
 10
538.225308
 20
189.505297
 42
-0.001783
  0
VERTEX
  8
0
 10
545.748183
 20
188.721163
 42
-0.002125
  0
VERTEX
  8
0
 10
552.837313
 20
187.926174
 42
0.006492
  0
VERTEX
  8
0
 10
560.480565
 20
187.136570
 42
0.003689
  0
VERTEX
  8
0
 10
569.745961
 20
186.369686
 42
0.003683
  0
VERTEX
  8
0
 10
579.091500
 20
185.734742
 42
0.006070
  0
VERTEX
  8
0
 10
587.000000
 20
185.352217
 42
0.010955
  0
VERTEX
  8
0
 10
600.410625
 20
185.160660
 42
0.027872
  0
VERTEX
  8
0
 10
610.120283
 20
185.776641
 42
0.038140
  0
VERTEX
  8
0
 10
617.580451
 20
187.252640
 42
0.056278
  0
VERTEX
  8
0
 10
623.763480
 20
189.751005
 42
-0.072179
  0
VERTEX
  8
0
 10
629.384321
 20
191.817679
 42
-0.027489
  0
VERTEX
  8
0
 10
637.654247
 20
193.095206
 42
-0.012081
  0
VERTEX
  8
0
 10
651.791161
 20
194.145284
 42
-0.001403
  0
VERTEX
  8
0
 10
683.500000
 20
195.642297
 42
0.001070
  0
VERTEX
  8
0
 10
706.096071
 20
196.693994
 42
0.011125
  0
VERTEX
  8
0
 10
715.373361
 20
197.352849
 42
0.026493
  0
VERTEX
  8
0
 10
720.536301
 20
198.112686
 42
0.103465
  0
VERTEX
  8
0
 10
723.484481
 20
199.377591
 42
-0.056805
  0
VERTEX
  8
0
 10
725.481877
 20
200.463594
 42
-0.053817
  0
VERTEX
  8
0
 10
727.708920
 20
201.096721
 42
-0.032843
  0
VERTEX
  8
0
 10
730.844465
 20
201.423332
 42
-0.007596
  0
VERTEX
  8
0
 10
736.153144
 20
201.545111
 42
0.009061
  0
VERTEX
  8
0
 10
740.436776
 20
201.655933
 42
0.019054
  0
VERTEX
  8
0
 10
743.753556
 20
201.928821
 42
0.021521
  0
VERTEX
  8
0
 10
746.200897
 20
202.331885
 42
0.122218
  0
VERTEX
  8
0
 10
747.380901
 20
202.901156
 42
0.111836
  0
VERTEX
  8
0
 10
749.019577
 20
205.033069
 42
0.020275
  0
VERTEX
  8
0
 10
750.938997
 20
209.675702
 42
0.022649
  0
VERTEX
  8
0
 10
752.604647
 20
214.944395
 42
0.032267
  0
VERTEX
  8
0
 10
753.562119
 20
219.756746
 42
0.022399
  0
VERTEX
  8
0
 10
753.785602
 20
222.316271
 42
0.044054
  0
VERTEX
  8
0
 10
753.692240
 20
224.355638
 42
0.049457
  0
VERTEX
  8
0
 10
753.258238
 20
226.187475
 42
0.037188
  0
VERTEX
  8
0
 10
752.440271
 20
228.091252
 42
-0.070437
  0
VERTEX
  8
0
 10
751.491481
 20
230.777664
 42
-0.030339
  0
VERTEX
  8
0
 10
750.966955
 20
234.548734
 42
-0.015708
  0
VERTEX
  8
0
 10
750.689801
 20
240.552066
 42
-0.002674
  0
VERTEX
  8
0
 10
750.582499
 20
252.000000
 42
0.002188
  0
VERTEX
  8
0
 10
750.472319
 20
265.116660
 42
0.022845
  0
VERTEX
  8
0
 10
750.157878
 20
270.489470
 42
0.050640
  0
VERTEX
  8
0
 10
749.404034
 20
274.109047
 42
0.035077
  0
VERTEX
  8
0
 10
747.865025
 20
278.000000
 42
0.023108
  0
VERTEX
  8
0
 10
746.494769
 20
280.550603
 42
0.010891
  0
VERTEX
  8
0
 10
744.504989
 20
283.717506
 42
0.010767
  0
VERTEX
  8
0
 10
742.273540
 20
286.949401
 42
0.014918
  0
VERTEX
  8
0
 10
740.126782
 20
289.740446
 42
-0.009758
  0
VERTEX
  8
0
 10
737.007228
 20
293.710794
 42
-0.064571
  0
VERTEX
  8
0
 10
735.761882
 20
295.898558
 42
-0.084820
  0
VERTEX
  8
0
 10
735.275716
 20
298.079910
 42
-0.023063
  0
VERTEX
  8
0
 10
735.261757
 20
301.625724
 42
0.015091
  0
VERTEX
  8
0
 10
735.303327
 20
305.089771
 42
0.086600
  0
VERTEX
  8
0
 10
734.956158
 20
306.885730
 42
0.101758
  0
VERTEX
  8
0
 10
734.042412
 20
308.322225
 42
0.024684
  0
VERTEX
  8
0
 10
731.977305
 20
310.254121
 42
0.034235
  0
VERTEX
  8
0
 10
730.208662
 20
311.555298
 42
0.015793
  0
VERTEX
  8
0
 10
727.748384
 20
313.010914
 42
0.015559
  0
VERTEX
  8
0
 10
725.054846
 20
314.384416
 42
0.020828
  0
VERTEX
  8
0
 10
722.527744
 20
315.449261
 42
-0.015904
  0
VERTEX
  8
0
 10
719.607050
 20
316.646236
 42
-0.048440
  0
VERTEX
  8
0
 10
717.745832
 20
317.705868
 42
-0.073783
  0
VERTEX
  8
0
 10
716.595438
 20
318.802901
 42
-0.101336
  0
VERTEX
  8
0
 10
715.962724
 20
320.080418
 42
-0.003037
  0
VERTEX
  8
0
 10
714.657313
 20
325.154704
 42
-0.048701
  0
VERTEX
  8
0
 10
714.395667
 20
326.904843
 42
-0.225883
  0
VERTEX
  8
0
 10
714.715856
 20
327.676678
 42
-0.185394
  0
VERTEX
  8
0
 10
715.557871
 20
328.000000
 42
0.115215
  0
VERTEX
  8
0
 10
716.362672
 20
328.187945
 42
0.028836
  0
VERTEX
  8
0
 10
717.543682
 20
328.858654
 42
0.027915
  0
VERTEX
  8
0
 10
718.840676
 20
329.804235
 42
0.024910
  0
VERTEX
  8
0
 10
720.076923
 20
330.923077
 42
0.033531
  0
VERTEX
  8
0
 10
721.491497
 20
332.541263
 42
0.061469
  0
VERTEX
  8
0
 10
722.373426
 20
334.051519
 42
0.063436
  0
VERTEX
  8
0
 10
722.845087
 20
335.697624
 42
0.038107
  0
VERTEX
  8
0
 10
723.000000
 20
337.727296
 42
0.092869
  0
VERTEX
  8
0
 10
722.269799
 20
341.624747
 42
0.042986
  0
VERTEX
  8
0
 10
719.990202
 20
346.268565
 42
0.021730
  0
VERTEX
  8
0
 10
715.458831
 20
353.099590
 42
0.003676
  0
VERTEX
  8
0
 10
706.151685
 20
365.691590
 42
0.003397
  0
VERTEX
  8
0
 10
699.265097
 20
374.738152
 42
0.034185
  0
VERTEX
  8
0
 10
696.119070
 20
378.283497
 42
0.070078
  0
VERTEX
  8
0
 10
693.367552
 20
380.318184
 42
0.037402
  0
VERTEX
  8
0
 10
689.500000
 20
382.054782
 42
-0.013988
  0
VERTEX
  8
0
 10
687.056275
 20
383.017375
 42
-0.014069
  0
VERTEX
  8
0
 10
684.675000
 20
384.113372
 42
-0.014011
  0
VERTEX
  8
0
 10
682.656217
 20
385.183713
 42
-0.053463
  0
VERTEX
  8
0
 10
681.500000
 20
386.013262
 42
0.032574
  0
VERTEX
  8
0
 10
680.064016
 20
387.137095
 42
0.001720
  0
VERTEX
  8
0
 10
675.240625
 20
390.405113
 42
0.002703
  0
VERTEX
  8
0
 10
669.466180
 20
394.243404
 42
0.001963
  0
VERTEX
  8
0
 10
663.000000
 20
398.455009
 42
-0.001849
  0
VERTEX
  8
0
 10
656.595276
 20
402.624495
 42
-0.002738
  0
VERTEX
  8
0
 10
651.014297
 20
406.331059
 42
-0.001226
  0
VERTEX
  8
0
 10
646.279165
 20
409.530251
 42
-0.053997
  0
VERTEX
  8
0
 10
645.367821
 20
410.304939
 42
-0.075675
  0
VERTEX
  8
0
 10
644.826869
 20
411.083353
 42
-0.012217
  0
VERTEX
  8
0
 10
644.052100
 20
412.764576
 42
-0.013250
  0
VERTEX
  8
0
 10
643.234340
 20
414.806655
 42
-0.011298
  0
VERTEX
  8
0
 10
642.478641
 20
417.000000
 42
0.051205
  0
VERTEX
  8
0
 10
635.684506
 20
432.566848
 42
0.052909
  0
VERTEX
  8
0
 10
625.929723
 20
446.243249
 42
0.054225
  0
VERTEX
  8
0
 10
613.774492
 20
457.279017
 42
0.059495
  0
VERTEX
  8
0
 10
599.886853
 20
465.046658
 42
0.043820
  0
VERTEX
  8
0
 10
588.056726
 20
468.752051
 42
0.036213
  0
VERTEX
  8
0
 10
574.976724
 20
470.642811
 42
0.035141
  0
VERTEX
  8
0
 10
561.337399
 20
470.655247
 42
0.035184
  0
VERTEX
  8
0
 10
547.836440
 20
468.757072
 42
-0.425661
  0
VERTEX
  8
0
 10
547.181593
 20
469.200137
 42
-0.008969
  0
VERTEX
  8
0
 10
546.521026
 20
473.479397
 42
-0.011308
  0
VERTEX
  8
0
 10
545.805192
 20
479.809556
 42
-0.002955
  0
VERTEX
  8
0
 10
544.946352
 20
490.000000
 42
0.002672
  0
VERTEX
  8
0
 10
543.152308
 20
511.431965
 42
0.050339
  0
VERTEX
  8
0
 10
541.882715
 20
518.053057
 42
0.197586
  0
VERTEX
  8
0
 10
539.579427
 20
520.900232
 42
0.127630
  0
VERTEX
  8
0
 10
535.410746
 20
521.949470
 42
-0.009644
  0
VERTEX
  8
0
 10
533.590442
 20
521.971266
 42
-0.005053
  0
VERTEX
  8
0
 10
531.326907
 20
522.064955
 42
-0.005024
  0
VERTEX
  8
0
 10
529.007593
 20
522.207821
 42
-0.007680
  0
VERTEX
  8
0
 10
527.000000
 20
522.382779
 42
0.025782
  0
VERTEX
  8
0
 10
524.916916
 20
522.488558
 42
0.013990
  0
VERTEX
  8
0
 10
522.353125
 20
522.414713
 42
0.013905
  0
VERTEX
  8
0
 10
519.742000
 20
522.193329
 42
0.021343
  0
SEQEND
  0
POLYLINE
  8
0
 66
1
 70
1
  0
VERTEX
  8
0
 10
525.000000
 20
511.440983
 42
-0.103216
  0
VERTEX
  8
0
 10
524.885271
 20
510.891133
 42
-0.098834
  0
VERTEX
  8
0
 10
524.559375
 20
510.423289
 42
-0.096907
  0
VERTEX
  8
0
 10
524.072549
 20
510.109789
 42
-0.095012
  0
VERTEX
  8
0
 10
523.500000
 20
510.000000
 42
-0.179946
  0
VERTEX
  8
0
 10
522.597640
 20
510.335619
 42
-0.152160
  0
VERTEX
  8
0
 10
522.056720
 20
511.204890
 42
-0.132661
  0
VERTEX
  8
0
 10
522.066992
 20
512.327196
 42
-0.128822
  0
VERTEX
  8
0
 10
522.639480
 20
513.306147
 42
-0.194761
  0
VERTEX
  8
0
 10
523.376680
 20
513.618432
 42
-0.172865
  0
VERTEX
  8
0
 10
524.169706
 20
513.350022
 42
-0.128462
  0
VERTEX
  8
0
 10
524.782775
 20
512.537796
 42
-0.098073
  0
SEQEND
  0
POLYLINE
  8
0
 66
1
 70
1
  0
VERTEX
  8
0
 10
466.000000
 20
500.559017
 42
-0.055887
  0
VERTEX
  8
0
 10
465.933596
 20
499.966781
 42
-0.049696
  0
VERTEX
  8
0
 10
465.737031
 20
499.378799
 42
-0.052635
  0
VERTEX
  8
0
 10
465.447691
 20
498.881687
 42
-0.096533
  0
VERTEX
  8
0
 10
465.104785
 20
498.564761
 42
-0.305994
  0
VERTEX
  8
0
 10
464.370931
 20
498.594365
 42
-0.122354
  0
VERTEX
  8
0
 10
463.696107
 20
499.406879
 42
-0.101767
  0
VERTEX
  8
0
 10
463.406646
 20
500.556057
 42
-0.210351
  0
VERTEX
  8
0
 10
463.735568
 20
501.402234
 42
-0.099868
  0
VERTEX
  8
0
 10
464.520615
 20
501.923695
 42
-0.188100
  0
VERTEX
  8
0
 10
465.270167
 20
501.935230
 42
-0.197274
  0
VERTEX
  8
0
 10
465.804984
 20
501.440964
 42
-0.109240
  0
SEQEND
  0
POLYLINE
  8
0
 66
1
 70
1
  0
VERTEX
  8
0
 10
525.297396
 20
490.223875
 42
-0.141316
  0
VERTEX
  8
0
 10
527.284564
 20
486.159950
 42
-0.045578
  0
VERTEX
  8
0
 10
527.845377
 20
479.412503
 42
-0.044289
  0
VERTEX
  8
0
 10
527.214986
 20
472.913099
 42
-0.227347
  0
VERTEX
  8
0
 10
525.132756
 20
470.071049
 42
-0.085401
  0
VERTEX
  8
0
 10
522.912321
 20
469.332734
 42
-0.000764
  0
VERTEX
  8
0
 10
505.437233
 20
466.707866
 42
-0.003022
  0
VERTEX
  8
0
 10
488.199731
 20
464.252011
 42
-0.005136
  0
VERTEX
  8
0
 10
473.750000
 20
462.433338
 42
0.000000
  0
VERTEX
  8
0
 10
468.000000
 20
461.769553
 42
0.000000
  0
VERTEX
  8
0
 10
468.000000
 20
471.784396
 42
0.000000
  0
VERTEX
  8
0
 10
468.000000
 20
481.799238
 42
0.000000
  0
VERTEX
  8
0
 10
475.250000
 20
483.371049
 42
-0.003194
  0
VERTEX
  8
0
 10
479.056294
 20
484.170837
 42
-0.000932
  0
VERTEX
  8
0
 10
484.923438
 20
485.353187
 42
-0.000936
  0
VERTEX
  8
0
 10
491.534012
 20
486.659665
 42
-0.001003
  0
VERTEX
  8
0
 10
498.000000
 20
487.911526
 42
0.000351
  0
VERTEX
  8
0
 10
504.083242
 20
489.081059
 42
0.000487
  0
VERTEX
  8
0
 10
509.534375
 20
490.138543
 42
0.000299
  0
VERTEX
  8
0
 10
514.121717
 20
491.035942
 42
0.006157
  0
VERTEX
  8
0
 10
515.500000
 20
491.324094
 42
-0.032341
  0
VERTEX
  8
0
 10
518.724163
 20
491.823760
 42
-0.050273
  0
VERTEX
  8
0
 10
521.535224
 20
491.791804
 42
-0.061676
  0
VERTEX
  8
0
 10
523.780943
 20
491.254066
 42
-0.119821
  0
SEQEND
  0
POLYLINE
  8
0
 66
1
 70
1
  0
VERTEX
  8
0
 10
517.373158
 20
458.750000
 42
-0.011258
  0
VERTEX
  8
0
 10
516.968682
 20
458.104729
 42
-0.003308
  0
VERTEX
  8
0
 10
516.319269
 20
457.132812
 42
-0.003320
  0
VERTEX
  8
0
 10
515.573999
 20
456.048822
 42
-0.003561
  0
VERTEX
  8
0
 10
514.831447
 20
455.000000
 42
0.059366
  0
VERTEX
  8
0
 10
512.723123
 20
451.182555
 42
0.023862
  0
VERTEX
  8
0
 10
510.741616
 20
445.550289
 42
0.023311
  0
VERTEX
  8
0
 10
509.172812
 20
439.247813
 42
0.028234
  0
VERTEX
  8
0
 10
508.317375
 20
433.216583
 42
-0.007275
  0
VERTEX
  8
0
 10
508.037658
 20
430.400185
 42
-0.011159
  0
VERTEX
  8
0
 10
507.705595
 20
427.971073
 42
-0.005815
  0
VERTEX
  8
0
 10
507.359880
 20
425.954725
 42
-0.220147
  0
VERTEX
  8
0
 10
507.100439
 20
425.587303
 42
-0.100575
  0
VERTEX
  8
0
 10
506.628083
 20
425.429656
 42
-0.002118
  0
VERTEX
  8
0
 10
504.168186
 20
425.139505
 42
-0.004828
  0
VERTEX
  8
0
 10
501.277028
 20
424.839141
 42
-0.003224
  0
VERTEX
  8
0
 10
497.961471
 20
424.548566
 42
0.000000
  0
VERTEX
  8
0
 10
489.422942
 20
423.855693
 42
0.000000
  0
VERTEX
  8
0
 10
487.961471
 20
427.064768
 42
0.000000
  0
VERTEX
  8
0
 10
486.500000
 20
430.273843
 42
0.000000
  0
VERTEX
  8
0
 10
477.777186
 20
430.386921
 42
-0.007978
  0
VERTEX
  8
0
 10
473.010809
 20
430.524801
 42
-0.037708
  0
VERTEX
  8
0
 10
470.298277
 20
430.852580
 42
-0.066828
  0
VERTEX
  8
0
 10
468.491834
 20
431.469501
 42
-0.080925
  0
VERTEX
  8
0
 10
467.040314
 20
432.514650
 42
-0.112886
  0
VERTEX
  8
0
 10
465.495768
 20
434.975878
 42
-0.042606
  0
VERTEX
  8
0
 10
464.482530
 20
438.936563
 42
-0.039564
  0
VERTEX
  8
0
 10
464.080581
 20
443.587680
 42
-0.039012
  0
VERTEX
  8
0
 10
464.412697
 20
448.266387
 42
0.000000
  0
VERTEX
  8
0
 10
465.075867
 20
452.688721
 42
0.000000
  0
VERTEX
  8
0
 10
474.287933
 20
453.889376
 42
0.002834
  0
VERTEX
  8
0
 10
478.855713
 20
454.511067
 42
0.001087
  0
VERTEX
  8
0
 10
485.200205
 20
455.425297
 42
0.001076
  0
VERTEX
  8
0
 10
492.082123
 20
456.447368
 42
0.001323
  0
VERTEX
  8
0
 10
498.500000
 20
457.432016
 42
-0.001593
  0
VERTEX
  8
0
 10
510.553396
 20
459.274633
 42
-0.019700
  0
VERTEX
  8
0
 10
515.164801
 20
459.779819
 42
-0.090008
  0
VERTEX
  8
0
 10
517.052540
 20
459.571686
 42
-0.488881
  0
SEQEND
  0
POLYLINE
  8
0
 66
1
 70
1
  0
VERTEX
  8
0
 10
580.986466
 20
443.441663
 42
-0.030870
  0
VERTEX
  8
0
 10
586.232705
 20
441.857910
 42
-0.033349
  0
VERTEX
  8
0
 10
591.105447
 20
439.672652
 42
-0.032937
  0
VERTEX
  8
0
 10
595.696887
 20
436.831650
 42
-0.028698
  0
VERTEX
  8
0
 10
600.102774
 20
433.288185
 42
-0.030788
  0
VERTEX
  8
0
 10
603.048935
 20
430.277265
 42
-0.026485
  0
VERTEX
  8
0
 10
605.765156
 20
426.777549
 42
-0.019396
  0
VERTEX
  8
0
 10
607.842828
 20
423.523699
 42
-0.341095
  0
VERTEX
  8
0
 10
607.693070
 20
422.359737
 42
-0.152682
  0
VERTEX
  8
0
 10
607.249593
 20
422.127517
 42
-0.006282
  0
VERTEX
  8
0
 10
605.456036
 20
421.825568
 42
-0.010430
  0
VERTEX
  8
0
 10
603.292809
 20
421.535345
 42
-0.007161
  0
VERTEX
  8
0
 10
600.829003
 20
421.292657
 42
0.015941
  0
VERTEX
  8
0
 10
597.578049
 20
420.914695
 42
0.044375
  0
VERTEX
  8
0
 10
595.345592
 20
420.377090
 42
0.060434
  0
VERTEX
  8
0
 10
593.667109
 20
419.575118
 42
0.059594
  0
VERTEX
  8
0
 10
592.220281
 20
418.391914
 42
-0.043215
  0
VERTEX
  8
0
 10
590.523022
 20
416.908799
 42
-0.069731
  0
VERTEX
  8
0
 10
588.834833
 20
416.002796
 42
-0.041395
  0
VERTEX
  8
0
 10
586.408682
 20
415.329838
 42
-0.006933
  0
VERTEX
  8
0
 10
581.649213
 20
414.493394
 42
0.040953
  0
VERTEX
  8
0
 10
580.033924
 20
414.094746
 42
0.032224
  0
VERTEX
  8
0
 10
578.365019
 20
413.412150
 42
0.033163
  0
VERTEX
  8
0
 10
576.888476
 20
412.568745
 42
0.066161
  0
VERTEX
  8
0
 10
575.876468
 20
411.685779
 42
0.001995
  0
VERTEX
  8
0
 10
574.907875
 20
410.575328
 42
0.000693
  0
VERTEX
  8
0
 10
573.520222
 20
408.967073
 42
0.000688
  0
VERTEX
  8
0
 10
571.996900
 20
407.191688
 42
0.000802
  0
VERTEX
  8
0
 10
570.554123
 20
405.500000
 42
0.000000
  0
VERTEX
  8
0
 10
567.153736
 20
401.500000
 42
0.000000
  0
VERTEX
  8
0
 10
558.772350
 20
401.155412
 42
0.000000
  0
VERTEX
  8
0
 10
550.390963
 20
400.810824
 42
0.000000
  0
VERTEX
  8
0
 10
547.695482
 20
404.883972
 42
-0.059175
  0
VERTEX
  8
0
 10
545.580666
 20
409.084737
 42
-0.099718
  0
VERTEX
  8
0
 10
544.995524
 20
412.972092
 42
-0.098767
  0
VERTEX
  8
0
 10
545.959961
 20
416.808764
 42
-0.057184
  0
VERTEX
  8
0
 10
548.484918
 20
420.859406
 42
0.043431
  0
VERTEX
  8
0
 10
551.155470
 20
424.892754
 42
0.077990
  0
VERTEX
  8
0
 10
552.485258
 20
428.623792
 42
0.079391
  0
VERTEX
  8
0
 10
552.595871
 20
432.536676
 42
0.046515
  0
VERTEX
  8
0
 10
551.556297
 20
437.117692
 42
-0.011102
  0
VERTEX
  8
0
 10
550.953332
 20
439.109796
 42
-0.016794
  0
VERTEX
  8
0
 10
550.526051
 20
440.870127
 42
-0.011606
  0
VERTEX
  8
0
 10
550.260550
 20
442.318245
 42
-0.240353
  0
VERTEX
  8
0
 10
550.392870
 20
442.726203
 42
-0.176589
  0
VERTEX
  8
0
 10
553.739254
 20
444.284576
 42
-0.015718
  0
VERTEX
  8
0
 10
563.169863
 20
444.802036
 42
-0.021562
  0
VERTEX
  8
0
 10
573.136093
 20
444.605320
 42
-0.042177
  0
SEQEND
  0
POLYLINE
  8
0
 66
1
 70
1
  0
VERTEX
  8
0
 10
521.250000
 20
408.399967
 42
-0.027979
  0
VERTEX
  8
0
 10
524.013193
 20
407.751273
 42
-0.243885
  0
VERTEX
  8
0
 10
524.894126
 20
406.905633
 42
-0.463895
  0
VERTEX
  8
0
 10
524.465976
 20
406.193457
 42
-0.040224
  0
VERTEX
  8
0
 10
522.065100
 20
406.000000
 42
0.026774
  0
VERTEX
  8
0
 10
520.755712
 20
405.929834
 42
0.016987
  0
VERTEX
  8
0
 10
519.242765
 20
405.715017
 42
0.017058
  0
VERTEX
  8
0
 10
517.767503
 20
405.401924
 42
0.030030
  0
VERTEX
  8
0
 10
516.578503
 20
405.029847
 42
0.032296
  0
VERTEX
  8
0
 10
515.177819
 20
404.391035
 42
0.171306
  0
VERTEX
  8
0
 10
514.618907
 20
403.777715
 42
0.163446
  0
VERTEX
  8
0
 10
514.554803
 20
402.932215
 42
0.028750
  0
VERTEX
  8
0
 10
515.041382
 20
401.391158
 42
-0.014192
  0
VERTEX
  8
0
 10
515.405745
 20
400.344293
 42
-0.021110
  0
VERTEX
  8
0
 10
515.659229
 20
399.407809
 42
-0.017131
  0
VERTEX
  8
0
 10
515.804307
 20
398.644680
 42
-0.239161
  0
VERTEX
  8
0
 10
515.719968
 20
398.386635
 42
-0.155117
  0
VERTEX
  8
0
 10
515.409282
 20
398.225828
 42
-0.001061
  0
VERTEX
  8
0
 10
512.409282
 20
397.717915
 42
-0.004000
  0
VERTEX
  8
0
 10
508.956175
 20
397.169189
 42
-0.002531
  0
VERTEX
  8
0
 10
504.921360
 20
396.581956
 42
0.003640
  0
VERTEX
  8
0
 10
500.788021
 20
395.971019
 42
0.004780
  0
VERTEX
  8
0
 10
497.024132
 20
395.349755
 42
0.003533
  0
VERTEX
  8
0
 10
493.883529
 20
394.777583
 42
0.044813
  0
VERTEX
  8
0
 10
492.729370
 20
394.449644
 42
-0.098449
  0
VERTEX
  8
0
 10
491.552499
 20
394.247454
 42
-0.392082
  0
VERTEX
  8
0
 10
491.074107
 20
394.714546
 42
-0.142366
  0
VERTEX
  8
0
 10
491.345409
 20
395.858770
 42
-0.023848
  0
VERTEX
  8
0
 10
492.562352
 20
397.785558
 42
0.035742
  0
VERTEX
  8
0
 10
493.386371
 20
399.161601
 42
0.142280
  0
VERTEX
  8
0
 10
493.565933
 20
400.118755
 42
0.112456
  0
VERTEX
  8
0
 10
493.223670
 20
401.147470
 42
0.018406
  0
VERTEX
  8
0
 10
492.062352
 20
402.912434
 42
-0.015850
  0
VERTEX
  8
0
 10
490.410007
 20
405.395918
 42
-0.192798
  0
VERTEX
  8
0
 10
490.215333
 20
406.500441
 42
-0.216699
  0
VERTEX
  8
0
 10
490.849139
 20
407.363795
 42
-0.020456
  0
VERTEX
  8
0
 10
493.250000
 20
408.582839
 42
-0.056806
  0
VERTEX
  8
0
 10
495.375848
 20
409.276566
 42
-0.032664
  0
VERTEX
  8
0
 10
498.048589
 20
409.644058
 42
-0.022354
  0
VERTEX
  8
0
 10
501.683457
 20
409.740897
 42
-0.007469
  0
VERTEX
  8
0
 10
507.000000
 20
409.565374
 42
-0.004107
  0
VERTEX
  8
0
 10
511.294926
 20
409.323944
 42
-0.004308
  0
VERTEX
  8
0
 10
515.517187
 20
409.015236
 42
-0.004135
  0
VERTEX
  8
0
 10
519.156625
 20
408.687271
 42
-0.019128
  0
SEQEND
  0
POLYLINE
  8
0
 66
1
 70
1
  0
VERTEX
  8
0
 10
659.562744
 20
392.474228
 42
-0.002412
  0
VERTEX
  8
0
 10
663.951171
 20
389.144857
 42
-0.003650
  0
VERTEX
  8
0
 10
667.734973
 20
386.201249
 42
-0.001432
  0
VERTEX
  8
0
 10
670.953576
 20
383.644408
 42
-0.085972
  0
VERTEX
  8
0
 10
671.443286
 20
383.091765
 42
-0.205395
  0
VERTEX
  8
0
 10
671.517656
 20
382.594367
 42
-0.039656
  0
VERTEX
  8
0
 10
671.210823
 20
381.715819
 42
-0.036332
  0
VERTEX
  8
0
 10
670.660220
 20
380.678324
 42
-0.026500
  0
VERTEX
  8
0
 10
669.908420
 20
379.610705
 42
0.038438
  0
VERTEX
  8
0
 10
668.973439
 20
378.213311
 42
0.065990
  0
VERTEX
  8
0
 10
668.453062
 20
376.914417
 42
0.069326
  0
VERTEX
  8
0
 10
668.303519
 20
375.570677
 42
0.047186
  0
VERTEX
  8
0
 10
668.490820
 20
374.041796
 42
0.070026
  0
VERTEX
  8
0
 10
669.594279
 20
371.074513
 42
0.010840
  0
VERTEX
  8
0
 10
672.705587
 20
365.609260
 42
0.012785
  0
VERTEX
  8
0
 10
676.164088
 20
360.151006
 42
0.033934
  0
VERTEX
  8
0
 10
678.987082
 20
356.500000
 42
-0.088512
  0
VERTEX
  8
0
 10
680.247309
 20
354.442065
 42
-0.041623
  0
VERTEX
  8
0
 10
681.141314
 20
351.442975
 42
-0.041993
  0
VERTEX
  8
0
 10
681.474900
 20
348.734989
 42
-0.425574
  0
VERTEX
  8
0
 10
680.767771
 20
348.000000
 42
-0.147975
  0
VERTEX
  8
0
 10
680.178443
 20
348.178316
 42
-0.003472
  0
VERTEX
  8
0
 10
677.756311
 20
349.816180
 42
-0.007379
  0
VERTEX
  8
0
 10
674.936596
 20
351.813406
 42
-0.004904
  0
VERTEX
  8
0
 10
671.759944
 20
354.182739
 42
0.008918
  0
VERTEX
  8
0
 10
667.112786
 20
357.591143
 42
0.038125
  0
VERTEX
  8
0
 10
664.163450
 20
359.354131
 42
0.056429
  0
VERTEX
  8
0
 10
661.586164
 20
360.294383
 42
0.038604
  0
VERTEX
  8
0
 10
658.507416
 20
360.790942
 42
0.000000
  0
VERTEX
  8
0
 10
653.376871
 20
361.216407
 42
0.000000
  0
VERTEX
  8
0
 10
652.155753
 20
372.198194
 42
0.008444
  0
VERTEX
  8
0
 10
651.186190
 20
379.753699
 42
0.007316
  0
VERTEX
  8
0
 10
649.919814
 20
387.643699
 42
0.007233
  0
VERTEX
  8
0
 10
648.575527
 20
394.700337
 42
0.024366
  0
VERTEX
  8
0
 10
647.406860
 20
399.250000
 42
-0.033634
  0
VERTEX
  8
0
 10
647.247708
 20
399.920911
 42
-0.060253
  0
VERTEX
  8
0
 10
647.222089
 20
400.485937
 42
-0.093568
  0
VERTEX
  8
0
 10
647.323567
 20
400.864898
 42
-0.288248
  0
VERTEX
  8
0
 10
647.538445
 20
401.000000
 42
-0.154230
  0
VERTEX
  8
0
 10
648.009608
 20
400.851124
 42
-0.001168
  0
VERTEX
  8
0
 10
651.348286
 20
398.495554
 42
-0.004195
  0
VERTEX
  8
0
 10
655.163087
 20
395.742298
 42
-0.002663
  0
SEQEND
  0
POLYLINE
  8
0
 66
1
 70
1
  0
VERTEX
  8
0
 10
601.866776
 20
394.376645
 42
-0.071529
  0
VERTEX
  8
0
 10
603.393824
 20
393.836112
 42
-0.026662
  0
VERTEX
  8
0
 10
605.354715
 20
392.670446
 42
-0.025128
  0
VERTEX
  8
0
 10
607.441261
 20
391.117276
 42
-0.023820
  0
VERTEX
  8
0
 10
609.400719
 20
389.336124
 42
-0.030892
  0
VERTEX
  8
0
 10
613.472917
 20
384.727051
 42
-0.018118
  0
VERTEX
  8
0
 10
617.785146
 20
378.758197
 42
-0.010676
  0
VERTEX
  8
0
 10
621.546378
 20
372.864965
 42
-0.220591
  0
VERTEX
  8
0
 10
621.776344
 20
370.829033
 42
-0.553094
  0
VERTEX
  8
0
 10
621.365869
 20
370.729186
 42
-0.023277
  0
VERTEX
  8
0
 10
620.124539
 20
372.055173
 42
-0.021658
  0
VERTEX
  8
0
 10
618.539803
 20
374.086235
 42
-0.011271
  0
VERTEX
  8
0
 10
616.733725
 20
376.744774
 42
0.020659
  0
VERTEX
  8
0
 10
612.198734
 20
383.157906
 42
0.038835
  0
VERTEX
  8
0
 10
607.948857
 20
387.864525
 42
0.049510
  0
VERTEX
  8
0
 10
603.968347
 20
390.952413
 42
0.099589
  0
VERTEX
  8
0
 10
600.267102
 20
392.355377
 42
0.031327
  0
VERTEX
  8
0
 10
597.849689
 20
392.600765
 42
0.002881
  0
VERTEX
  8
0
 10
591.822360
 20
392.798329
 42
0.003711
  0
VERTEX
  8
0
 10
584.625157
 20
392.939285
 42
0.002900
  0
VERTEX
  8
0
 10
576.809017
 20
392.988994
 42
-0.003947
  0
VERTEX
  8
0
 10
568.623888
 20
393.058181
 42
-0.008349
  0
VERTEX
  8
0
 10
562.282533
 20
393.267796
 42
-0.003812
  0
VERTEX
  8
0
 10
557.236210
 20
393.557588
 42
-0.242660
  0
VERTEX
  8
0
 10
556.500000
 20
394.000000
 42
-0.583344
  0
VERTEX
  8
0
 10
556.941764
 20
394.803689
 42
-0.000935
  0
VERTEX
  8
0
 10
576.915946
 20
395.006873
 42
-0.003332
  0
VERTEX
  8
0
 10
595.363773
 20
395.037079
 42
-0.048129
  0
SEQEND
  0
POLYLINE
  8
0
 66
1
 70
1
  0
VERTEX
  8
0
 10
505.469147
 20
382.049921
 42
-0.067969
  0
VERTEX
  8
0
 10
505.647590
 20
381.648014
 42
-0.141738
  0
VERTEX
  8
0
 10
505.647765
 20
381.308414
 42
-0.190619
  0
VERTEX
  8
0
 10
505.475100
 20
381.084925
 42
-0.134878
  0
VERTEX
  8
0
 10
505.166006
 20
381.000000
 42
0.229583
  0
VERTEX
  8
0
 10
504.200052
 20
380.531788
 42
0.109083
  0
VERTEX
  8
0
 10
503.582986
 20
379.256967
 42
0.105761
  0
VERTEX
  8
0
 10
503.550065
 20
377.810394
 42
0.210331
  0
VERTEX
  8
0
 10
504.187170
 20
376.884323
 42
-0.056592
  0
VERTEX
  8
0
 10
504.622067
 20
376.542147
 42
-0.090282
  0
VERTEX
  8
0
 10
504.892678
 20
376.155800
 42
-0.124518
  0
VERTEX
  8
0
 10
504.960589
 20
375.789225
 42
-0.182181
  0
VERTEX
  8
0
 10
504.826687
 20
375.493353
 42
-0.158049
  0
VERTEX
  8
0
 10
503.540678
 20
374.837037
 42
-0.005404
  0
VERTEX
  8
0
 10
497.870888
 20
373.994141
 42
-0.004254
  0
VERTEX
  8
0
 10
492.084543
 20
373.247843
 42
-0.230233
  0
VERTEX
  8
0
 10
491.067124
 20
373.599543
 42
-0.205444
  0
VERTEX
  8
0
 10
490.743173
 20
374.410258
 42
-0.008157
  0
VERTEX
  8
0
 10
490.878062
 20
377.665561
 42
-0.011236
  0
VERTEX
  8
0
 10
491.133175
 20
380.839744
 42
-0.112728
  0
VERTEX
  8
0
 10
491.557866
 20
382.091135
 42
-0.252109
  0
VERTEX
  8
0
 10
492.777813
 20
382.798056
 42
-0.008556
  0
VERTEX
  8
0
 10
498.511541
 20
382.879188
 42
-0.008589
  0
VERTEX
  8
0
 10
504.243189
 20
382.763741
 42
-0.249998
  0
SEQEND
  0
POLYLINE
  8
0
 66
1
 70
1
  0
VERTEX
  8
0
 10
695.614320
 20
363.769982
 42
-0.011964
  0
VERTEX
  8
0
 10
697.293381
 20
360.218306
 42
-0.013948
  0
VERTEX
  8
0
 10
698.711706
 20
356.765799
 42
-0.012976
  0
VERTEX
  8
0
 10
699.747970
 20
353.798111
 42
-0.077654
  0
VERTEX
  8
0
 10
700.000000
 20
352.185128
 42
-0.069403
  0
VERTEX
  8
0
 10
699.461538
 20
348.324566
 42
-0.005529
  0
VERTEX
  8
0
 10
696.523378
 20
338.414468
 42
-0.002869
  0
VERTEX
  8
0
 10
693.259840
 20
328.048990
 42
-0.178475
  0
VERTEX
  8
0
 10
692.092425
 20
326.557122
 42
-0.155990
  0
VERTEX
  8
0
 10
691.677581
 20
326.453803
 42
-0.081016
  0
VERTEX
  8
0
 10
691.152326
 20
326.575170
 42
-0.067638
  0
VERTEX
  8
0
 10
690.600093
 20
326.894169
 42
-0.054849
  0
VERTEX
  8
0
 10
690.107907
 20
327.369980
 42
-0.115845
  0
VERTEX
  8
0
 10
689.667284
 20
328.254729
 42
-0.077307
  0
VERTEX
  8
0
 10
689.579732
 20
329.388119
 42
-0.049805
  0
VERTEX
  8
0
 10
689.853852
 20
330.922916
 42
-0.016412
  0
VERTEX
  8
0
 10
690.551907
 20
333.108969
 42
0.010182
  0
VERTEX
  8
0
 10
691.244692
 20
335.188752
 42
0.005068
  0
VERTEX
  8
0
 10
692.041688
 20
337.849388
 42
0.005028
  0
VERTEX
  8
0
 10
692.812016
 20
340.623577
 42
0.007367
  0
VERTEX
  8
0
 10
693.429063
 20
343.080437
 42
0.044833
  0
VERTEX
  8
0
 10
694.052843
 20
347.452323
 42
0.098739
  0
VERTEX
  8
0
 10
693.568236
 20
350.777444
 42
0.052256
  0
VERTEX
  8
0
 10
691.631237
 20
354.828850
 42
0.005829
  0
VERTEX
  8
0
 10
686.170016
 20
363.500000
 42
-0.004064
  0
VERTEX
  8
0
 10
684.188834
 20
366.621173
 42
-0.006133
  0
VERTEX
  8
0
 10
682.518843
 20
369.374630
 42
-0.002694
  0
VERTEX
  8
0
 10
681.140051
 20
371.741192
 42
-0.131239
  0
VERTEX
  8
0
 10
681.000135
 20
372.264698
 42
-0.199550
  0
VERTEX
  8
0
 10
681.167257
 20
372.666972
 42
-0.019678
  0
VERTEX
  8
0
 10
681.954727
 20
373.391466
 42
-0.022433
  0
VERTEX
  8
0
 10
683.005070
 20
374.205907
 42
-0.015916
  0
VERTEX
  8
0
 10
684.250000
 20
375.026672
 42
0.000000
  0
VERTEX
  8
0
 10
687.500000
 20
377.023947
 42
0.000000
  0
VERTEX
  8
0
 10
689.364320
 20
374.761973
 42
-0.036809
  0
VERTEX
  8
0
 10
690.341787
 20
373.380385
 42
-0.006286
  0
VERTEX
  8
0
 10
691.969289
 20
370.600012
 42
-0.006827
  0
VERTEX
  8
0
 10
693.798523
 20
367.278156
 42
-0.006040
  0
SEQEND
  0
POLYLINE
  8
0
 66
1
 70
1
  0
VERTEX
  8
0
 10
508.473290
 20
367.915843
 42
0.153434
  0
VERTEX
  8
0
 10
508.469295
 20
366.508144
 42
0.370916
  0
VERTEX
  8
0
 10
509.286742
 20
365.997046
 42
0.170221
  0
VERTEX
  8
0
 10
510.656066
 20
366.725337
 42
0.079479
  0
VERTEX
  8
0
 10
511.782214
 20
368.421357
 42
-0.131468
  0
VERTEX
  8
0
 10
513.184479
 20
370.123973
 42
-0.213618
  0
VERTEX
  8
0
 10
514.989891
 20
370.488982
 42
-0.250058
  0
VERTEX
  8
0
 10
516.257895
 20
369.395809
 42
-0.155010
  0
VERTEX
  8
0
 10
516.382001
 20
367.385877
 42
0.127000
  0
VERTEX
  8
0
 10
516.393526
 20
365.676641
 42
0.340584
  0
VERTEX
  8
0
 10
517.299226
 20
364.981120
 42
0.173992
  0
VERTEX
  8
0
 10
518.898064
 20
365.557823
 42
0.056637
  0
VERTEX
  8
0
 10
520.666593
 20
367.392906
 42
-0.126856
  0
VERTEX
  8
0
 10
522.878651
 20
369.126248
 42
-0.049375
  0
VERTEX
  8
0
 10
526.603670
 20
370.334357
 42
-0.049270
  0
VERTEX
  8
0
 10
530.434624
 20
370.782652
 42
-0.148280
  0
VERTEX
  8
0
 10
532.939109
 20
370.072266
 42
-0.244438
  0
VERTEX
  8
0
 10
534.166681
 20
367.930855
 42
-0.018056
  0
VERTEX
  8
0
 10
534.201131
 20
360.956107
 42
-0.022305
  0
VERTEX
  8
0
 10
533.549752
 20
352.375863
 42
-0.016194
  0
VERTEX
  8
0
 10
532.092160
 20
342.908366
 42
0.001862
  0
VERTEX
  8
0
 10
530.169283
 20
332.425813
 42
0.013943
  0
VERTEX
  8
0
 10
529.415011
 20
327.428667
 42
0.023432
  0
VERTEX
  8
0
 10
529.201522
 20
324.590159
 42
0.422502
  0
VERTEX
  8
0
 10
529.775260
 20
324.000000
 42
0.199225
  0
VERTEX
  8
0
 10
530.977048
 20
324.498644
 42
0.005749
  0
VERTEX
  8
0
 10
534.917638
 20
328.540631
 42
0.012238
  0
VERTEX
  8
0
 10
538.952565
 20
332.988791
 42
0.016088
  0
VERTEX
  8
0
 10
542.398987
 20
337.250000
 42
-0.020025
  0
VERTEX
  8
0
 10
544.309378
 20
339.574374
 42
-0.077610
  0
VERTEX
  8
0
 10
545.745990
 20
340.754985
 42
-0.284852
  0
VERTEX
  8
0
 10
546.581210
 20
340.736590
 42
-0.253684
  0
VERTEX
  8
0
 10
547.000000
 20
339.964293
 42
-0.139190
  0
VERTEX
  8
0
 10
546.499241
 20
338.200311
 42
-0.002120
  0
VERTEX
  8
0
 10
540.823032
 20
329.095024
 42
-0.005622
  0
VERTEX
  8
0
 10
535.363736
 20
320.632446
 42
-0.028997
  0
VERTEX
  8
0
 10
532.025914
 20
316.169489
 42
-0.074637
  0
VERTEX
  8
0
 10
529.230520
 20
313.709479
 42
-0.072263
  0
VERTEX
  8
0
 10
525.805953
 20
312.145554
 42
-0.051764
  0
VERTEX
  8
0
 10
521.155761
 20
311.296086
 42
-0.018473
  0
VERTEX
  8
0
 10
514.404988
 20
311.023857
 42
0.010819
  0
VERTEX
  8
0
 10
510.597972
 20
310.928662
 42
0.044723
  0
VERTEX
  8
0
 10
508.319206
 20
310.616770
 42
0.073863
  0
VERTEX
  8
0
 10
506.757044
 20
310.005706
 42
0.078890
  0
VERTEX
  8
0
 10
505.479312
 20
308.977140
 42
-0.119815
  0
VERTEX
  8
0
 10
503.812401
 20
307.844706
 42
-0.066568
  0
VERTEX
  8
0
 10
501.403755
 20
307.292649
 42
-0.024746
  0
VERTEX
  8
0
 10
497.107999
 20
307.108312
 42
-0.002349
  0
VERTEX
  8
0
 10
486.587131
 20
307.227140
 42
-0.002162
  0
VERTEX
  8
0
 10
476.095862
 20
307.440301
 42
-0.025324
  0
VERTEX
  8
0
 10
472.016863
 20
307.747938
 42
-0.079352
  0
VERTEX
  8
0
 10
470.004349
 20
308.336000
 42
-0.238981
  0
VERTEX
  8
0
 10
469.154066
 20
309.433903
 42
-0.085119
  0
VERTEX
  8
0
 10
469.137452
 20
310.265268
 42
-0.061058
  0
VERTEX
  8
0
 10
469.387448
 20
311.162250
 42
-0.060195
  0
VERTEX
  8
0
 10
469.852574
 20
311.985997
 42
-0.076439
  0
VERTEX
  8
0
 10
470.470305
 20
312.601945
 42
0.052225
  0
VERTEX
  8
0
 10
471.259700
 20
313.316573
 42
0.137245
  0
VERTEX
  8
0
 10
471.594296
 20
313.995448
 42
0.127548
  0
VERTEX
  8
0
 10
471.540269
 20
314.781924
 42
0.042296
  0
VERTEX
  8
0
 10
471.079046
 20
315.852301
 42
-0.100897
  0
VERTEX
  8
0
 10
470.624293
 20
317.374634
 42
-0.007391
  0
VERTEX
  8
0
 10
470.298166
 20
321.750728
 42
-0.009435
  0
VERTEX
  8
0
 10
470.072738
 20
327.281595
 42
-0.005467
  0
VERTEX
  8
0
 10
470.000000
 20
333.934259
 42
0.000000
  0
VERTEX
  8
0
 10
470.000000
 20
350.000000
 42
0.000000
  0
VERTEX
  8
0
 10
472.776426
 20
350.000000
 42
-0.036186
  0
VERTEX
  8
0
 10
474.411742
 20
349.881494
 42
-0.223517
  0
VERTEX
  8
0
 10
475.096283
 20
349.428604
 42
-0.147687
  0
VERTEX
  8
0
 10
475.340888
 20
348.483486
 42
-0.013770
  0
VERTEX
  8
0
 10
475.176578
 20
346.054394
 42
0.030434
  0
VERTEX
  8
0
 10
475.103635
 20
343.924174
 42
0.074315
  0
VERTEX
  8
0
 10
475.376236
 20
342.382187
 42
0.078557
  0
VERTEX
  8
0
 10
476.075864
 20
341.038743
 42
0.037137
  0
VERTEX
  8
0
 10
477.354697
 20
339.554394
 42
0.087523
  0
VERTEX
  8
0
 10
480.155605
 20
337.593461
 42
0.119998
  0
VERTEX
  8
0
 10
483.160846
 20
336.992578
 42
0.113636
  0
VERTEX
  8
0
 10
486.227266
 20
337.834014
 42
0.072950
  0
VERTEX
  8
0
 10
489.200237
 20
340.046391
 42
0.024807
  0
VERTEX
  8
0
 10
490.795083
 20
341.807859
 42
0.080398
  0
VERTEX
  8
0
 10
491.584013
 20
343.167593
 42
0.092354
  0
VERTEX
  8
0
 10
491.846166
 20
344.599264
 42
0.039469
  0
VERTEX
  8
0
 10
491.686185
 20
346.546391
 42
0.000000
  0
VERTEX
  8
0
 10
491.125741
 20
350.000000
 42
0.000000
  0
VERTEX
  8
0
 10
496.500000
 20
350.000000
 42
0.000000
  0
VERTEX
  8
0
 10
501.874259
 20
350.000000
 42
0.000000
  0
VERTEX
  8
0
 10
501.313815
 20
346.546391
 42
0.039469
  0
VERTEX
  8
0
 10
501.153834
 20
344.599264
 42
0.092354
  0
VERTEX
  8
0
 10
501.415987
 20
343.167593
 42
0.080398
  0
VERTEX
  8
0
 10
502.204917
 20
341.807859
 42
0.024807
  0
VERTEX
  8
0
 10
503.799763
 20
340.046391
 42
0.126713
  0
VERTEX
  8
0
 10
508.358284
 20
337.355138
 42
0.169425
  0
VERTEX
  8
0
 10
513.119209
 20
337.614533
 42
0.169944
  0
VERTEX
  8
0
 10
516.675536
 20
340.776485
 42
0.127525
  0
VERTEX
  8
0
 10
518.000000
 20
345.884995
 42
-0.019352
  0
VERTEX
  8
0
 10
518.083920
 20
348.052452
 42
-0.101627
  0
VERTEX
  8
0
 10
518.411570
 20
349.192078
 42
-0.163769
  0
VERTEX
  8
0
 10
519.078871
 20
349.830937
 42
-0.074611
  0
VERTEX
  8
0
 10
520.250000
 20
350.180449
 42
0.063957
  0
VERTEX
  8
0
 10
521.303999
 20
350.470812
 42
0.125837
  0
VERTEX
  8
0
 10
521.993045
 20
350.991284
 42
0.117390
  0
VERTEX
  8
0
 10
522.376554
 20
351.806311
 42
0.051570
  0
VERTEX
  8
0
 10
522.500000
 20
353.000000
 42
0.000000
  0
VERTEX
  8
0
 10
522.500000
 20
355.500000
 42
0.000000
  0
VERTEX
  8
0
 10
496.750000
 20
355.766882
 42
-0.001153
  0
VERTEX
  8
0
 10
480.097069
 20
355.977894
 42
-0.018431
  0
VERTEX
  8
0
 10
474.465207
 20
356.270082
 42
-0.066079
  0
VERTEX
  8
0
 10
471.834687
 20
356.860137
 42
-0.314321
  0
VERTEX
  8
0
 10
471.000000
 20
358.056721
 42
-0.090061
  0
VERTEX
  8
0
 10
471.332922
 20
359.890047
 42
-0.011650
  0
VERTEX
  8
0
 10
472.826143
 20
363.600849
 42
-0.012722
  0
VERTEX
  8
0
 10
474.497896
 20
367.233430
 42
-0.071007
  0
VERTEX
  8
0
 10
475.702666
 20
369.000000
 42
-0.200831
  0
VERTEX
  8
0
 10
476.636904
 20
369.433105
 42
-0.000488
  0
VERTEX
  8
0
 10
491.740349
 20
369.988180
 42
-0.000814
  0
VERTEX
  8
0
 10
506.528878
 20
370.493131
 42
-0.108512
  0
VERTEX
  8
0
 10
508.290677
 20
370.165843
 42
-0.203715
  0
VERTEX
  8
0
 10
508.549378
 20
369.898523
 42
-0.071647
  0
VERTEX
  8
0
 10
508.670474
 20
369.367066
 42
-0.056751
  0
VERTEX
  8
0
 10
508.648006
 20
368.673794
 42
-0.040411
  0
SEQEND
  0
POLYLINE
  8
0
 66
1
 70
1
  0
VERTEX
  8
0
 10
589.171259
 20
347.345012
 42
-0.160352
  0
VERTEX
  8
0
 10
590.677389
 20
344.697554
 42
-0.140250
  0
VERTEX
  8
0
 10
590.423715
 20
341.511155
 42
-0.141563
  0
VERTEX
  8
0
 10
588.528248
 20
338.962063
 42
-0.163986
  0
VERTEX
  8
0
 10
585.673753
 20
338.000000
 42
-0.111068
  0
VERTEX
  8
0
 10
583.711184
 20
338.441403
 42
-0.077997
  0
VERTEX
  8
0
 10
581.833295
 20
339.721010
 42
-0.079521
  0
VERTEX
  8
0
 10
580.470010
 20
341.483864
 42
-0.125545
  0
VERTEX
  8
0
 10
580.000000
 20
343.326247
 42
-0.144074
  0
VERTEX
  8
0
 10
580.883845
 20
346.329912
 42
-0.147416
  0
VERTEX
  8
0
 10
583.247491
 20
348.343988
 42
-0.146713
  0
VERTEX
  8
0
 10
586.339737
 20
348.722004
 42
-0.142416
  0
SEQEND
  0
POLYLINE
  8
0
 66
1
 70
1
  0
VERTEX
  8
0
 10
611.086657
 20
316.718197
 42
-0.102120
  0
VERTEX
  8
0
 10
613.594847
 20
313.814707
 42
-0.124615
  0
VERTEX
  8
0
 10
614.518539
 20
310.356328
 42
-0.125615
  0
VERTEX
  8
0
 10
613.683165
 20
306.895922
 42
-0.104751
  0
VERTEX
  8
0
 10
611.252764
 20
303.984184
 42
-0.067103
  0
VERTEX
  8
0
 10
608.844952
 20
302.565271
 42
-0.102279
  0
VERTEX
  8
0
 10
606.472492
 20
302.097530
 42
-0.100891
  0
VERTEX
  8
0
 10
604.085621
 20
302.607001
 42
-0.063868
  0
VERTEX
  8
0
 10
601.634859
 20
304.072580
 42
-0.168116
  0
VERTEX
  8
0
 10
599.151200
 20
307.937538
 42
-0.150952
  0
VERTEX
  8
0
 10
599.445307
 20
312.706244
 42
-0.147645
  0
VERTEX
  8
0
 10
602.396042
 20
316.552416
 42
-0.160193
  0
VERTEX
  8
0
 10
606.884859
 20
317.968197
 42
-0.039242
  0
VERTEX
  8
0
 10
608.002444
 20
317.866661
 42
-0.030036
  0
VERTEX
  8
0
 10
609.197883
 20
317.587890
 42
-0.030773
  0
VERTEX
  8
0
 10
610.291452
 20
317.187862
 42
-0.060717
  0
SEQEND
  0
POLYLINE
  8
0
 66
1
 70
1
  0
VERTEX
  8
0
 10
706.993369
 20
313.250000
 42
-0.041854
  0
VERTEX
  8
0
 10
706.766319
 20
310.802421
 42
-0.001174
  0
VERTEX
  8
0
 10
704.884164
 20
300.370836
 42
-0.002093
  0
VERTEX
  8
0
 10
703.017128
 20
290.396459
 42
-0.017587
  0
VERTEX
  8
0
 10
701.998205
 20
285.932257
 42
-0.023045
  0
VERTEX
  8
0
 10
701.416474
 20
284.088657
 42
-0.019976
  0
VERTEX
  8
0
 10
700.642396
 20
282.214476
 42
-0.020453
  0
VERTEX
  8
0
 10
699.803239
 20
280.572774
 42
-0.053902
  0
VERTEX
  8
0
 10
699.035547
 20
279.500000
 42
0.033914
  0
VERTEX
  8
0
 10
697.380810
 20
277.372409
 42
0.042510
  0
VERTEX
  8
0
 10
696.164879
 20
275.189691
 42
0.038841
  0
VERTEX
  8
0
 10
695.260204
 20
272.677408
 42
0.022263
  0
VERTEX
  8
0
 10
694.545894
 20
269.534555
 42
-0.033434
  0
VERTEX
  8
0
 10
693.738926
 20
266.318035
 42
-0.027805
  0
VERTEX
  8
0
 10
692.469158
 20
263.027187
 42
-0.023453
  0
VERTEX
  8
0
 10
691.128461
 20
260.392684
 42
-0.494999
  0
VERTEX
  8
0
 10
690.375407
 20
260.291259
 42
-0.226026
  0
VERTEX
  8
0
 10
690.224372
 20
260.717123
 42
-0.003468
  0
VERTEX
  8
0
 10
690.520299
 20
263.379432
 42
-0.008507
  0
VERTEX
  8
0
 10
690.944366
 20
266.509816
 42
-0.005431
  0
VERTEX
  8
0
 10
691.538653
 20
270.134190
 42
0.012668
  0
VERTEX
  8
0
 10
692.187158
 20
274.482436
 42
0.013765
  0
VERTEX
  8
0
 10
692.593592
 20
278.739336
 42
0.014713
  0
VERTEX
  8
0
 10
692.743780
 20
282.665296
 42
0.023893
  0
VERTEX
  8
0
 10
692.613780
 20
286.000000
 42
-0.021514
  0
VERTEX
  8
0
 10
692.449772
 20
289.748905
 42
-0.036662
  0
VERTEX
  8
0
 10
692.677103
 20
292.875000
 42
-0.031101
  0
VERTEX
  8
0
 10
693.393354
 20
296.267602
 42
-0.011230
  0
VERTEX
  8
0
 10
694.815986
 20
300.988279
 42
-0.010609
  0
VERTEX
  8
0
 10
696.412529
 20
305.554115
 42
-0.040070
  0
VERTEX
  8
0
 10
697.695154
 20
308.294937
 42
-0.060511
  0
VERTEX
  8
0
 10
699.090176
 20
310.173809
 42
-0.054619
  0
VERTEX
  8
0
 10
700.939599
 20
311.738279
 42
-0.027615
  0
VERTEX
  8
0
 10
703.273519
 20
313.130255
 42
-0.059532
  0
VERTEX
  8
0
 10
705.226135
 20
313.873341
 42
-0.118228
  0
VERTEX
  8
0
 10
706.492243
 20
313.885177
 42
-0.351944
  0
SEQEND
  0
POLYLINE
  8
0
 66
1
 70
1
  0
VERTEX
  8
0
 10
285.845818
 20
294.921672
 42
0.028389
  0
VERTEX
  8
0
 10
286.049992
 20
293.907189
 42
0.023940
  0
VERTEX
  8
0
 10
286.377133
 20
292.861639
 42
0.024623
  0
VERTEX
  8
0
 10
286.769215
 20
291.935173
 42
0.059509
  0
VERTEX
  8
0
 10
287.168931
 20
291.309441
 42
0.162368
  0
VERTEX
  8
0
 10
288.304137
 20
290.595298
 42
0.175232
  0
VERTEX
  8
0
 10
289.600701
 20
290.735003
 42
0.154812
  0
VERTEX
  8
0
 10
290.622679
 20
291.709194
 42
0.126200
  0
VERTEX
  8
0
 10
291.000000
 20
293.180313
 42
-0.061623
  0
VERTEX
  8
0
 10
291.105585
 20
294.033764
 42
-0.144993
  0
VERTEX
  8
0
 10
291.429214
 20
294.580881
 42
-0.158579
  0
VERTEX
  8
0
 10
291.975866
 20
294.834319
 42
-0.078085
  0
VERTEX
  8
0
 10
292.750000
 20
294.806226
 42
-0.128183
  0
VERTEX
  8
0
 10
293.572337
 20
294.411926
 42
-0.115963
  0
VERTEX
  8
0
 10
294.134794
 20
293.653045
 42
-0.071952
  0
VERTEX
  8
0
 10
294.470570
 20
292.407252
 42
-0.022799
  0
VERTEX
  8
0
 10
294.613281
 20
290.482902
 42
0.018867
  0
VERTEX
  8
0
 10
294.735738
 20
288.634747
 42
0.009898
  0
VERTEX
  8
0
 10
295.020015
 20
286.348102
 42
0.009832
  0
VERTEX
  8
0
 10
295.404388
 20
284.012996
 42
0.014878
  0
VERTEX
  8
0
 10
295.838835
 20
282.000000
 42
-0.036613
  0
VERTEX
  8
0
 10
296.696938
 20
276.974614
 42
-0.027859
  0
VERTEX
  8
0
 10
296.921646
 20
271.391701
 42
-0.028411
  0
VERTEX
  8
0
 10
296.544799
 20
266.187274
 42
-0.066771
  0
VERTEX
  8
0
 10
295.535989
 20
262.431892
 42
-0.091467
  0
VERTEX
  8
0
 10
293.923698
 20
259.961348
 42
-0.065274
  0
VERTEX
  8
0
 10
291.349174
 20
257.880269
 42
-0.063336
  0
VERTEX
  8
0
 10
288.233837
 20
256.478055
 42
-0.074245
  0
VERTEX
  8
0
 10
285.032119
 20
256.000000
 42
-0.157604
  0
VERTEX
  8
0
 10
283.929227
 20
256.356495
 42
-0.178443
  0
VERTEX
  8
0
 10
283.310964
 20
257.275203
 42
-0.054891
  0
VERTEX
  8
0
 10
283.050165
 20
259.277590
 42
-0.004961
  0
VERTEX
  8
0
 10
283.000000
 20
264.333333
 42
-0.006534
  0
VERTEX
  8
0
 10
283.074800
 20
270.057070
 42
-0.063872
  0
VERTEX
  8
0
 10
283.444320
 20
272.442185
 42
-0.236795
  0
VERTEX
  8
0
 10
284.264125
 20
273.328737
 42
-0.183488
  0
VERTEX
  8
0
 10
285.597766
 20
273.324110
 42
-0.168745
  0
VERTEX
  8
0
 10
286.200388
 20
272.815757
 42
-0.064754
  0
VERTEX
  8
0
 10
286.639579
 20
271.795179
 42
-0.046835
  0
VERTEX
  8
0
 10
286.913401
 20
270.319345
 42
-0.022466
  0
VERTEX
  8
0
 10
287.000000
 20
268.393011
 42
0.017339
  0
VERTEX
  8
0
 10
287.073283
 20
266.280424
 42
0.065014
  0
VERTEX
  8
0
 10
287.335363
 20
264.982169
 42
0.127133
  0
VERTEX
  8
0
 10
287.805392
 20
264.267791
 42
0.186089
  0
VERTEX
  8
0
 10
288.500000
 20
264.000000
 42
0.286822
  0
VERTEX
  8
0
 10
289.265790
 20
264.478670
 42
0.076301
  0
VERTEX
  8
0
 10
289.712500
 20
265.916667
 42
0.032071
  0
VERTEX
  8
0
 10
289.944758
 20
268.649956
 42
0.005163
  0
VERTEX
  8
0
 10
290.000000
 20
274.000000
 42
0.005163
  0
VERTEX
  8
0
 10
289.944758
 20
279.350044
 42
0.032071
  0
VERTEX
  8
0
 10
289.712500
 20
282.083333
 42
0.076301
  0
VERTEX
  8
0
 10
289.265790
 20
283.521330
 42
0.286822
  0
VERTEX
  8
0
 10
288.500000
 20
284.000000
 42
0.164293
  0
VERTEX
  8
0
 10
287.830552
 20
283.773926
 42
0.129352
  0
VERTEX
  8
0
 10
287.357143
 20
283.166667
 42
0.075863
  0
VERTEX
  8
0
 10
287.081893
 20
282.104033
 42
0.025511
  0
VERTEX
  8
0
 10
287.000000
 20
280.500000
 42
-0.022514
  0
VERTEX
  8
0
 10
286.917816
 20
278.675720
 42
-0.107690
  0
VERTEX
  8
0
 10
286.607143
 20
277.687500
 42
-0.177212
  0
VERTEX
  8
0
 10
286.002462
 20
277.177287
 42
-0.087745
  0
VERTEX
  8
0
 10
285.000000
 20
277.000000
 42
-0.194673
  0
VERTEX
  8
0
 10
283.906332
 20
277.442587
 42
-0.154961
  0
VERTEX
  8
0
 10
283.297244
 20
278.572917
 42
-0.043165
  0
VERTEX
  8
0
 10
283.046375
 20
281.060801
 42
-0.003555
  0
VERTEX
  8
0
 10
283.000000
 20
287.583333
 42
-0.005308
  0
VERTEX
  8
0
 10
283.055513
 20
292.812186
 42
-0.025267
  0
VERTEX
  8
0
 10
283.269803
 20
295.793478
 42
-0.048576
  0
VERTEX
  8
0
 10
283.638138
 20
297.445651
 42
-0.414716
  0
VERTEX
  8
0
 10
284.250000
 20
297.755005
 42
-0.131805
  0
VERTEX
  8
0
 10
284.754257
 20
297.424458
 42
-0.053930
  0
VERTEX
  8
0
 10
285.234397
 20
296.752903
 42
-0.048349
  0
VERTEX
  8
0
 10
285.620979
 20
295.878613
 42
-0.044493
  0
SEQEND
  0
POLYLINE
  8
0
 66
1
 70
1
  0
VERTEX
  8
0
 10
615.931834
 20
295.201572
 42
-0.028591
  0
VERTEX
  8
0
 10
618.468238
 20
293.071715
 42
-0.347380
  0
VERTEX
  8
0
 10
618.641586
 20
291.896599
 42
-0.248340
  0
VERTEX
  8
0
 10
617.451482
 20
291.147565
 42
-0.018731
  0
VERTEX
  8
0
 10
613.513782
 20
291.000000
 42
0.007617
  0
VERTEX
  8
0
 10
610.045914
 20
290.947165
 42
0.092450
  0
VERTEX
  8
0
 10
608.751121
 20
290.664625
 42
0.248081
  0
VERTEX
  8
0
 10
608.216909
 20
290.011037
 42
0.085197
  0
VERTEX
  8
0
 10
608.180449
 20
288.750000
 42
0.095911
  0
VERTEX
  8
0
 10
608.604061
 20
287.522549
 42
0.177710
  0
VERTEX
  8
0
 10
609.402998
 20
286.855743
 42
0.076764
  0
VERTEX
  8
0
 10
610.948489
 20
286.557682
 42
0.008817
  0
VERTEX
  8
0
 10
614.500000
 20
286.487859
 42
-0.007875
  0
VERTEX
  8
0
 10
618.294524
 20
286.420412
 42
-0.094556
  0
VERTEX
  8
0
 10
619.715601
 20
286.099537
 42
-0.204436
  0
VERTEX
  8
0
 10
620.434365
 20
285.338527
 42
-0.059691
  0
VERTEX
  8
0
 10
620.816422
 20
283.737859
 42
0.000000
  0
VERTEX
  8
0
 10
621.132845
 20
281.000000
 42
0.000000
  0
VERTEX
  8
0
 10
614.566422
 20
281.000000
 42
0.006254
  0
VERTEX
  8
0
 10
610.394800
 20
280.947815
 42
0.084894
  0
VERTEX
  8
0
 10
608.906642
 20
280.654819
 42
0.227099
  0
VERTEX
  8
0
 10
608.228000
 20
279.941359
 42
0.078603
  0
VERTEX
  8
0
 10
608.000000
 20
278.500000
 42
0.077921
  0
VERTEX
  8
0
 10
608.225912
 20
277.059174
 42
0.226921
  0
VERTEX
  8
0
 10
608.900000
 20
276.346154
 42
0.085635
  0
VERTEX
  8
0
 10
610.376461
 20
276.052512
 42
0.006367
  0
VERTEX
  8
0
 10
614.500000
 20
276.000000
 42
0.000000
  0
VERTEX
  8
0
 10
621.000000
 20
276.000000
 42
0.000000
  0
VERTEX
  8
0
 10
621.000000
 20
273.000000
 42
0.000000
  0
VERTEX
  8
0
 10
621.000000
 20
270.000000
 42
0.000000
  0
VERTEX
  8
0
 10
614.500000
 20
270.000000
 42
0.007414
  0
VERTEX
  8
0
 10
610.696451
 20
269.943601
 42
0.067313
  0
VERTEX
  8
0
 10
609.062500
 20
269.673077
 42
0.186514
  0
VERTEX
  8
0
 10
608.292005
 20
269.066040
 42
0.134481
  0
VERTEX
  8
0
 10
608.000000
 20
268.000000
 42
0.134481
  0
VERTEX
  8
0
 10
608.292005
 20
266.933960
 42
0.186514
  0
VERTEX
  8
0
 10
609.062500
 20
266.326923
 42
0.067313
  0
VERTEX
  8
0
 10
610.696451
 20
266.056399
 42
0.007414
  0
VERTEX
  8
0
 10
614.500000
 20
266.000000
 42
0.000000
  0
VERTEX
  8
0
 10
621.000000
 20
266.000000
 42
0.000000
  0
VERTEX
  8
0
 10
621.000000
 20
263.000000
 42
0.000000
  0
VERTEX
  8
0
 10
621.000000
 20
260.000000
 42
0.000000
  0
VERTEX
  8
0
 10
614.500000
 20
260.000000
 42
0.007414
  0
VERTEX
  8
0
 10
610.696451
 20
259.943601
 42
0.067313
  0
VERTEX
  8
0
 10
609.062500
 20
259.673077
 42
0.186514
  0
VERTEX
  8
0
 10
608.292005
 20
259.066040
 42
0.134481
  0
VERTEX
  8
0
 10
608.000000
 20
258.000000
 42
0.126480
  0
VERTEX
  8
0
 10
608.272668
 20
256.939334
 42
0.188641
  0
VERTEX
  8
0
 10
609.000000
 20
256.333333
 42
0.072107
  0
VERTEX
  8
0
 10
610.528387
 20
256.058710
 42
0.008455
  0
VERTEX
  8
0
 10
614.000000
 20
256.000000
 42
0.000000
  0
VERTEX
  8
0
 10
620.000000
 20
256.000000
 42
0.000000
  0
VERTEX
  8
0
 10
620.000000
 20
253.000000
 42
0.000000
  0
VERTEX
  8
0
 10
620.000000
 20
250.000000
 42
0.000000
  0
VERTEX
  8
0
 10
614.000000
 20
250.000000
 42
0.008455
  0
VERTEX
  8
0
 10
610.528387
 20
249.941290
 42
0.072107
  0
VERTEX
  8
0
 10
609.000000
 20
249.666667
 42
0.188641
  0
VERTEX
  8
0
 10
608.272668
 20
249.060666
 42
0.126480
  0
VERTEX
  8
0
 10
608.000000
 20
248.000000
 42
0.119517
  0
VERTEX
  8
0
 10
608.255859
 20
246.944902
 42
0.189742
  0
VERTEX
  8
0
 10
608.945803
 20
246.339824
 42
0.076791
  0
VERTEX
  8
0
 10
610.382274
 20
246.061099
 42
0.009593
  0
VERTEX
  8
0
 10
613.566422
 20
246.000000
 42
-0.007127
  0
VERTEX
  8
0
 10
617.186299
 20
245.948401
 42
-0.113992
  0
VERTEX
  8
0
 10
618.364230
 20
245.640703
 42
-0.257900
  0
VERTEX
  8
0
 10
618.846214
 20
244.910597
 42
-0.048348
  0
VERTEX
  8
0
 10
618.816422
 20
243.250000
 42
-0.057956
  0
VERTEX
  8
0
 10
618.446716
 20
241.673450
 42
-0.183907
  0
VERTEX
  8
0
 10
617.752703
 20
240.865807
 42
-0.099314
  0
VERTEX
  8
0
 10
616.408999
 20
240.451337
 42
-0.010994
  0
VERTEX
  8
0
 10
613.187581
 20
240.195576
 42
0.009498
  0
VERTEX
  8
0
 10
610.048128
 20
239.955767
 42
0.092365
  0
VERTEX
  8
0
 10
608.772061
 20
239.589601
 42
0.224859
  0
VERTEX
  8
0
 10
608.236703
 20
238.906577
 42
0.091195
  0
VERTEX
  8
0
 10
608.187581
 20
237.695576
 42
0.081656
  0
VERTEX
  8
0
 10
608.546986
 20
236.551156
 42
0.165266
  0
VERTEX
  8
0
 10
609.213089
 20
235.897484
 42
0.095361
  0
VERTEX
  8
0
 10
610.416674
 20
235.579543
 42
0.017031
  0
VERTEX
  8
0
 10
612.751293
 20
235.500000
 42
-0.035559
  0
VERTEX
  8
0
 10
615.666843
 20
235.292390
 42
-0.251723
  0
VERTEX
  8
0
 10
616.770795
 20
234.478361
 42
-0.165277
  0
VERTEX
  8
0
 10
616.958547
 20
232.847653
 42
-0.014482
  0
VERTEX
  8
0
 10
615.947419
 20
228.750000
 42
-0.024759
  0
VERTEX
  8
0
 10
615.183425
 20
226.447624
 42
-0.158272
  0
VERTEX
  8
0
 10
614.416712
 20
225.506917
 42
-0.131252
  0
VERTEX
  8
0
 10
613.172174
 20
225.105510
 42
-0.015063
  0
VERTEX
  8
0
 10
610.202996
 20
225.043551
 42
-0.022617
  0
VERTEX
  8
0
 10
605.869273
 20
225.279912
 42
-0.020118
  0
VERTEX
  8
0
 10
601.400156
 20
225.909449
 42
-0.016470
  0
VERTEX
  8
0
 10
597.524548
 20
226.748117
 42
-0.140352
  0
VERTEX
  8
0
 10
596.001011
 20
227.630434
 42
-0.102900
  0
VERTEX
  8
0
 10
595.655743
 20
228.178816
 42
-0.022508
  0
VERTEX
  8
0
 10
595.311726
 20
229.246076
 42
-0.022533
  0
VERTEX
  8
0
 10
595.019905
 20
230.540400
 42
-0.019949
  0
VERTEX
  8
0
 10
594.831445
 20
231.909398
 42
0.000000
  0
VERTEX
  8
0
 10
594.500000
 20
235.318796
 42
0.000000
  0
VERTEX
  8
0
 10
599.000000
 20
235.409398
 42
0.015651
  0
VERTEX
  8
0
 10
601.500466
 20
235.538109
 42
0.092606
  0
VERTEX
  8
0
 10
602.758803
 20
235.882863
 42
0.164718
  0
VERTEX
  8
0
 10
603.447836
 20
236.562596
 42
0.081331
  0
VERTEX
  8
0
 10
603.819551
 20
237.750000
 42
0.075588
  0
VERTEX
  8
0
 10
603.807244
 20
239.004384
 42
0.244196
  0
VERTEX
  8
0
 10
603.324933
 20
239.652561
 42
0.103805
  0
VERTEX
  8
0
 10
602.164570
 20
239.942918
 42
0.009582
  0
VERTEX
  8
0
 10
599.186128
 20
240.000000
 42
-0.012694
  0
VERTEX
  8
0
 10
596.287021
 20
240.073614
 42
-0.094624
  0
VERTEX
  8
0
 10
594.954689
 20
240.398896
 42
-0.172593
  0
VERTEX
  8
0
 10
594.217269
 20
241.113900
 42
-0.067635
  0
VERTEX
  8
0
 10
593.759742
 20
242.476498
 42
-0.049644
  0
VERTEX
  8
0
 10
593.577344
 20
244.504981
 42
-0.251012
  0
VERTEX
  8
0
 10
594.105354
 20
245.468311
 42
-0.133366
  0
VERTEX
  8
0
 10
595.482343
 20
245.913012
 42
-0.011804
  0
VERTEX
  8
0
 10
599.166667
 20
246.000000
 42
0.012274
  0
VERTEX
  8
0
 10
601.865904
 20
246.066269
 42
0.086023
  0
VERTEX
  8
0
 10
603.145833
 20
246.353448
 42
0.189431
  0
VERTEX
  8
0
 10
603.772490
 20
246.957177
 42
0.107816
  0
VERTEX
  8
0
 10
604.000000
 20
248.000000
 42
0.118451
  0
VERTEX
  8
0
 10
603.746716
 20
249.054152
 42
0.189837
  0
VERTEX
  8
0
 10
603.062500
 20
249.659091
 42
0.077556
  0
VERTEX
  8
0
 10
601.640147
 20
249.938496
 42
0.009792
  0
VERTEX
  8
0
 10
598.500000
 20
250.000000
 42
-0.008002
  0
VERTEX
  8
0
 10
594.917511
 20
250.057336
 42
-0.117370
  0
VERTEX
  8
0
 10
593.708333
 20
250.386364
 42
-0.230406
  0
VERTEX
  8
0
 10
593.152071
 20
251.167950
 42
-0.041432
  0
VERTEX
  8
0
 10
593.000000
 20
253.000000
 42
-0.041432
  0
VERTEX
  8
0
 10
593.152071
 20
254.832050
 42
-0.230406
  0
VERTEX
  8
0
 10
593.708333
 20
255.613636
 42
-0.117370
  0
VERTEX
  8
0
 10
594.917511
 20
255.942664
 42
-0.008002
  0
VERTEX
  8
0
 10
598.500000
 20
256.000000
 42
0.009792
  0
VERTEX
  8
0
 10
601.640147
 20
256.061504
 42
0.077556
  0
VERTEX
  8
0
 10
603.062500
 20
256.340909
 42
0.189837
  0
VERTEX
  8
0
 10
603.746716
 20
256.945848
 42
0.118451
  0
VERTEX
  8
0
 10
604.000000
 20
258.000000
 42
0.116631
  0
VERTEX
  8
0
 10
603.751114
 20
259.052468
 42
0.189949
  0
VERTEX
  8
0
 10
603.076687
 20
259.657175
 42
0.078895
  0
VERTEX
  8
0
 10
601.678486
 20
259.937780
 42
0.010149
  0
VERTEX
  8
0
 10
598.613499
 20
260.000000
 42
-0.009784
  0
VERTEX
  8
0
 10
595.205927
 20
260.066683
 42
-0.109518
  0
VERTEX
  8
0
 10
593.902439
 20
260.409673
 42
-0.195637
  0
VERTEX
  8
0
 10
593.212702
 20
261.213862
 42
-0.044232
  0
VERTEX
  8
0
 10
592.786692
 20
263.000000
 42
0.000000
  0
VERTEX
  8
0
 10
592.346386
 20
266.000000
 42
0.000000
  0
VERTEX
  8
0
 10
598.173193
 20
266.000000
 42
0.009038
  0
VERTEX
  8
0
 10
601.495588
 20
266.060058
 42
0.071825
  0
VERTEX
  8
0
 10
603.003010
 20
266.333669
 42
0.183722
  0
VERTEX
  8
0
 10
603.727252
 20
266.926982
 42
0.131005
  0
VERTEX
  8
0
 10
604.000000
 20
267.950096
 42
0.134449
  0
VERTEX
  8
0
 10
603.720208
 20
268.971798
 42
0.167341
  0
VERTEX
  8
0
 10
602.974410
 20
269.605858
 42
0.070168
  0
VERTEX
  8
0
 10
601.447253
 20
269.968075
 42
0.010166
  0
VERTEX
  8
0
 10
598.250000
 20
270.200096
 42
-0.009409
  0
VERTEX
  8
0
 10
594.724944
 20
270.450537
 42
-0.092664
  0
VERTEX
  8
0
 10
593.298737
 20
270.852236
 42
-0.187710
  0
VERTEX
  8
0
 10
592.571273
 20
271.648378
 42
-0.063671
  0
VERTEX
  8
0
 10
592.188570
 20
273.198263
 42
-0.056700
  0
VERTEX
  8
0
 10
592.185948
 20
274.805612
 42
-0.244664
  0
VERTEX
  8
0
 10
592.701945
 20
275.573693
 42
-0.104978
  0
VERTEX
  8
0
 10
593.963959
 20
275.950509
 42
-0.007273
  0
VERTEX
  8
0
 10
597.688570
 20
276.198263
 42
0.009810
  0
VERTEX
  8
0
 10
600.960484
 20
276.432582
 42
0.071623
  0
VERTEX
  8
0
 10
602.485854
 20
276.796362
 42
0.172598
  0
VERTEX
  8
0
 10
603.224377
 20
277.442715
 42
0.128202
  0
VERTEX
  8
0
 10
603.500000
 20
278.500000
 42
0.094427
  0
VERTEX
  8
0
 10
603.258500
 20
279.767359
 42
0.220237
  0
VERTEX
  8
0
 10
602.574786
 20
280.418044
 42
0.070388
  0
VERTEX
  8
0
 10
601.041884
 20
280.707376
 42
0.004559
  0
VERTEX
  8
0
 10
596.500000
 20
280.875000
 42
-0.013307
  0
VERTEX
  8
0
 10
593.847118
 20
281.019416
 42
-0.112237
  0
VERTEX
  8
0
 10
592.712500
 20
281.376042
 42
-0.202855
  0
VERTEX
  8
0
 10
592.170276
 20
282.100603
 42
-0.060615
  0
VERTEX
  8
0
 10
592.000000
 20
283.500000
 42
-0.060615
  0
VERTEX
  8
0
 10
592.170276
 20
284.899397
 42
-0.202855
  0
VERTEX
  8
0
 10
592.712500
 20
285.623958
 42
-0.112237
  0
VERTEX
  8
0
 10
593.847118
 20
285.980584
 42
-0.013307
  0
VERTEX
  8
0
 10
596.500000
 20
286.125000
 42
0.004559
  0
VERTEX
  8
0
 10
601.041884
 20
286.292624
 42
0.070388
  0
VERTEX
  8
0
 10
602.574786
 20
286.581956
 42
0.220237
  0
VERTEX
  8
0
 10
603.258500
 20
287.232641
 42
0.094427
  0
VERTEX
  8
0
 10
603.500000
 20
288.500000
 42
0.127238
  0
VERTEX
  8
0
 10
603.226774
 20
289.556300
 42
0.172705
  0
VERTEX
  8
0
 10
602.493762
 20
290.202487
 42
0.072233
  0
VERTEX
  8
0
 10
600.981771
 20
290.566535
 42
0.009988
  0
VERTEX
  8
0
 10
597.750000
 20
290.799904
 42
-0.006553
  0
VERTEX
  8
0
 10
595.545335
 20
290.943886
 42
-0.010832
  0
VERTEX
  8
0
 10
593.689062
 20
291.130105
 42
-0.004634
  0
VERTEX
  8
0
 10
592.147495
 20
291.333082
 42
-0.373726
  0
VERTEX
  8
0
 10
592.000000
 20
291.502851
 42
-0.113551
  0
VERTEX
  8
0
 10
592.326991
 20
292.924132
 42
-0.032655
  0
VERTEX
  8
0
 10
593.450751
 20
294.898005
 42
-0.031594
  0
VERTEX
  8
0
 10
594.801754
 20
296.689968
 42
-0.141718
  0
VERTEX
  8
0
 10
595.889332
 20
297.402609
 42
-0.084175
  0
VERTEX
  8
0
 10
599.703069
 20
297.903323
 42
-0.017995
  0
VERTEX
  8
0
 10
606.389856
 20
297.411665
 42
-0.016229
  0
VERTEX
  8
0
 10
613.001481
 20
296.467566
 42
-0.117293
  0
SEQEND
  0
POLYLINE
  8
0
 66
1
 70
1
  0
VERTEX
  8
0
 10
280.000000
 20
287.000000
 42
-0.003852
  0
VERTEX
  8
0
 10
279.952743
 20
280.866382
 42
-0.045528
  0
VERTEX
  8
0
 10
279.700000
 20
278.500000
 42
-0.160003
  0
VERTEX
  8
0
 10
279.090416
 20
277.422160
 42
-0.186821
  0
VERTEX
  8
0
 10
278.000000
 20
277.000000
 42
-0.087745
  0
VERTEX
  8
0
 10
276.997538
 20
277.177287
 42
-0.177212
  0
VERTEX
  8
0
 10
276.392857
 20
277.687500
 42
-0.107690
  0
VERTEX
  8
0
 10
276.082184
 20
278.675720
 42
-0.022514
  0
VERTEX
  8
0
 10
276.000000
 20
280.500000
 42
0.025511
  0
VERTEX
  8
0
 10
275.918107
 20
282.104033
 42
0.075863
  0
VERTEX
  8
0
 10
275.642857
 20
283.166667
 42
0.129352
  0
VERTEX
  8
0
 10
275.169448
 20
283.773926
 42
0.164293
  0
VERTEX
  8
0
 10
274.500000
 20
284.000000
 42
0.287843
  0
VERTEX
  8
0
 10
273.733490
 20
283.518866
 42
0.075657
  0
VERTEX
  8
0
 10
273.287190
 20
282.069444
 42
0.031824
  0
VERTEX
  8
0
 10
273.055132
 20
279.315023
 42
0.005106
  0
VERTEX
  8
0
 10
273.000000
 20
273.916667
 42
0.005620
  0
VERTEX
  8
0
 10
273.055844
 20
268.948578
 42
0.026516
  0
VERTEX
  8
0
 10
273.270805
 20
266.106839
 42
0.052293
  0
VERTEX
  8
0
 10
273.641708
 20
264.543969
 42
0.408390
  0
VERTEX
  8
0
 10
274.250000
 20
264.244212
 42
0.193345
  0
VERTEX
  8
0
 10
274.765295
 20
264.677847
 42
0.035608
  0
VERTEX
  8
0
 10
275.279688
 20
265.835685
 42
0.033618
  0
VERTEX
  8
0
 10
275.717089
 20
267.358625
 42
0.025024
  0
VERTEX
  8
0
 10
276.000000
 20
269.085013
 42
-0.020406
  0
VERTEX
  8
0
 10
276.310190
 20
271.093896
 42
-0.057741
  0
VERTEX
  8
0
 10
276.741496
 20
272.443324
 42
-0.096944
  0
VERTEX
  8
0
 10
277.301118
 20
273.230537
 42
-0.193485
  0
VERTEX
  8
0
 10
278.000000
 20
273.507468
 42
-0.265582
  0
VERTEX
  8
0
 10
278.751915
 20
273.072789
 42
-0.088464
  0
VERTEX
  8
0
 10
279.205663
 20
271.833554
 42
-0.037204
  0
VERTEX
  8
0
 10
279.442277
 20
269.478812
 42
-0.006444
  0
VERTEX
  8
0
 10
279.500000
 20
265.000000
 42
0.000000
  0
VERTEX
  8
0
 10
279.500000
 20
256.500000
 42
0.000000
  0
VERTEX
  8
0
 10
275.526770
 20
256.745958
 42
-0.037869
  0
VERTEX
  8
0
 10
273.614285
 20
257.010646
 42
-0.047517
  0
VERTEX
  8
0
 10
271.909619
 20
257.553300
 42
-0.049324
  0
VERTEX
  8
0
 10
270.389546
 20
258.387122
 42
-0.046292
  0
VERTEX
  8
0
 10
269.026770
 20
259.518319
 42
-0.055244
  0
VERTEX
  8
0
 10
267.658417
 20
261.227520
 42
-0.076360
  0
VERTEX
  8
0
 10
266.872359
 20
263.024787
 42
-0.045800
  0
VERTEX
  8
0
 10
266.435649
 20
265.594526
 42
-0.008804
  0
VERTEX
  8
0
 10
266.155863
 20
270.315904
 42
-0.014242
  0
VERTEX
  8
0
 10
266.108323
 20
273.944653
 42
-0.014818
  0
VERTEX
  8
0
 10
266.269493
 20
277.522412
 42
-0.015698
  0
VERTEX
  8
0
 10
266.607750
 20
280.700211
 42
-0.036411
  0
VERTEX
  8
0
 10
267.107771
 20
283.043542
 42
0.020427
  0
VERTEX
  8
0
 10
267.584958
 20
284.975339
 42
0.016192
  0
VERTEX
  8
0
 10
267.946557
 20
287.095330
 42
0.016483
  0
VERTEX
  8
0
 10
268.153533
 20
289.086081
 42
0.038787
  0
VERTEX
  8
0
 10
268.143232
 20
290.578858
 42
-0.043315
  0
VERTEX
  8
0
 10
268.146091
 20
291.914690
 42
-0.050011
  0
VERTEX
  8
0
 10
268.384795
 20
293.164951
 42
-0.055544
  0
VERTEX
  8
0
 10
268.828146
 20
294.214844
 42
-0.092142
  0
VERTEX
  8
0
 10
269.441324
 20
294.951303
 42
-0.015620
  0
VERTEX
  8
0
 10
270.044856
 20
295.421146
 42
-0.029316
  0
VERTEX
  8
0
 10
270.564614
 20
295.755493
 42
-0.035483
  0
VERTEX
  8
0
 10
270.953351
 20
295.939491
 42
-0.464482
  0
VERTEX
  8
0
 10
271.076511
 20
295.872445
 42
-0.003135
  0
VERTEX
  8
0
 10
271.123599
 20
295.635707
 42
-0.000299
  0
VERTEX
  8
0
 10
271.234590
 20
295.056950
 42
-0.000381
  0
VERTEX
  8
0
 10
271.365981
 20
294.366741
 42
-0.000301
  0
VERTEX
  8
0
 10
271.507210
 20
293.619301
 42
0.059207
  0
VERTEX
  8
0
 10
272.155458
 20
291.556064
 42
0.165407
  0
VERTEX
  8
0
 10
273.176172
 20
290.461601
 42
0.242179
  0
VERTEX
  8
0
 10
274.371495
 20
290.441044
 42
0.119810
  0
VERTEX
  8
0
 10
275.567321
 20
291.441130
 42
0.038189
  0
VERTEX
  8
0
 10
276.115805
 20
292.316993
 42
0.029559
  0
VERTEX
  8
0
 10
276.579150
 20
293.343408
 42
0.030319
  0
VERTEX
  8
0
 10
276.898090
 20
294.358909
 42
0.061000
  0
VERTEX
  8
0
 10
277.000000
 20
295.191130
 42
-0.081515
  0
VERTEX
  8
0
 10
277.113388
 20
295.882013
 42
-0.092004
  0
VERTEX
  8
0
 10
277.440625
 20
296.468644
 42
-0.100689
  0
VERTEX
  8
0
 10
277.927886
 20
296.860882
 42
-0.119836
  0
VERTEX
  8
0
 10
278.500000
 20
297.000000
 42
-0.286822
  0
VERTEX
  8
0
 10
279.265790
 20
296.521330
 42
-0.076301
  0
VERTEX
  8
0
 10
279.712500
 20
295.083333
 42
-0.032071
  0
VERTEX
  8
0
 10
279.944758
 20
292.350044
 42
-0.005163
  0
SEQEND
  0
POLYLINE
  8
0
 66
1
 70
1
  0
VERTEX
  8
0
 10
501.391248
 20
293.120170
 42
-0.086399
  0
VERTEX
  8
0
 10
502.217598
 20
291.811428
 42
-0.060094
  0
VERTEX
  8
0
 10
502.686158
 20
290.123526
 42
-0.037409
  0
VERTEX
  8
0
 10
502.870860
 20
287.696472
 42
-0.010336
  0
VERTEX
  8
0
 10
502.796235
 20
283.870170
 42
0.000000
  0
VERTEX
  8
0
 10
502.500000
 20
276.500000
 42
0.000000
  0
VERTEX
  8
0
 10
483.250000
 20
276.228407
 42
0.000000
  0
VERTEX
  8
0
 10
464.000000
 20
275.956814
 42
0.000000
  0
VERTEX
  8
0
 10
464.000000
 20
285.478407
 42
0.000000
  0
VERTEX
  8
0
 10
464.000000
 20
295.000000
 42
0.000000
  0
VERTEX
  8
0
 10
481.845012
 20
295.000000
 42
-0.002463
  0
VERTEX
  8
0
 10
492.424298
 20
294.947889
 42
-0.021510
  0
VERTEX
  8
0
 10
497.112205
 20
294.699831
 42
-0.051946
  0
VERTEX
  8
0
 10
499.760626
 20
294.163861
 42
-0.133728
  0
SEQEND
  0
POLYLINE
  8
0
 66
1
 70
1
  0
VERTEX
  8
0
 10
540.595026
 20
291.477410
 42
-0.072183
  0
VERTEX
  8
0
 10
540.942572
 20
288.074840
 42
-0.017664
  0
VERTEX
  8
0
 10
540.504528
 20
282.444998
 42
-0.011546
  0
VERTEX
  8
0
 10
539.732242
 20
276.804306
 42
-0.217868
  0
VERTEX
  8
0
 10
538.765827
 20
275.355273
 42
-0.122478
  0
VERTEX
  8
0
 10
536.683281
 20
274.688562
 42
-0.007579
  0
VERTEX
  8
0
 10
530.151838
 20
274.355618
 42
-0.012289
  0
VERTEX
  8
0
 10
523.320885
 20
274.279133
 42
-0.022361
  0
VERTEX
  8
0
 10
517.750000
 20
274.603135
 42
0.000000
  0
VERTEX
  8
0
 10
512.000000
 20
275.196374
 42
0.000000
  0
VERTEX
  8
0
 10
512.000000
 20
283.398187
 42
-0.011282
  0
VERTEX
  8
0
 10
512.078530
 20
286.878200
 42
-0.020459
  0
VERTEX
  8
0
 10
512.323155
 20
289.714443
 42
-0.021196
  0
VERTEX
  8
0
 10
512.690784
 20
291.864684
 42
-0.144411
  0
VERTEX
  8
0
 10
513.200000
 20
292.800000
 42
-0.160443
  0
VERTEX
  8
0
 10
514.296202
 20
293.353011
 42
-0.015859
  0
VERTEX
  8
0
 10
517.265753
 20
293.703055
 42
-0.015416
  0
VERTEX
  8
0
 10
521.421625
 20
293.930992
 42
-0.005991
  0
VERTEX
  8
0
 10
527.180948
 20
294.000000
 42
0.000000
  0
VERTEX
  8
0
 10
539.961896
 20
294.000000
 42
0.000000
  0
SEQEND
  0
POLYLINE
  8
0
 66
1
 70
1
  0
VERTEX
  8
0
 10
672.768746
 20
289.610602
 42
-0.026812
  0
VERTEX
  8
0
 10
674.106516
 20
287.911324
 42
-0.011997
  0
VERTEX
  8
0
 10
675.688137
 20
285.545645
 42
-0.011837
  0
VERTEX
  8
0
 10
677.244858
 20
282.958348
 42
-0.015743
  0
VERTEX
  8
0
 10
678.528130
 20
280.532031
 42
0.000000
  0
VERTEX
  8
0
 10
681.311583
 20
274.842859
 42
0.000000
  0
VERTEX
  8
0
 10
679.107214
 20
263.869489
 42
-0.008736
  0
VERTEX
  8
0
 10
677.342923
 20
255.818024
 42
-0.010367
  0
VERTEX
  8
0
 10
675.387345
 20
248.282780
 42
-0.009122
  0
VERTEX
  8
0
 10
673.495933
 20
242.010948
 42
-0.066223
  0
VERTEX
  8
0
 10
672.148653
 20
239.174174
 42
-0.126908
  0
VERTEX
  8
0
 10
671.552101
 20
238.626525
 42
-0.031989
  0
VERTEX
  8
0
 10
670.341935
 20
238.076983
 42
-0.030568
  0
VERTEX
  8
0
 10
668.832042
 20
237.607949
 42
-0.026692
  0
VERTEX
  8
0
 10
667.206364
 20
237.300854
 42
-0.041339
  0
VERTEX
  8
0
 10
662.344759
 20
237.054148
 42
-0.015888
  0
VERTEX
  8
0
 10
655.590364
 20
237.484991
 42
-0.008113
  0
VERTEX
  8
0
 10
648.963013
 20
238.228360
 42
-0.545149
  0
VERTEX
  8
0
 10
648.553841
 20
239.087116
 42
-0.238863
  0
VERTEX
  8
0
 10
649.120350
 20
239.433109
 42
-0.012081
  0
VERTEX
  8
0
 10
651.346054
 20
239.556054
 42
-0.016760
  0
VERTEX
  8
0
 10
654.140424
 20
239.549082
 42
-0.010176
  0
VERTEX
  8
0
 10
657.440462
 20
239.362884
 42
0.012897
  0
VERTEX
  8
0
 10
665.370066
 20
238.958743
 42
0.118918
  0
VERTEX
  8
0
 10
668.710513
 20
239.676306
 42
0.171567
  0
VERTEX
  8
0
 10
670.780648
 20
241.757842
 42
0.034146
  0
VERTEX
  8
0
 10
672.730187
 20
246.716981
 42
0.010317
  0
VERTEX
  8
0
 10
673.703785
 20
250.031980
 42
0.004388
  0
VERTEX
  8
0
 10
674.876830
 20
254.509026
 42
0.004339
  0
VERTEX
  8
0
 10
676.045468
 20
259.309443
 42
0.005677
  0
VERTEX
  8
0
 10
677.025611
 20
263.718001
 42
0.000000
  0
VERTEX
  8
0
 10
679.175913
 20
273.936003
 42
0.000000
  0
VERTEX
  8
0
 10
676.620285
 20
279.518230
 42
0.009899
  0
VERTEX
  8
0
 10
675.481843
 20
281.880219
 42
0.008089
  0
VERTEX
  8
0
 10
674.173873
 20
284.361581
 42
0.008187
  0
VERTEX
  8
0
 10
672.895800
 20
286.605963
 42
0.021190
  0
VERTEX
  8
0
 10
671.880828
 20
288.167361
 42
0.000000
  0
VERTEX
  8
0
 10
669.697000
 20
291.234265
 42
0.000000
  0
VERTEX
  8
0
 10
660.598500
 20
290.526284
 42
-0.007073
  0
VERTEX
  8
0
 10
657.158861
 20
290.307533
 42
-0.013493
  0
VERTEX
  8
0
 10
654.389753
 20
290.245548
 42
-0.011144
  0
VERTEX
  8
0
 10
652.341600
 20
290.300637
 42
-0.648741
  0
VERTEX
  8
0
 10
652.238957
 20
290.564774
 42
-0.137663
  0
VERTEX
  8
0
 10
653.593799
 20
291.334853
 42
-0.016348
  0
VERTEX
  8
0
 10
657.007180
 20
292.064363
 42
-0.019448
  0
VERTEX
  8
0
 10
661.039319
 20
292.628338
 42
-0.018835
  0
VERTEX
  8
0
 10
665.146408
 20
292.885001
 42
-0.024586
  0
VERTEX
  8
0
 10
667.819827
 20
292.819709
 42
-0.083232
  0
VERTEX
  8
0
 10
669.510002
 20
292.406701
 42
-0.085005
  0
VERTEX
  8
0
 10
670.953957
 20
291.470246
 42
-0.026335
  0
SEQEND
  0
POLYLINE
  8
0
 66
1
 70
1
  0
VERTEX
  8
0
 10
566.964784
 20
282.592626
 42
0.072446
  0
VERTEX
  8
0
 10
567.560958
 20
281.521690
 42
0.066471
  0
VERTEX
  8
0
 10
568.453263
 20
280.629295
 42
0.061397
  0
VERTEX
  8
0
 10
569.617356
 20
279.947135
 42
0.047841
  0
VERTEX
  8
0
 10
571.014312
 20
279.496857
 42
-0.085542
  0
VERTEX
  8
0
 10
574.290520
 20
278.162118
 42
-0.044753
  0
VERTEX
  8
0
 10
577.815417
 20
275.499196
 42
-0.043531
  0
VERTEX
  8
0
 10
580.966269
 20
272.099005
 42
-0.058550
  0
VERTEX
  8
0
 10
583.135018
 20
268.508577
 42
-0.082712
  0
VERTEX
  8
0
 10
584.865950
 20
262.037494
 42
-0.062149
  0
VERTEX
  8
0
 10
584.660611
 20
254.657682
 42
-0.062896
  0
VERTEX
  8
0
 10
582.664722
 20
247.653057
 42
-0.090719
  0
VERTEX
  8
0
 10
579.120296
 20
242.291813
 42
0.049798
  0
VERTEX
  8
0
 10
578.308640
 20
241.257972
 42
0.037057
  0
VERTEX
  8
0
 10
577.622837
 20
239.978353
 42
0.037850
  0
VERTEX
  8
0
 10
577.153305
 20
238.660412
 42
0.066743
  0
VERTEX
  8
0
 10
577.000000
 20
237.517063
 42
-0.147776
  0
VERTEX
  8
0
 10
576.428209
 20
235.624656
 42
-0.120148
  0
VERTEX
  8
0
 10
574.864001
 20
234.182593
 42
-0.085088
  0
VERTEX
  8
0
 10
572.301571
 20
233.288049
 42
-0.041550
  0
VERTEX
  8
0
 10
568.841281
 20
233.000000
 42
-0.037953
  0
VERTEX
  8
0
 10
567.421207
 20
233.107948
 42
-0.086581
  0
VERTEX
  8
0
 10
566.405908
 20
233.449451
 42
-0.111378
  0
VERTEX
  8
0
 10
565.723994
 20
234.046383
 42
-0.093807
  0
VERTEX
  8
0
 10
565.311897
 20
234.915306
 42
0.101775
  0
VERTEX
  8
0
 10
564.925843
 20
235.697197
 42
0.056175
  0
VERTEX
  8
0
 10
564.178104
 20
236.462615
 42
0.052643
  0
VERTEX
  8
0
 10
563.208378
 20
237.097478
 42
0.057554
  0
VERTEX
  8
0
 10
562.155517
 20
237.493164
 42
-0.138674
  0
VERTEX
  8
0
 10
555.099735
 20
241.533957
 42
-0.098298
  0
VERTEX
  8
0
 10
550.078646
 20
249.212135
 42
-0.092561
  0
VERTEX
  8
0
 10
548.175550
 20
258.669345
 42
-0.105449
  0
VERTEX
  8
0
 10
549.972921
 20
267.715416
 42
-0.016988
  0
VERTEX
  8
0
 10
550.959873
 20
269.810577
 42
-0.016517
  0
VERTEX
  8
0
 10
552.095497
 20
271.854036
 42
-0.016671
  0
VERTEX
  8
0
 10
553.211563
 20
273.581510
 42
-0.057134
  0
VERTEX
  8
0
 10
554.092470
 20
274.583684
 42
0.070125
  0
VERTEX
  8
0
 10
554.862354
 20
275.506656
 42
0.047517
  0
VERTEX
  8
0
 10
555.471476
 20
276.735389
 42
0.045091
  0
VERTEX
  8
0
 10
555.866769
 20
278.135620
 42
0.046289
  0
VERTEX
  8
0
 10
556.000000
 20
279.571654
 42
-0.036243
  0
VERTEX
  8
0
 10
556.124755
 20
281.290481
 42
-0.107328
  0
VERTEX
  8
0
 10
556.537765
 20
282.391918
 42
-0.116175
  0
VERTEX
  8
0
 10
557.348053
 20
283.172767
 42
-0.046385
  0
VERTEX
  8
0
 10
558.750000
 20
283.837719
 42
-0.033040
  0
VERTEX
  8
0
 10
561.948639
 20
284.771794
 42
-0.092383
  0
VERTEX
  8
0
 10
564.274087
 20
284.850473
 42
-0.140059
  0
VERTEX
  8
0
 10
565.897281
 20
284.108534
 42
-0.125766
  0
SEQEND
  0
POLYLINE
  8
0
 66
1
 70
1
  0
VERTEX
  8
0
 10
233.428571
 20
282.428571
 42
-0.089602
  0
VERTEX
  8
0
 10
234.588034
 20
280.757819
 42
-0.124085
  0
VERTEX
  8
0
 10
234.915017
 20
278.971437
 42
-0.117655
  0
VERTEX
  8
0
 10
234.358621
 20
277.173420
 42
-0.075366
  0
VERTEX
  8
0
 10
232.969718
 20
275.472595
 42
-0.188627
  0
VERTEX
  8
0
 10
229.764477
 20
274.256277
 42
-0.178862
  0
VERTEX
  8
0
 10
226.496576
 20
275.501878
 42
-0.179916
  0
VERTEX
  8
0
 10
224.836294
 20
278.565494
 42
-0.190148
  0
VERTEX
  8
0
 10
225.631654
 20
281.884500
 42
-0.116779
  0
VERTEX
  8
0
 10
227.231240
 20
283.308180
 42
-0.106679
  0
VERTEX
  8
0
 10
229.353643
 20
283.923593
 42
-0.104967
  0
VERTEX
  8
0
 10
231.569400
 20
283.612474
 42
-0.109619
  0
SEQEND
  0
POLYLINE
  8
0
 66
1
 70
1
  0
VERTEX
  8
0
 10
716.593362
 20
274.250000
 42
0.000000
  0
VERTEX
  8
0
 10
728.983950
 20
267.500000
 42
0.000000
  0
VERTEX
  8
0
 10
728.991975
 20
252.875000
 42
-0.003933
  0
VERTEX
  8
0
 10
728.949327
 20
247.046082
 42
-0.004891
  0
VERTEX
  8
0
 10
728.814049
 20
241.628125
 42
-0.004013
  0
VERTEX
  8
0
 10
728.619690
 20
237.086658
 42
-0.036666
  0
VERTEX
  8
0
 10
728.375000
 20
235.125000
 42
0.000000
  0
VERTEX
  8
0
 10
727.750000
 20
232.000000
 42
0.000000
  0
VERTEX
  8
0
 10
715.394052
 20
232.000000
 42
0.000000
  0
VERTEX
  8
0
 10
703.038104
 20
232.000000
 42
0.000000
  0
VERTEX
  8
0
 10
702.449698
 20
229.250000
 42
-0.043732
  0
VERTEX
  8
0
 10
700.368321
 20
222.478223
 42
-0.050909
  0
VERTEX
  8
0
 10
697.216065
 20
216.530232
 42
-0.058752
  0
VERTEX
  8
0
 10
693.623277
 20
212.320004
 42
-0.188950
  0
VERTEX
  8
0
 10
690.254988
 20
211.000000
 42
-0.305309
  0
VERTEX
  8
0
 10
685.699915
 20
214.067321
 42
-0.102859
  0
VERTEX
  8
0
 10
684.188147
 20
222.350657
 42
-0.079799
  0
VERTEX
  8
0
 10
686.066006
 20
232.455794
 42
-0.111054
  0
VERTEX
  8
0
 10
690.969956
 20
240.205250
 42
-0.019146
  0
VERTEX
  8
0
 10
692.538563
 20
241.658114
 42
-0.023490
  0
VERTEX
  8
0
 10
694.113739
 20
242.885292
 42
-0.022895
  0
VERTEX
  8
0
 10
695.505548
 20
243.775626
 42
-0.131581
  0
VERTEX
  8
0
 10
696.343398
 20
244.000000
 42
-0.156777
  0
VERTEX
  8
0
 10
698.118613
 20
243.429346
 42
-0.061766
  0
VERTEX
  8
0
 10
700.027330
 20
241.667447
 42
-0.060584
  0
VERTEX
  8
0
 10
701.508222
 20
239.411951
 42
-0.115500
  0
VERTEX
  8
0
 10
702.000000
 20
237.311439
 42
0.034530
  0
VERTEX
  8
0
 10
702.061214
 20
236.426106
 42
0.052626
  0
VERTEX
  8
0
 10
702.246599
 20
235.678985
 42
0.068557
  0
VERTEX
  8
0
 10
702.517470
 20
235.165323
 42
0.241704
  0
VERTEX
  8
0
 10
702.839485
 20
235.000000
 42
0.289842
  0
VERTEX
  8
0
 10
704.179761
 20
235.848193
 42
0.038977
  0
VERTEX
  8
0
 10
705.424618
 20
239.111486
 42
0.032576
  0
VERTEX
  8
0
 10
706.494376
 20
243.864323
 42
0.016152
  0
VERTEX
  8
0
 10
707.258855
 20
250.000000
 42
0.003519
  0
VERTEX
  8
0
 10
708.040132
 20
259.210993
 42
0.023455
  0
VERTEX
  8
0
 10
708.181334
 20
263.811988
 42
0.047814
  0
VERTEX
  8
0
 10
707.844343
 20
266.814287
 42
0.063485
  0
VERTEX
  8
0
 10
706.944023
 20
269.407759
 42
0.035118
  0
VERTEX
  8
0
 10
705.984019
 20
271.041954
 42
0.057758
  0
VERTEX
  8
0
 10
704.932025
 20
272.249331
 42
0.046418
  0
VERTEX
  8
0
 10
703.472739
 20
273.349290
 42
0.015267
  0
VERTEX
  8
0
 10
701.140762
 20
274.692571
 42
-0.382436
  0
VERTEX
  8
0
 10
700.978419
 20
275.139845
 42
-0.005682
  0
VERTEX
  8
0
 10
702.138201
 20
277.931610
 42
-0.006060
  0
VERTEX
  8
0
 10
703.360117
 20
280.688386
 42
-0.293372
  0
VERTEX
  8
0
 10
703.845499
 20
281.000000
 42
-0.122062
  0
VERTEX
  8
0
 10
704.113259
 20
280.933645
 42
-0.000281
  0
VERTEX
  8
0
 10
707.737560
 20
279.017187
 42
-0.001829
  0
VERTEX
  8
0
 10
711.817429
 20
276.837753
 42
-0.001134
  0
SEQEND
  0
POLYLINE
  8
0
 66
1
 70
1
  0
VERTEX
  8
0
 10
500.720346
 20
266.622435
 42
-0.135499
  0
VERTEX
  8
0
 10
501.233954
 20
265.789315
 42
-0.015773
  0
VERTEX
  8
0
 10
501.784148
 20
263.648446
 42
-0.018021
  0
VERTEX
  8
0
 10
502.275681
 20
261.006859
 42
-0.013816
  0
VERTEX
  8
0
 10
502.628121
 20
258.091423
 42
0.000000
  0
VERTEX
  8
0
 10
503.315549
 20
250.694968
 42
0.000000
  0
VERTEX
  8
0
 10
484.907774
 20
251.413538
 42
-0.003338
  0
VERTEX
  8
0
 10
477.804047
 20
251.738351
 42
-0.005262
  0
VERTEX
  8
0
 10
471.713130
 20
252.121936
 42
-0.001593
  0
VERTEX
  8
0
 10
466.454234
 20
252.525578
 42
-0.182669
  0
VERTEX
  8
0
 10
465.839050
 20
252.816053
 42
-0.146719
  0
VERTEX
  8
0
 10
465.550075
 20
253.375291
 42
-0.006275
  0
VERTEX
  8
0
 10
465.163799
 20
255.585360
 42
-0.010289
  0
VERTEX
  8
0
 10
464.788357
 20
258.251369
 42
-0.007101
  0
VERTEX
  8
0
 10
464.468466
 20
261.283045
 42
0.000000
  0
VERTEX
  8
0
 10
463.758832
 20
269.066089
 42
0.000000
  0
VERTEX
  8
0
 10
481.629416
 20
268.411540
 42
-0.004635
  0
VERTEX
  8
0
 10
489.160747
 20
268.065760
 42
-0.009573
  0
VERTEX
  8
0
 10
495.037453
 20
267.628341
 42
-0.006299
  0
VERTEX
  8
0
 10
499.596423
 20
267.143084
 42
-0.158904
  0
SEQEND
  0
POLYLINE
  8
0
 66
1
 70
1
  0
VERTEX
  8
0
 10
540.369714
 20
264.750000
 42
-0.038561
  0
VERTEX
  8
0
 10
540.604263
 20
263.494956
 42
-0.008738
  0
VERTEX
  8
0
 10
540.799577
 20
261.335335
 42
-0.009000
  0
VERTEX
  8
0
 10
540.936830
 20
258.829524
 42
-0.008631
  0
VERTEX
  8
0
 10
540.986345
 20
256.285184
 42
-0.011446
  0
VERTEX
  8
0
 10
540.917294
 20
252.948738
 42
-0.053897
  0
VERTEX
  8
0
 10
540.628931
 20
251.057064
 42
-0.098796
  0
VERTEX
  8
0
 10
540.046317
 20
249.868957
 42
-0.107039
  0
VERTEX
  8
0
 10
539.065741
 20
249.035184
 42
-0.116519
  0
VERTEX
  8
0
 10
535.859842
 20
248.184387
 42
-0.006138
  0
VERTEX
  8
0
 10
525.181872
 20
248.022735
 42
-0.003702
  0
VERTEX
  8
0
 10
514.092450
 20
248.073114
 42
-0.256747
  0
VERTEX
  8
0
 10
512.525199
 20
248.959227
 42
-0.113438
  0
VERTEX
  8
0
 10
511.683978
 20
251.434010
 42
-0.015702
  0
VERTEX
  8
0
 10
511.299791
 20
256.885812
 42
-0.015488
  0
VERTEX
  8
0
 10
511.256168
 20
262.352089
 42
-0.117639
  0
VERTEX
  8
0
 10
511.906835
 20
264.825919
 42
-0.133915
  0
VERTEX
  8
0
 10
513.065468
 20
266.050723
 42
-0.099880
  0
VERTEX
  8
0
 10
514.821836
 20
266.687489
 42
-0.034211
  0
VERTEX
  8
0
 10
518.087574
 20
266.950343
 42
-0.002980
  0
VERTEX
  8
0
 10
526.418552
 20
267.000000
 42
-0.002588
  0
VERTEX
  8
0
 10
535.013281
 20
266.955518
 42
-0.037405
  0
VERTEX
  8
0
 10
538.047925
 20
266.696566
 42
-0.131020
  0
VERTEX
  8
0
 10
539.538745
 20
266.029993
 42
-0.158290
  0
SEQEND
  0
POLYLINE
  8
0
 66
1
 70
1
  0
VERTEX
  8
0
 10
490.279034
 20
241.417377
 42
-0.007016
  0
VERTEX
  8
0
 10
495.611680
 20
241.062364
 42
-0.017487
  0
VERTEX
  8
0
 10
499.492382
 20
240.612223
 42
-0.019861
  0
VERTEX
  8
0
 10
502.250980
 20
240.081215
 42
-0.139779
  0
VERTEX
  8
0
 10
503.433999
 20
239.423144
 42
-0.135257
  0
VERTEX
  8
0
 10
504.572003
 20
237.419424
 42
-0.010125
  0
VERTEX
  8
0
 10
505.998782
 20
231.253221
 42
-0.007334
  0
VERTEX
  8
0
 10
507.238899
 20
224.889729
 42
-0.245564
  0
VERTEX
  8
0
 10
506.789458
 20
223.456125
 42
-0.214496
  0
VERTEX
  8
0
 10
506.289757
 20
223.266431
 42
-0.001122
  0
VERTEX
  8
0
 10
500.929715
 20
223.599306
 42
-0.004649
  0
VERTEX
  8
0
 10
494.784152
 20
224.052227
 42
-0.002898
  0
VERTEX
  8
0
 10
487.589615
 20
224.691767
 42
-0.003189
  0
VERTEX
  8
0
 10
473.255428
 20
226.142045
 42
-0.109300
  0
VERTEX
  8
0
 10
470.045868
 20
227.223305
 42
-0.217875
  0
VERTEX
  8
0
 10
468.482271
 20
229.513376
 42
-0.018230
  0
VERTEX
  8
0
 10
467.502359
 20
236.805991
 42
0.000000
  0
VERTEX
  8
0
 10
466.888018
 20
243.111982
 42
0.000000
  0
VERTEX
  8
0
 10
472.694009
 20
242.573831
 42
0.005113
  0
VERTEX
  8
0
 10
475.707560
 20
242.325561
 42
0.001576
  0
VERTEX
  8
0
 10
480.254581
 20
242.012135
 42
0.001576
  0
VERTEX
  8
0
 10
485.343550
 20
241.693577
 42
0.001730
  0
SEQEND
  0
POLYLINE
  8
0
 66
1
 70
1
  0
VERTEX
  8
0
 10
540.395246
 20
237.956324
 42
-0.088670
  0
VERTEX
  8
0
 10
541.323636
 20
236.692682
 42
-0.051349
  0
VERTEX
  8
0
 10
541.979210
 20
234.919588
 42
-0.034817
  0
VERTEX
  8
0
 10
542.441875
 20
232.404631
 42
-0.012060
  0
VERTEX
  8
0
 10
542.767167
 20
228.726360
 42
0.000000
  0
VERTEX
  8
0
 10
543.243841
 20
221.298768
 42
0.000000
  0
VERTEX
  8
0
 10
539.996920
 20
220.649384
 42
-0.039167
  0
VERTEX
  8
0
 10
535.516597
 20
220.113230
 42
-0.013918
  0
VERTEX
  8
0
 10
529.061469
 20
220.029477
 42
-0.011965
  0
VERTEX
  8
0
 10
522.761079
 20
220.273989
 42
-0.075292
  0
VERTEX
  8
0
 10
519.625901
 20
220.952132
 42
-0.086001
  0
VERTEX
  8
0
 10
517.542542
 20
222.186564
 42
-0.104929
  0
VERTEX
  8
0
 10
516.164605
 20
223.979634
 42
-0.066282
  0
VERTEX
  8
0
 10
515.244344
 20
226.815758
 42
-0.016972
  0
VERTEX
  8
0
 10
514.534056
 20
231.598023
 42
-0.039460
  0
VERTEX
  8
0
 10
514.340000
 20
237.199960
 42
-0.240162
  0
VERTEX
  8
0
 10
515.726149
 20
239.645536
 42
-0.147983
  0
VERTEX
  8
0
 10
519.034634
 20
240.632536
 42
-0.013213
  0
VERTEX
  8
0
 10
527.808341
 20
240.366260
 42
-0.006914
  0
VERTEX
  8
0
 10
533.281644
 20
239.979244
 42
-0.026195
  0
VERTEX
  8
0
 10
536.679820
 20
239.511463
 42
-0.042803
  0
VERTEX
  8
0
 10
538.925081
 20
238.878625
 42
-0.100336
  0
SEQEND
  0
POLYLINE
  8
0
 66
1
 70
1
  0
VERTEX
  8
0
 10
669.056128
 20
217.078825
 42
-0.035674
  0
VERTEX
  8
0
 10
666.728083
 20
214.258643
 42
-0.029140
  0
VERTEX
  8
0
 10
663.867694
 20
211.587929
 42
-0.027984
  0
VERTEX
  8
0
 10
661.073527
 20
209.520976
 42
-0.127216
  0
VERTEX
  8
0
 10
659.173275
 20
208.874599
 42
-0.010966
  0
VERTEX
  8
0
 10
654.926139
 20
208.649829
 42
-0.005038
  0
VERTEX
  8
0
 10
649.384675
 20
208.534179
 42
-0.001537
  0
VERTEX
  8
0
 10
643.680018
 20
208.490160
 42
-0.119264
  0
VERTEX
  8
0
 10
642.803513
 20
208.697946
 42
-0.332287
  0
VERTEX
  8
0
 10
642.530360
 20
209.250649
 42
-0.019529
  0
VERTEX
  8
0
 10
642.967996
 20
211.192528
 42
-0.017113
  0
VERTEX
  8
0
 10
643.855503
 20
214.113886
 42
-0.004443
  0
VERTEX
  8
0
 10
645.485286
 20
218.750000
 42
-0.265332
  0
VERTEX
  8
0
 10
646.205462
 20
219.362967
 42
-0.022743
  0
VERTEX
  8
0
 10
648.694916
 20
219.716230
 42
-0.018730
  0
VERTEX
  8
0
 10
652.512940
 20
219.938033
 42
-0.005143
  0
VERTEX
  8
0
 10
658.536709
 20
220.000000
 42
0.000000
  0
VERTEX
  8
0
 10
671.136188
 20
220.000000
 42
0.000000
  0
SEQEND
  0
POLYLINE
  8
0
 66
1
 70
1
  0
VERTEX
  8
0
 10
589.750000
 20
211.838048
 42
-0.036621
  0
VERTEX
  8
0
 10
590.993987
 20
211.355864
 42
-0.047329
  0
VERTEX
  8
0
 10
592.045313
 20
210.729126
 42
-0.055351
  0
VERTEX
  8
0
 10
592.774173
 20
210.059920
 42
-0.181311
  0
VERTEX
  8
0
 10
593.000000
 20
209.457632
 42
-0.252980
  0
VERTEX
  8
0
 10
591.999032
 20
207.605892
 42
-0.093133
  0
VERTEX
  8
0
 10
589.164828
 20
206.427803
 42
-0.044029
  0
VERTEX
  8
0
 10
584.007349
 20
205.804815
 42
-0.010041
  0
VERTEX
  8
0
 10
575.205073
 20
205.698045
 42
-0.004172
  0
VERTEX
  8
0
 10
567.251356
 20
205.827666
 42
-0.030230
  0
VERTEX
  8
0
 10
563.441794
 20
206.152569
 42
-0.060382
  0
VERTEX
  8
0
 10
560.895278
 20
206.846766
 42
-0.052818
  0
VERTEX
  8
0
 10
558.461906
 20
208.151882
 42
-0.105235
  0
VERTEX
  8
0
 10
555.767306
 20
210.968480
 42
-0.487830
  0
VERTEX
  8
0
 10
556.435821
 20
212.776498
 42
-0.079276
  0
VERTEX
  8
0
 10
561.564410
 20
213.555210
 42
-0.007254
  0
VERTEX
  8
0
 10
574.500000
 20
213.270020
 42
-0.006621
  0
VERTEX
  8
0
 10
579.332602
 20
213.029191
 42
-0.007648
  0
VERTEX
  8
0
 10
583.929688
 20
212.668365
 42
-0.006935
  0
VERTEX
  8
0
 10
587.808259
 20
212.249824
 42
-0.043830
  0
SEQEND
  0
ENDSEC
  0
EOF
