M48
INCH,TZ
T1C0.0350
T2C0.0394
%
G90
G05
T1
X74600Y-46200
X74600Y-47200
X74600Y-48200
X74600Y-49200
X74600Y-50200
X74600Y-51200
X74600Y-52200
X74600Y-53200
X74600Y-54200
X74600Y-55200
X74600Y-56200
X74600Y-57200
X74600Y-58200
X83600Y-46200
X83600Y-47200
X83600Y-48200
X83600Y-49200
X83600Y-50200
X83600Y-51200
X83600Y-52200
X83600Y-53200
X83600Y-54200
X83600Y-55200
X83600Y-56200
X83600Y-57200
X83600Y-58200
T2
X86200Y-59100
X86200Y-60100
X76300Y-46200
X76300Y-47200
X76300Y-48200
X76300Y-49200
X76300Y-50200
X76300Y-51200
X76300Y-52200
X76300Y-53200
X76300Y-54200
X76300Y-55200
X76300Y-56200
X76300Y-57200
X86200Y-56000
X86200Y-57000
X81700Y-52200
X81700Y-53200
X81700Y-54200
X81700Y-55200
X81700Y-56200
X81700Y-57200
X81700Y-58200
X76100Y-31600
X76100Y-32600
X76100Y-33600
X76100Y-34600
X76100Y-35600
X73300Y-37600
X73300Y-38600
X73300Y-39600
X73300Y-40600
X73300Y-41600
T0
M30
