%TF.GenerationSoftware,KiCad,Pcbnew,(5.1.6)-1*%
%TF.CreationDate,2021-04-30T10:44:40-04:00*%
%TF.ProjectId,Engine_Doctor_v0.1,456e6769-6e65-45f4-946f-63746f725f76,rev?*%
%TF.SameCoordinates,Original*%
%TF.FileFunction,Soldermask,Bot*%
%TF.FilePolarity,Negative*%
%FSLAX46Y46*%
G04 Gerber Fmt 4.6, Leading zero omitted, Abs format (unit mm)*
G04 Created by KiCad (PCBNEW (5.1.6)-1) date 2021-04-30 10:44:40*
%MOMM*%
%LPD*%
G01*
G04 APERTURE LIST*
%ADD10O,1.800000X1.800000*%
%ADD11R,1.800000X1.800000*%
%ADD12O,2.386000X1.370000*%
G04 APERTURE END LIST*
D10*
%TO.C,J2*%
X193294000Y-90424000D03*
X193294000Y-87884000D03*
X193294000Y-85344000D03*
X193294000Y-82804000D03*
D11*
X193294000Y-80264000D03*
%TD*%
D12*
%TO.C,U1*%
X189484000Y-132588000D03*
X212344000Y-132588000D03*
X189484000Y-130048000D03*
X189484000Y-127508000D03*
X189484000Y-124968000D03*
X189484000Y-122428000D03*
X189484000Y-119888000D03*
X189484000Y-117348000D03*
X212344000Y-130048000D03*
X212344000Y-127508000D03*
X212344000Y-124968000D03*
X212344000Y-122428000D03*
X212344000Y-119888000D03*
X212344000Y-117348000D03*
X212344000Y-135128000D03*
X212344000Y-137668000D03*
X212344000Y-140208000D03*
X212344000Y-142748000D03*
X212344000Y-145288000D03*
X212344000Y-147828000D03*
X189484000Y-135128000D03*
X189484000Y-137668000D03*
X189484000Y-140208000D03*
X189484000Y-142748000D03*
X189484000Y-145288000D03*
X189484000Y-147828000D03*
%TD*%
D11*
%TO.C,J1*%
X186182000Y-95504000D03*
D10*
X186182000Y-98044000D03*
X186182000Y-100584000D03*
X186182000Y-103124000D03*
X186182000Y-105664000D03*
%TD*%
%TO.C,J3*%
X218948000Y-152654000D03*
D11*
X218948000Y-150114000D03*
%TD*%
%TO.C,SW1*%
X218948000Y-142240000D03*
D10*
X218948000Y-144780000D03*
%TD*%
D11*
%TO.C,J4*%
X193802000Y-117348000D03*
D10*
X193802000Y-119888000D03*
X193802000Y-122428000D03*
X193802000Y-124968000D03*
X193802000Y-127508000D03*
X193802000Y-130048000D03*
X193802000Y-132588000D03*
X193802000Y-135128000D03*
X193802000Y-137668000D03*
X193802000Y-140208000D03*
X193802000Y-142748000D03*
X193802000Y-145288000D03*
%TD*%
D11*
%TO.C,J5*%
X207518000Y-132588000D03*
D10*
X207518000Y-135128000D03*
X207518000Y-137668000D03*
X207518000Y-140208000D03*
X207518000Y-142748000D03*
X207518000Y-145288000D03*
X207518000Y-147828000D03*
%TD*%
M02*
